{
.appVersion = "1342";
classes = (
{
automatic = 1;
code = "k-deva kh-deva g-deva gh-deva ng-deva c-deva ch-deva j-deva jh-deva ny-deva tt-deva tth-deva dd-deva ddh-deva nn-deva t-deva th-deva dh-deva n-deva p-deva ph-deva b-deva bh-deva m-deva y-deva rr-deva l-deva ll-deva v-deva sh-deva ss-deva s-deva h-deva";
name = DevaHalfforms;
},
{
automatic = 1;
code = "iMatra-deva";
name = DevaIMatras;
},
{
automatic = 1;
code = "iMatra_reph-deva";
name = DevaIMatraRephs;
},
{
automatic = 1;
code = "iMatra_reph_anusvara-deva";
name = DevaIMatraRephAnusvaras;
},
{
automatic = 1;

glyphs = (
{
glyphname = "a-deva";
lastChange = "2022-01-18 13:57:14 +0000";
layers = (
{
background = {
paths = (
{
closed = 1;
nodes = (
"766 538 OFFCURVE",
"745 361 OFFCURVE",
"733 174 CURVE SMOOTH",
"728 94 OFFCURVE",
"664 -21 OFFCURVE",
"601 -21 CURVE SMOOTH",
"565 -21 OFFCURVE",
"577 27 OFFCURVE",
"582 63 CURVE SMOOTH",
"589 117 OFFCURVE",
"606 295 OFFCURVE",
"629 541 CURVE",
"766 538 LINE"
);
},
{
closed = 1;
nodes = (
"877 630 OFFCURVE",
"886 623 OFFCURVE",
"881 608 CURVE SMOOTH",
"856 530 LINE SMOOTH",
"849 509 OFFCURVE",
"839 511 OFFCURVE",
"822 511 CURVE",
"575 511 LINE SMOOTH",
"556 511 OFFCURVE",
"549 518 OFFCURVE",
"554 533 CURVE SMOOTH",
"579 611 LINE SMOOTH",
"586 632 OFFCURVE",
"596 630 OFFCURVE",
"628 630 CURVE",
"858 630 LINE SMOOTH"
);
},
{
closed = 1;
nodes = (
"452 395 LINE",
"490 373 OFFCURVE",
"558 350 OFFCURVE",
"619 384 CURVE",
"608 259 LINE",
"500 262 OFFCURVE",
"454 308 OFFCURVE",
"405 346 CURVE"
);
},
{
closed = 1;
nodes = (
"276 502 OFFCURVE",
"271 507 OFFCURVE",
"271 516 CURVE SMOOTH",
"271 541 OFFCURVE",
"350 608 OFFCURVE",
"406 608 CURVE SMOOTH",
"460 608 OFFCURVE",
"518 554 OFFCURVE",
"518 492 CURVE SMOOTH",
"518 419 OFFCURVE",
"437 361 OFFCURVE",
"405 346 CURVE",
"457 328 OFFCURVE",
"502 284 OFFCURVE",
"502 206 CURVE SMOOTH",
"502 121 OFFCURVE",
"421 17 OFFCURVE",
"242 17 CURVE SMOOTH",
"121 17 OFFCURVE",
"25 83 OFFCURVE",
"25 180 CURVE SMOOTH",
"25 278 OFFCURVE",
"129 337 OFFCURVE",
"162 337 CURVE SMOOTH",
"191 337 OFFCURVE",
"149 279 OFFCURVE",
"149 210 CURVE SMOOTH",
"149 168 OFFCURVE",
"155 119 OFFCURVE",
"233 119 CURVE SMOOTH",
"304 119 OFFCURVE",
"360 155 OFFCURVE",
"360 226 CURVE SMOOTH",
"360 269 OFFCURVE",
"345 290 OFFCURVE",
"322 290 CURVE SMOOTH",
"300 290 OFFCURVE",
"285 286 OFFCURVE",
"268 286 CURVE SMOOTH",
"249 286 OFFCURVE",
"244 298 OFFCURVE",
"244 320 CURVE SMOOTH",
"244 373 OFFCURVE",
"248 387 OFFCURVE",
"279 387 CURVE SMOOTH",
"326 387 OFFCURVE",
"383 384 OFFCURVE",
"383 440 CURVE SMOOTH",
"383 477 OFFCURVE",
"380 515 OFFCURVE",
"353 515 CURVE SMOOTH",
"339 515 OFFCURVE",
"300 502 OFFCURVE",
"287 502 CURVE SMOOTH"
);
},
{
closed = 1;
nodes = (
"742 538 OFFCURVE",
"719 361 OFFCURVE",
"708 174 CURVE SMOOTH",
"704 107 OFFCURVE",
"642 -21 OFFCURVE",
"601 -21 CURVE SMOOTH",
"570 -21 OFFCURVE",
"575 14 OFFCURVE",
"581 56 CURVE SMOOTH",
"595 162 OFFCURVE",
"629 541 OFFCURVE",
"629 541 CURVE",
"742 538 LINE"
);
},
{
closed = 1;
nodes = (
"848 606 OFFCURVE",
"855 599 OFFCURVE",
"850 584 CURVE SMOOTH",
"833 531 LINE SMOOTH",
"826 509 OFFCURVE",
"813 512 OFFCURVE",
"784 512 CURVE",
"576 512 LINE SMOOTH",
"557 512 OFFCURVE",
"550 519 OFFCURVE",
"555 534 CURVE SMOOTH",
"571 587 LINE SMOOTH",
"578 609 OFFCURVE",
"591 606 OFFCURVE",
"620 606 CURVE",
"829 606 LINE SMOOTH"
);
},
{
closed = 1;
nodes = (
"289 512 OFFCURVE",
"284 514 OFFCURVE",
"284 521 CURVE SMOOTH",
"284 546 OFFCURVE",
"370 608 OFFCURVE",
"407 608 CURVE SMOOTH",
"449 608 OFFCURVE",
"508 547 OFFCURVE",
"508 487 CURVE SMOOTH",
"508 419 OFFCURVE",
"432 366 OFFCURVE",
"400 351 CURVE",
"450 331 OFFCURVE",
"492 277 OFFCURVE",
"492 211 CURVE SMOOTH",
"492 121 OFFCURVE",
"405 27 OFFCURVE",
"242 27 CURVE SMOOTH",
"121 27 OFFCURVE",
"34 97 OFFCURVE",
"34 183 CURVE SMOOTH",
"34 267 OFFCURVE",
"135 337 OFFCURVE",
"162 337 CURVE SMOOTH",
"191 337 OFFCURVE",
"141 278 OFFCURVE",
"141 199 CURVE SMOOTH",
"141 149 OFFCURVE",
"160 110 OFFCURVE",
"233 110 CURVE SMOOTH",
"313 110 OFFCURVE",
"372 146 OFFCURVE",
"372 226 CURVE SMOOTH",
"372 248 OFFCURVE",
"369 299 OFFCURVE",
"322 299 CURVE SMOOTH",
"300 299 OFFCURVE",
"286 295 OFFCURVE",
"269 295 CURVE SMOOTH",
"257 295 OFFCURVE",
"254 303 OFFCURVE",
"254 320 CURVE SMOOTH",
"254 373 OFFCURVE",
"263 379 OFFCURVE",
"285 379 CURVE SMOOTH",
"347 379 OFFCURVE",
"395 384 OFFCURVE",
"395 440 CURVE SMOOTH",
"395 477 OFFCURVE",
"387 525 OFFCURVE",
"361 525 CURVE SMOOTH",
"347 525 OFFCURVE",
"310 512 OFFCURVE",
"296 512 CURVE SMOOTH"
);
},
{
closed = 1;
nodes = (
"439 393 LINE",
"480 367 OFFCURVE",
"553 345 OFFCURVE",
"619 375 CURVE",
"609 267 LINE",
"510 270 OFFCURVE",
"447 313 OFFCURVE",
"400 351 CURVE"
);
}
);
};
layerId = "B0B60A8F-2DEB-4A58-A43B-60A0DADABD8F";
paths = (
{
closed = 1;
nodes = (
"34 267 OFFCURVE",
"135 337 OFFCURVE",
"162 337 CURVE SMOOTH",
"191 337 OFFCURVE",
"141 278 OFFCURVE",
"141 199 CURVE SMOOTH",
"141 149 OFFCURVE",
"160 110 OFFCURVE",
"233 110 CURVE SMOOTH",
"313 110 OFFCURVE",
"372 146 OFFCURVE",
"372 226 CURVE SMOOTH",
"372 248 OFFCURVE",
"369 299 OFFCURVE",
"322 299 CURVE SMOOTH",
"300 299 OFFCURVE",
"286 295 OFFCURVE",
"269 295 CURVE SMOOTH",
"257 295 OFFCURVE",
"254 303 OFFCURVE",
"254 320 CURVE SMOOTH",
"254 373 OFFCURVE",
"263 379 OFFCURVE",
"285 379 CURVE SMOOTH",
"347 379 OFFCURVE",
"395 384 OFFCURVE",
"395 440 CURVE SMOOTH",
"395 477 OFFCURVE",
"387 525 OFFCURVE",
"361 525 CURVE SMOOTH",
"347 525 OFFCURVE",
"310 512 OFFCURVE",
"296 512 CURVE SMOOTH",
"289 512 OFFCURVE",
"284 514 OFFCURVE",
"284 521 CURVE SMOOTH",
"284 546 OFFCURVE",
"370 608 OFFCURVE",
"407 608 CURVE SMOOTH",
"449 608 OFFCURVE",
"508 547 OFFCURVE",
"508 487 CURVE SMOOTH",
"508 446 OFFCURVE",
"481 411 OFFCURVE",
"452 386 CURVE",
"493 364 OFFCURVE",
"555 349 OFFCURVE",
"613 373 CURVE",
"626 512 LINE",
"576 512 LINE SMOOTH",
"557 512 OFFCURVE",
"550 519 OFFCURVE",
"555 534 CURVE SMOOTH",
"571 587 LINE SMOOTH",
"578 609 OFFCURVE",
"591 606 OFFCURVE",
"620 606 CURVE SMOOTH",
"829 606 LINE SMOOTH",
"848 606 OFFCURVE",
"855 599 OFFCURVE",
"850 584 CURVE SMOOTH",
"833 531 LINE SMOOTH",
"826 509 OFFCURVE",
"813 512 OFFCURVE",
"784 512 CURVE",
"739 512 LINE",
"732 456 OFFCURVE",
"716 318 OFFCURVE",
"708 174 CURVE SMOOTH",
"704 107 OFFCURVE",
"642 -21 OFFCURVE",
"601 -21 CURVE SMOOTH",
"570 -21 OFFCURVE",
"575 14 OFFCURVE",
"581 56 CURVE SMOOTH",
"586 98 OFFCURVE",
"595 181 OFFCURVE",
"603 267 CURVE",
"540 270 OFFCURVE",
"492 289 OFFCURVE",
"453 313 CURVE",
"477 287 OFFCURVE",
"492 251 OFFCURVE",
"492 211 CURVE SMOOTH",
"492 121 OFFCURVE",
"405 27 OFFCURVE",
"242 27 CURVE SMOOTH",
"121 27 OFFCURVE",
"34 97 OFFCURVE",
"34 183 CURVE SMOOTH"
);
}
);
width = 784;
},
{
layerId = "C23C635F-568C-40B7-8839-28DDBF9C11D0";
paths = (
{
closed = 1;
nodes = (
"43 276 OFFCURVE",
"147 337 OFFCURVE",
"179 337 CURVE SMOOTH",
"208 337 OFFCURVE",
"164 279 OFFCURVE",
"164 208 CURVE SMOOTH",
"164 165 OFFCURVE",
"173 118 OFFCURVE",
"250 118 CURVE SMOOTH",
"322 118 OFFCURVE",
"379 154 OFFCURVE",
"379 226 CURVE SMOOTH",
"379 266 OFFCURVE",
"366 292 OFFCURVE",
"339 292 CURVE SMOOTH",
"317 292 OFFCURVE",
"302 288 OFFCURVE",
"285 288 CURVE SMOOTH",
"267 288 OFFCURVE",
"262 299 OFFCURVE",
"262 320 CURVE SMOOTH",
"262 373 OFFCURVE",
"267 386 OFFCURVE",
"297 386 CURVE SMOOTH",
"346 386 OFFCURVE",
"402 384 OFFCURVE",
"402 440 CURVE SMOOTH",
"402 477 OFFCURVE",
"398 517 OFFCURVE",
"371 517 CURVE SMOOTH",
"357 517 OFFCURVE",
"318 504 OFFCURVE",
"305 504 CURVE SMOOTH",
"295 504 OFFCURVE",
"290 508 OFFCURVE",
"290 517 CURVE SMOOTH",
"290 542 OFFCURVE",
"370 608 OFFCURVE",
"423 608 CURVE SMOOTH",
"475 608 OFFCURVE",
"533 553 OFFCURVE",
"533 491 CURVE SMOOTH",
"533 450 OFFCURVE",
"508 414 OFFCURVE",
"480 388 CURVE",
"518 368 OFFCURVE",
"577 353 OFFCURVE",
"631 380 CURVE",
"643 510 LINE",
"592 510 LINE SMOOTH",
"573 510 OFFCURVE",
"566 517 OFFCURVE",
"571 532 CURVE SMOOTH",
"594 606 LINE SMOOTH",
"601 627 OFFCURVE",
"612 625 OFFCURVE",
"643 625 CURVE SMOOTH",
"848 625 LINE SMOOTH",
"867 625 OFFCURVE",
"876 618 OFFCURVE",
"871 603 CURVE SMOOTH",
"847 529 LINE SMOOTH",
"840 508 OFFCURVE",
"830 510 OFFCURVE",
"811 510 CURVE",
"776 510 LINE",
"769 454 OFFCURVE",
"754 316 OFFCURVE",
"746 174 CURVE SMOOTH",
"741 96 OFFCURVE",
"677 -21 OFFCURVE",
"618 -21 CURVE SMOOTH",
"583 -21 OFFCURVE",
"593 25 OFFCURVE",
"599 62 CURVE SMOOTH",
"603 94 OFFCURVE",
"610 165 OFFCURVE",
"619 260 CURVE",
"563 263 OFFCURVE",
"522 278 OFFCURVE",
"489 297 CURVE",
"506 274 OFFCURVE",
"517 244 OFFCURVE",
"517 207 CURVE SMOOTH",
"517 121 OFFCURVE",
"435 19 OFFCURVE",
"259 19 CURVE SMOOTH",
"138 19 OFFCURVE",
"43 85 OFFCURVE",
"43 181 CURVE SMOOTH"
);
}
);
width = 810.66667;
}
);
unicode = 0905;
},
{
glyphname = "aa-deva";
lastChange = "2022-01-18 13:57:14 +0000";
layers = (
{
background = {
paths = (
{
closed = 1;
nodes = (
"1002 538 OFFCURVE",
"981 361 OFFCURVE",
"969 174 CURVE SMOOTH",
"964 94 OFFCURVE",
"900 -21 OFFCURVE",
"837 -21 CURVE SMOOTH",
"801 -21 OFFCURVE",
"813 27 OFFCURVE",
"818 63 CURVE SMOOTH",
"825 117 OFFCURVE",
"842 295 OFFCURVE",
"865 541 CURVE",
"1002 538 LINE"
);
},
{
closed = 1;
nodes = (
"766 538 OFFCURVE",
"745 361 OFFCURVE",
"733 174 CURVE SMOOTH",
"728 94 OFFCURVE",
"664 -21 OFFCURVE",
"601 -21 CURVE SMOOTH",
"565 -21 OFFCURVE",
"577 27 OFFCURVE",
"582 63 CURVE SMOOTH",
"589 117 OFFCURVE",
"606 295 OFFCURVE",
"629 541 CURVE",
"766 538 LINE"
);
},
{
closed = 1;
nodes = (
"1117 629 OFFCURVE",
"1126 622 OFFCURVE",
"1121 607 CURVE SMOOTH",
"1096 529 LINE SMOOTH",
"1089 508 OFFCURVE",
"1079 510 OFFCURVE",
"1062 510 CURVE",
"575 510 LINE SMOOTH",
"556 510 OFFCURVE",
"549 517 OFFCURVE",
"554 532 CURVE SMOOTH",
"579 610 LINE SMOOTH",
"586 631 OFFCURVE",
"596 629 OFFCURVE",
"628 629 CURVE",
"1098 629 LINE SMOOTH"
);
},
{
closed = 1;
nodes = (
"452 395 LINE",
"490 373 OFFCURVE",
"558 350 OFFCURVE",
"619 384 CURVE",
"608 259 LINE",
"500 262 OFFCURVE",
"454 308 OFFCURVE",
"405 346 CURVE"
);
},
{
closed = 1;
nodes = (
"276 502 OFFCURVE",
"271 507 OFFCURVE",
"271 516 CURVE SMOOTH",
"271 541 OFFCURVE",
"350 608 OFFCURVE",
"406 608 CURVE SMOOTH",
"460 608 OFFCURVE",
"518 554 OFFCURVE",
"518 492 CURVE SMOOTH",
"518 419 OFFCURVE",
"437 361 OFFCURVE",
"405 346 CURVE",
"457 328 OFFCURVE",
"502 284 OFFCURVE",
"502 206 CURVE SMOOTH",
"502 121 OFFCURVE",
"421 17 OFFCURVE",
"242 17 CURVE SMOOTH",
"121 17 OFFCURVE",
"25 83 OFFCURVE",
"25 180 CURVE SMOOTH",
"25 278 OFFCURVE",
"129 337 OFFCURVE",
"162 337 CURVE SMOOTH",
"191 337 OFFCURVE",
"149 279 OFFCURVE",
"149 210 CURVE SMOOTH",
"149 168 OFFCURVE",
"155 119 OFFCURVE",
"233 119 CURVE SMOOTH",
"304 119 OFFCURVE",
"360 155 OFFCURVE",
"360 226 CURVE SMOOTH",
"360 269 OFFCURVE",
"345 290 OFFCURVE",
"322 290 CURVE SMOOTH",
"300 290 OFFCURVE",
"285 286 OFFCURVE",
"268 286 CURVE SMOOTH",
"249 286 OFFCURVE",
"244 298 OFFCURVE",
"244 320 CURVE SMOOTH",
"244 373 OFFCURVE",
"248 387 OFFCURVE",
"279 387 CURVE SMOOTH",
"326 387 OFFCURVE",
"383 384 OFFCURVE",
"383 440 CURVE SMOOTH",
"383 477 OFFCURVE",
"380 515 OFFCURVE",
"353 515 CURVE SMOOTH",
"339 515 OFFCURVE",
"300 502 OFFCURVE",
"287 502 CURVE SMOOTH"
);
},
{
closed = 1;
nodes = (
"742 538 OFFCURVE",
"719 361 OFFCURVE",
"708 174 CURVE SMOOTH",
"704 107 OFFCURVE",
"642 -21 OFFCURVE",
"601 -21 CURVE SMOOTH",
"570 -21 OFFCURVE",
"575 14 OFFCURVE",
"581 56 CURVE SMOOTH",
"595 162 OFFCURVE",
"629 541 OFFCURVE",
"629 541 CURVE",
"742 538 LINE"
);
},
{
closed = 1;
nodes = (
"1074 606 OFFCURVE",
"1081 599 OFFCURVE",
"1076 584 CURVE SMOOTH",
"1059 531 LINE SMOOTH",
"1052 509 OFFCURVE",
"1039 512 OFFCURVE",
"1010 512 CURVE",
"576 512 LINE SMOOTH",
"557 512 OFFCURVE",
"550 519 OFFCURVE",
"555 534 CURVE SMOOTH",
"571 587 LINE SMOOTH",
"578 609 OFFCURVE",
"591 606 OFFCURVE",
"620 606 CURVE",
"1055 606 LINE SMOOTH"
);
},
{
closed = 1;
nodes = (
"289 512 OFFCURVE",
"284 514 OFFCURVE",
"284 521 CURVE SMOOTH",
"284 546 OFFCURVE",
"370 608 OFFCURVE",
"407 608 CURVE SMOOTH",
"449 608 OFFCURVE",
"508 547 OFFCURVE",
"508 487 CURVE SMOOTH",
"508 419 OFFCURVE",
"432 366 OFFCURVE",
"400 351 CURVE",
"450 331 OFFCURVE",
"492 277 OFFCURVE",
"492 211 CURVE SMOOTH",
"492 121 OFFCURVE",
"405 27 OFFCURVE",
"242 27 CURVE SMOOTH",
"121 27 OFFCURVE",
"34 97 OFFCURVE",
"34 183 CURVE SMOOTH",
"34 267 OFFCURVE",
"135 337 OFFCURVE",
"162 337 CURVE SMOOTH",
"191 337 OFFCURVE",
"141 278 OFFCURVE",
"141 199 CURVE SMOOTH",
"141 149 OFFCURVE",
"160 110 OFFCURVE",
"233 110 CURVE SMOOTH",
"313 110 OFFCURVE",
"372 146 OFFCURVE",
"372 226 CURVE SMOOTH",
"372 248 OFFCURVE",
"369 299 OFFCURVE",
"322 299 CURVE SMOOTH",
"300 299 OFFCURVE",
"286 295 OFFCURVE",
"269 295 CURVE SMOOTH",
"257 295 OFFCURVE",
"254 303 OFFCURVE",
"254 320 CURVE SMOOTH",
"254 373 OFFCURVE",
"263 379 OFFCURVE",
"285 379 CURVE SMOOTH",
"347 379 OFFCURVE",
"395 384 OFFCURVE",
"395 440 CURVE SMOOTH",
"395 477 OFFCURVE",
"387 525 OFFCURVE",
"361 525 CURVE SMOOTH",
"347 525 OFFCURVE",
"310 512 OFFCURVE",
"296 512 CURVE SMOOTH"
);
},
{
closed = 1;
nodes = (
"977 538 OFFCURVE",
"954 361 OFFCURVE",
"943 174 CURVE SMOOTH",
"939 107 OFFCURVE",
"877 -21 OFFCURVE",
"836 -21 CURVE SMOOTH",
"805 -21 OFFCURVE",
"810 14 OFFCURVE",
"816 56 CURVE SMOOTH",
"830 162 OFFCURVE",
"864 541 OFFCURVE",
"864 541 CURVE",
"977 538 LINE"
);
},
{
closed = 1;
nodes = (
"439 393 LINE",
"480 367 OFFCURVE",
"553 345 OFFCURVE",
"619 375 CURVE",
"609 267 LINE",
"510 270 OFFCURVE",
"447 313 OFFCURVE",
"400 351 CURVE"
);
}
);
};
layerId = "B0B60A8F-2DEB-4A58-A43B-60A0DADABD8F";
paths = (
{
closed = 1;
nodes = (
"34 267 OFFCURVE",
"135 337 OFFCURVE",
"162 337 CURVE SMOOTH",
"191 337 OFFCURVE",
"141 278 OFFCURVE",
"141 199 CURVE SMOOTH",
"141 149 OFFCURVE",
"160 110 OFFCURVE",
"233 110 CURVE SMOOTH",
"313 110 OFFCURVE",
"372 146 OFFCURVE",
"372 226 CURVE SMOOTH",
"372 248 OFFCURVE",
"369 299 OFFCURVE",
"322 299 CURVE SMOOTH",
"300 299 OFFCURVE",
"286 295 OFFCURVE",
"269 295 CURVE SMOOTH",
"257 295 OFFCURVE",
"254 303 OFFCURVE",
"254 320 CURVE SMOOTH",
"254 373 OFFCURVE",
"263 379 OFFCURVE",
"285 379 CURVE SMOOTH",
"347 379 OFFCURVE",
"395 384 OFFCURVE",
"395 440 CURVE SMOOTH",
"395 477 OFFCURVE",
"387 525 OFFCURVE",
"361 525 CURVE SMOOTH",
"347 525 OFFCURVE",
"310 512 OFFCURVE",
"296 512 CURVE SMOOTH",
"289 512 OFFCURVE",
"284 514 OFFCURVE",
"284 521 CURVE SMOOTH",
"284 546 OFFCURVE",
"370 608 OFFCURVE",
"407 608 CURVE SMOOTH",
"449 608 OFFCURVE",
"508 547 OFFCURVE",
"508 487 CURVE SMOOTH",
"508 446 OFFCURVE",
"481 411 OFFCURVE",
"452 386 CURVE",
"493 364 OFFCURVE",
"555 349 OFFCURVE",
"613 373 CURVE",
"626 512 LINE",
"576 512 LINE SMOOTH",
"557 512 OFFCURVE",
"550 519 OFFCURVE",
"555 534 CURVE SMOOTH",
"571 587 LINE SMOOTH",
"578 609 OFFCURVE",
"591 606 OFFCURVE",
"620 606 CURVE SMOOTH",
"1055 606 LINE SMOOTH",
"1074 606 OFFCURVE",
"1081 599 OFFCURVE",
"1076 584 CURVE SMOOTH",
"1059 531 LINE SMOOTH",
"1052 509 OFFCURVE",
"1039 512 OFFCURVE",
"1010 512 CURVE",
"974 512 LINE",
"967 456 OFFCURVE",
"951 318 OFFCURVE",
"943 174 CURVE SMOOTH",
"939 107 OFFCURVE",
"877 -21 OFFCURVE",
"836 -21 CURVE SMOOTH",
"805 -21 OFFCURVE",
"810 14 OFFCURVE",
"816 56 CURVE SMOOTH",
"828 144 OFFCURVE",
"853 421 OFFCURVE",
"861 512 CURVE",
"739 512 LINE",
"732 456 OFFCURVE",
"716 318 OFFCURVE",
"708 174 CURVE SMOOTH",
"704 107 OFFCURVE",
"642 -21 OFFCURVE",
"601 -21 CURVE SMOOTH",
"570 -21 OFFCURVE",
"575 14 OFFCURVE",
"581 56 CURVE SMOOTH",
"586 98 OFFCURVE",
"595 181 OFFCURVE",
"603 267 CURVE",
"540 270 OFFCURVE",
"492 289 OFFCURVE",
"453 313 CURVE",
"477 287 OFFCURVE",
"492 251 OFFCURVE",
"492 211 CURVE SMOOTH",
"492 121 OFFCURVE",
"405 27 OFFCURVE",
"242 27 CURVE SMOOTH",
"121 27 OFFCURVE",
"34 97 OFFCURVE",
"34 183 CURVE SMOOTH"
);
}
);
width = 1010;
},
{
layerId = "C23C635F-568C-40B7-8839-28DDBF9C11D0";
paths = (
{
closed = 1;
nodes = (
"43 276 OFFCURVE",
"147 337 OFFCURVE",
"179 337 CURVE SMOOTH",
"208 337 OFFCURVE",
"164 279 OFFCURVE",
"164 208 CURVE SMOOTH",
"164 165 OFFCURVE",
"173 118 OFFCURVE",
"250 118 CURVE SMOOTH",
"322 118 OFFCURVE",
"379 154 OFFCURVE",
"379 226 CURVE SMOOTH",
"379 266 OFFCURVE",
"366 292 OFFCURVE",
"339 292 CURVE SMOOTH",
"317 292 OFFCURVE",
"302 288 OFFCURVE",
"285 288 CURVE SMOOTH",
"267 288 OFFCURVE",
"262 299 OFFCURVE",
"262 320 CURVE SMOOTH",
"262 373 OFFCURVE",
"267 386 OFFCURVE",
"297 386 CURVE SMOOTH",
"346 386 OFFCURVE",
"402 384 OFFCURVE",
"402 440 CURVE SMOOTH",
"402 477 OFFCURVE",
"398 517 OFFCURVE",
"371 517 CURVE SMOOTH",
"357 517 OFFCURVE",
"318 504 OFFCURVE",
"305 504 CURVE SMOOTH",
"295 504 OFFCURVE",
"290 508 OFFCURVE",
"290 517 CURVE SMOOTH",
"290 542 OFFCURVE",
"370 608 OFFCURVE",
"423 608 CURVE SMOOTH",
"475 608 OFFCURVE",
"533 553 OFFCURVE",
"533 491 CURVE SMOOTH",
"533 450 OFFCURVE",
"508 414 OFFCURVE",
"480 388 CURVE",
"518 368 OFFCURVE",
"577 353 OFFCURVE",
"631 380 CURVE",
"643 510 LINE",
"592 510 LINE SMOOTH",
"573 510 OFFCURVE",
"566 517 OFFCURVE",
"571 532 CURVE SMOOTH",
"594 606 LINE SMOOTH",
"601 627 OFFCURVE",
"612 625 OFFCURVE",
"643 625 CURVE SMOOTH",
"1108 625 LINE SMOOTH",
"1127 625 OFFCURVE",
"1135 618 OFFCURVE",
"1130 603 CURVE SMOOTH",
"1107 529 LINE SMOOTH",
"1100 508 OFFCURVE",
"1089 510 OFFCURVE",
"1070 510 CURVE",
"1012 510 LINE",
"1005 454 OFFCURVE",
"990 316 OFFCURVE",
"981 174 CURVE SMOOTH",
"977 96 OFFCURVE",
"913 -21 OFFCURVE",
"854 -21 CURVE SMOOTH",
"818 -21 OFFCURVE",
"829 25 OFFCURVE",
"834 62 CURVE SMOOTH",
"842 120 OFFCURVE",
"860 304 OFFCURVE",
"879 510 CURVE",
"776 510 LINE",
"769 454 OFFCURVE",
"754 316 OFFCURVE",
"746 174 CURVE SMOOTH",
"741 96 OFFCURVE",
"677 -21 OFFCURVE",
"618 -21 CURVE SMOOTH",
"583 -21 OFFCURVE",
"593 25 OFFCURVE",
"599 62 CURVE SMOOTH",
"603 94 OFFCURVE",
"610 165 OFFCURVE",
"619 260 CURVE",
"563 263 OFFCURVE",
"522 278 OFFCURVE",
"489 297 CURVE",
"506 274 OFFCURVE",
"517 244 OFFCURVE",
"517 207 CURVE SMOOTH",
"517 121 OFFCURVE",
"435 19 OFFCURVE",
"259 19 CURVE SMOOTH",
"138 19 OFFCURVE",
"43 85 OFFCURVE",
"43 181 CURVE SMOOTH"
);
}
);
width = 1070;
}
);
unicode = 0906;
},
{
glyphname = "i-deva";
lastChange = "2022-01-18 13:57:14 +0000";
layers = (
{
background = {
paths = (
{
closed = 1;
nodes = (
"0 629 LINE",
"-32 629 OFFCURVE",
"-42 631 OFFCURVE",
"-49 610 CURVE SMOOTH",
"-74 532 LINE SMOOTH",
"-79 517 OFFCURVE",
"-72 510 OFFCURVE",
"-53 510 CURVE SMOOTH",
"543 510 LINE",
"575 510 OFFCURVE",
"585 508 OFFCURVE",
"592 529 CURVE SMOOTH",
"617 607 LINE SMOOTH",
"622 622 OFFCURVE",
"615 629 OFFCURVE",
"596 629 CURVE SMOOTH"
);
},
{
closed = 1;
nodes = (
"345 541 LINE",
"343 520 OFFCURVE",
"336 446 OFFCURVE",
"332 400 CURVE SMOOTH",
"329 369 OFFCURVE",
"327 363 OFFCURVE",
"348 363 CURVE SMOOTH",
"375 363 OFFCURVE",
"328 363 OFFCURVE",
"373 363 CURVE SMOOTH",
"419 363 OFFCURVE",
"468 416 OFFCURVE",
"472 451 CURVE SMOOTH",
"476 483 OFFCURVE",
"479 514 OFFCURVE",
"482 538 CURVE"
);
},
{
closed = 1;
nodes = (
"401 479 LINE",
"310 471 OFFCURVE",
"240 473 OFFCURVE",
"198 473 CURVE SMOOTH",
"121 473 OFFCURVE",
"63 378 OFFCURVE",
"64 319 CURVE SMOOTH",
"65 224 OFFCURVE",
"165 182 OFFCURVE",
"220 182 CURVE SMOOTH",
"257 182 OFFCURVE",
"306 211 OFFCURVE",
"320 211 CURVE SMOOTH",
"334 211 OFFCURVE",
"353 183 OFFCURVE",
"353 167 CURVE SMOOTH",
"353 138 OFFCURVE",
"202 113 OFFCURVE",
"157 113 CURVE SMOOTH",
"128 113 OFFCURVE",
"120 139 OFFCURVE",
"102 139 CURVE SMOOTH",
"81 139 OFFCURVE",
"49 59 OFFCURVE",
"49 34 CURVE SMOOTH",
"49 12 OFFCURVE",
"73 22 OFFCURVE",
"95 -6 CURVE SMOOTH",
"173 -106 OFFCURVE",
"271 -177 OFFCURVE",
"309 -177 CURVE SMOOTH",
"341 -177 OFFCURVE",
"396 -105 OFFCURVE",
"396 -63 CURVE SMOOTH",
"396 -48 OFFCURVE",
"392 -15 OFFCURVE",
"382 -15 CURVE SMOOTH",
"373 -15 OFFCURVE",
"362 -47 OFFCURVE",
"353 -47 CURVE SMOOTH",
"333 -47 OFFCURVE",
"252 -5 OFFCURVE",
"232 13 CURVE",
"324 13 OFFCURVE",
"492 70 OFFCURVE",
"492 163 CURVE SMOOTH",
"492 227 OFFCURVE",
"440 316 OFFCURVE",
"358 316 CURVE SMOOTH",
"303 316 OFFCURVE",
"262 291 OFFCURVE",
"239 291 CURVE SMOOTH",
"224 291 OFFCURVE",
"204 309 OFFCURVE",
"204 322 CURVE SMOOTH",
"204 336 OFFCURVE",
"224 363 OFFCURVE",
"243 363 CURVE SMOOTH",
"271 363 OFFCURVE",
"331 363 OFFCURVE",
"362 363 CURVE SMOOTH",
"379 363 OFFCURVE",
"389 374 OFFCURVE",
"392 400 CURVE SMOOTH"
);
},
{
closed = 1;
nodes = (
"0 606 LINE",
"-29 606 OFFCURVE",
"-42 609 OFFCURVE",
"-49 587 CURVE SMOOTH",
"-65 534 LINE SMOOTH",
"-70 519 OFFCURVE",
"-63 512 OFFCURVE",
"-44 512 CURVE SMOOTH",
"535 512 LINE",
"564 512 OFFCURVE",
"577 509 OFFCURVE",
"584 531 CURVE SMOOTH",
"601 584 LINE SMOOTH",
"606 599 OFFCURVE",
"599 606 OFFCURVE",
"580 606 CURVE SMOOTH"
);
},
{
closed = 1;
nodes = (
"355 541 LINE",
"353 520 OFFCURVE",
"346 456 OFFCURVE",
"342 410 CURVE SMOOTH",
"339 379 OFFCURVE",
"337 373 OFFCURVE",
"358 373 CURVE SMOOTH",
"369 373 OFFCURVE",
"318 373 OFFCURVE",
"363 373 CURVE SMOOTH",
"409 373 OFFCURVE",
"452 416 OFFCURVE",
"456 451 CURVE SMOOTH",
"460 483 OFFCURVE",
"463 514 OFFCURVE",
"466 538 CURVE"
);
},
{
closed = 1;
nodes = (
"401 469 LINE",
"310 461 OFFCURVE",
"240 463 OFFCURVE",
"204 463 CURVE SMOOTH",
"138 463 OFFCURVE",
"75 378 OFFCURVE",
"76 319 CURVE SMOOTH",
"77 242 OFFCURVE",
"164 194 OFFCURVE",
"219 194 CURVE SMOOTH",
"256 194 OFFCURVE",
"306 223 OFFCURVE",
"320 223 CURVE SMOOTH",
"345 223 OFFCURVE",
"365 183 OFFCURVE",
"365 163 CURVE SMOOTH",
"365 125 OFFCURVE",
"202 101 OFFCURVE",
"158 101 CURVE SMOOTH",
"129 101 OFFCURVE",
"118 125 OFFCURVE",
"104 125 CURVE SMOOTH",
"88 125 OFFCURVE",
"61 59 OFFCURVE",
"61 38 CURVE SMOOTH",
"61 19 OFFCURVE",
"76 32 OFFCURVE",
"98 4 CURVE SMOOTH",
"176 -96 OFFCURVE",
"277 -165 OFFCURVE",
"308 -165 CURVE SMOOTH",
"332 -165 OFFCURVE",
"386 -97 OFFCURVE",
"386 -63 CURVE SMOOTH",
"386 -48 OFFCURVE",
"385 -28 OFFCURVE",
"375 -28 CURVE SMOOTH",
"366 -28 OFFCURVE",
"356 -60 OFFCURVE",
"347 -60 CURVE SMOOTH",
"327 -60 OFFCURVE",
"242 -14 OFFCURVE",
"210 21 CURVE",
"302 21 OFFCURVE",
"482 82 OFFCURVE",
"482 163 CURVE SMOOTH",
"482 226 OFFCURVE",
"421 306 OFFCURVE",
"358 306 CURVE SMOOTH",
"308 306 OFFCURVE",
"262 279 OFFCURVE",
"239 279 CURVE SMOOTH",
"224 279 OFFCURVE",
"192 299 OFFCURVE",
"192 322 CURVE SMOOTH",
"192 349 OFFCURVE",
"218 373 OFFCURVE",
"238 373 CURVE SMOOTH",
"271 373 OFFCURVE",
"331 373 OFFCURVE",
"362 373 CURVE SMOOTH",
"379 373 OFFCURVE",
"388 384 OFFCURVE",
"392 410 CURVE SMOOTH"
);
}
);
};
layerId = "B0B60A8F-2DEB-4A58-A43B-60A0DADABD8F";
paths = (
{
closed = 1;
nodes = (
"-70 519 OFFCURVE",
"-63 512 OFFCURVE",
"-44 512 CURVE SMOOTH",
"352 512 LINE",
"347 465 LINE",
"282 462 OFFCURVE",
"233 463 OFFCURVE",
"204 463 CURVE SMOOTH",
"138 463 OFFCURVE",
"75 378 OFFCURVE",
"76 319 CURVE SMOOTH",
"77 242 OFFCURVE",
"164 194 OFFCURVE",
"219 194 CURVE SMOOTH",
"256 194 OFFCURVE",
"306 223 OFFCURVE",
"320 223 CURVE SMOOTH",
"345 223 OFFCURVE",
"365 183 OFFCURVE",
"365 163 CURVE SMOOTH",
"365 125 OFFCURVE",
"202 101 OFFCURVE",
"158 101 CURVE SMOOTH",
"129 101 OFFCURVE",
"118 125 OFFCURVE",
"104 125 CURVE SMOOTH",
"88 125 OFFCURVE",
"61 59 OFFCURVE",
"61 38 CURVE SMOOTH",
"61 19 OFFCURVE",
"76 32 OFFCURVE",
"98 4 CURVE SMOOTH",
"176 -96 OFFCURVE",
"277 -165 OFFCURVE",
"308 -165 CURVE SMOOTH",
"332 -165 OFFCURVE",
"386 -97 OFFCURVE",
"386 -63 CURVE SMOOTH",
"386 -48 OFFCURVE",
"385 -28 OFFCURVE",
"375 -28 CURVE SMOOTH",
"366 -28 OFFCURVE",
"356 -60 OFFCURVE",
"347 -60 CURVE SMOOTH",
"327 -60 OFFCURVE",
"242 -14 OFFCURVE",
"210 21 CURVE",
"302 21 OFFCURVE",
"482 82 OFFCURVE",
"482 163 CURVE SMOOTH",
"482 226 OFFCURVE",
"421 306 OFFCURVE",
"358 306 CURVE SMOOTH",
"308 306 OFFCURVE",
"262 279 OFFCURVE",
"239 279 CURVE SMOOTH",
"224 279 OFFCURVE",
"192 299 OFFCURVE",
"192 322 CURVE SMOOTH",
"192 349 OFFCURVE",
"218 373 OFFCURVE",
"238 373 CURVE SMOOTH",
"280 373 OFFCURVE",
"321 373 OFFCURVE",
"363 373 CURVE SMOOTH",
"403 373 OFFCURVE",
"451 410 OFFCURVE",
"456 451 CURVE SMOOTH",
"463 512 LINE",
"535 512 LINE",
"564 512 OFFCURVE",
"577 509 OFFCURVE",
"584 531 CURVE SMOOTH",
"601 584 LINE SMOOTH",
"606 599 OFFCURVE",
"599 606 OFFCURVE",
"580 606 CURVE SMOOTH",
"0 606 LINE SMOOTH",
"-29 606 OFFCURVE",
"-42 609 OFFCURVE",
"-49 587 CURVE SMOOTH",
"-65 534 LINE SMOOTH"
);
}
);
width = 535;
},
{
layerId = "C23C635F-568C-40B7-8839-28DDBF9C11D0";
paths = (
{
closed = 1;
nodes = (
"-78 517 OFFCURVE",
"-71 510 OFFCURVE",
"-52 510 CURVE SMOOTH",
"344 510 LINE",
"340 473 LINE",
"279 470 OFFCURVE",
"231 471 OFFCURVE",
"199 471 CURVE SMOOTH",
"124 471 OFFCURVE",
"65 378 OFFCURVE",
"66 319 CURVE SMOOTH",
"67 227 OFFCURVE",
"165 184 OFFCURVE",
"220 184 CURVE SMOOTH",
"257 184 OFFCURVE",
"306 213 OFFCURVE",
"320 213 CURVE SMOOTH",
"336 213 OFFCURVE",
"355 183 OFFCURVE",
"355 166 CURVE SMOOTH",
"355 136 OFFCURVE",
"202 111 OFFCURVE",
"157 111 CURVE SMOOTH",
"128 111 OFFCURVE",
"120 137 OFFCURVE",
"102 137 CURVE SMOOTH",
"82 137 OFFCURVE",
"51 59 OFFCURVE",
"51 35 CURVE SMOOTH",
"51 13 OFFCURVE",
"74 24 OFFCURVE",
"96 -4 CURVE SMOOTH",
"174 -104 OFFCURVE",
"272 -175 OFFCURVE",
"309 -175 CURVE SMOOTH",
"340 -175 OFFCURVE",
"394 -104 OFFCURVE",
"394 -63 CURVE SMOOTH",
"394 -48 OFFCURVE",
"391 -17 OFFCURVE",
"381 -17 CURVE SMOOTH",
"372 -17 OFFCURVE",
"361 -49 OFFCURVE",
"352 -49 CURVE SMOOTH",
"332 -49 OFFCURVE",
"250 -7 OFFCURVE",
"228 14 CURVE",
"320 14 OFFCURVE",
"490 72 OFFCURVE",
"490 163 CURVE SMOOTH",
"490 227 OFFCURVE",
"437 314 OFFCURVE",
"358 314 CURVE SMOOTH",
"304 314 OFFCURVE",
"262 289 OFFCURVE",
"239 289 CURVE SMOOTH",
"224 289 OFFCURVE",
"202 307 OFFCURVE",
"202 322 CURVE SMOOTH",
"202 338 OFFCURVE",
"223 365 OFFCURVE",
"242 365 CURVE SMOOTH",
"271 365 OFFCURVE",
"338 365 OFFCURVE",
"371 365 CURVE SMOOTH",
"412 365 OFFCURVE",
"464 408 OFFCURVE",
"469 451 CURVE SMOOTH",
"476 510 LINE",
"542 510 LINE",
"573 510 OFFCURVE",
"584 508 OFFCURVE",
"591 529 CURVE SMOOTH",
"614 603 LINE SMOOTH",
"619 618 OFFCURVE",
"612 625 OFFCURVE",
"593 625 CURVE SMOOTH",
"0 625 LINE SMOOTH",
"-32 625 OFFCURVE",
"-42 627 OFFCURVE",
"-49 606 CURVE SMOOTH",
"-73 532 LINE SMOOTH"
);
}
);
width = 541.66667;
}
);
unicode = 0907;
},
{
glyphname = "ii-deva";
lastChange = "2022-01-18 13:57:14 +0000";
layers = (
{
background = {
paths = (
{
closed = 1;
nodes = (
"543 687 OFFCURVE",
"635 737 OFFCURVE",
"634 771 CURVE SMOOTH",
"633 813 OFFCURVE",
"548 883 OFFCURVE",
"467 883 CURVE SMOOTH",
"341 883 OFFCURVE",
"265 760 OFFCURVE",
"265 607 CURVE",
"399 607 LINE",
"399 704 OFFCURVE",
"423 788 OFFCURVE",
"460 788 CURVE SMOOTH",
"479 788 OFFCURVE",
"507 754 OFFCURVE",
"507 735 CURVE SMOOTH",
"507 722 OFFCURVE",
"477 713 OFFCURVE",
"477 699 CURVE SMOOTH",
"477 691 OFFCURVE",
"495 687 OFFCURVE",
"509 687 CURVE SMOOTH"
);
},
{
closed = 1;
nodes = (
"0 629 LINE",
"-32 629 OFFCURVE",
"-42 631 OFFCURVE",
"-49 610 CURVE SMOOTH",
"-74 532 LINE SMOOTH",
"-79 517 OFFCURVE",
"-72 510 OFFCURVE",
"-53 510 CURVE SMOOTH",
"543 510 LINE",
"575 510 OFFCURVE",
"585 508 OFFCURVE",
"592 529 CURVE SMOOTH",
"617 607 LINE SMOOTH",
"622 622 OFFCURVE",
"615 629 OFFCURVE",
"596 629 CURVE SMOOTH"
);
},
{
closed = 1;
nodes = (
"345 541 LINE",
"343 520 OFFCURVE",
"336 446 OFFCURVE",
"332 400 CURVE SMOOTH",
"329 369 OFFCURVE",
"327 363 OFFCURVE",
"348 363 CURVE SMOOTH",
"375 363 OFFCURVE",
"328 363 OFFCURVE",
"373 363 CURVE SMOOTH",
"419 363 OFFCURVE",
"468 416 OFFCURVE",
"472 451 CURVE SMOOTH",
"476 483 OFFCURVE",
"479 514 OFFCURVE",
"482 538 CURVE"
);
},
{
closed = 1;
nodes = (
"401 479 LINE",
"310 471 OFFCURVE",
"240 473 OFFCURVE",
"198 473 CURVE SMOOTH",
"121 473 OFFCURVE",
"63 378 OFFCURVE",
"64 319 CURVE SMOOTH",
"65 224 OFFCURVE",
"165 182 OFFCURVE",
"220 182 CURVE SMOOTH",
"257 182 OFFCURVE",
"306 211 OFFCURVE",
"320 211 CURVE SMOOTH",
"334 211 OFFCURVE",
"353 183 OFFCURVE",
"353 167 CURVE SMOOTH",
"353 138 OFFCURVE",
"202 113 OFFCURVE",
"157 113 CURVE SMOOTH",
"128 113 OFFCURVE",
"120 139 OFFCURVE",
"102 139 CURVE SMOOTH",
"81 139 OFFCURVE",
"49 59 OFFCURVE",
"49 34 CURVE SMOOTH",
"49 12 OFFCURVE",
"73 22 OFFCURVE",
"95 -6 CURVE SMOOTH",
"173 -106 OFFCURVE",
"271 -177 OFFCURVE",
"309 -177 CURVE SMOOTH",
"341 -177 OFFCURVE",
"396 -105 OFFCURVE",
"396 -63 CURVE SMOOTH",
"396 -48 OFFCURVE",
"392 -15 OFFCURVE",
"382 -15 CURVE SMOOTH",
"373 -15 OFFCURVE",
"362 -47 OFFCURVE",
"353 -47 CURVE SMOOTH",
"333 -47 OFFCURVE",
"252 -5 OFFCURVE",
"232 13 CURVE",
"324 13 OFFCURVE",
"492 70 OFFCURVE",
"492 163 CURVE SMOOTH",
"492 227 OFFCURVE",
"440 316 OFFCURVE",
"358 316 CURVE SMOOTH",
"303 316 OFFCURVE",
"262 291 OFFCURVE",
"239 291 CURVE SMOOTH",
"224 291 OFFCURVE",
"204 309 OFFCURVE",
"204 322 CURVE SMOOTH",
"204 336 OFFCURVE",
"224 363 OFFCURVE",
"243 363 CURVE SMOOTH",
"271 363 OFFCURVE",
"331 363 OFFCURVE",
"362 363 CURVE SMOOTH",
"379 363 OFFCURVE",
"389 374 OFFCURVE",
"392 400 CURVE SMOOTH"
);
},
{
closed = 1;
nodes = (
"0 606 LINE",
"-29 606 OFFCURVE",
"-42 609 OFFCURVE",
"-49 587 CURVE SMOOTH",
"-65 534 LINE SMOOTH",
"-70 519 OFFCURVE",
"-63 512 OFFCURVE",
"-44 512 CURVE SMOOTH",
"543 512 LINE",
"572 512 OFFCURVE",
"585 509 OFFCURVE",
"592 531 CURVE SMOOTH",
"609 584 LINE SMOOTH",
"614 599 OFFCURVE",
"607 606 OFFCURVE",
"588 606 CURVE SMOOTH"
);
},
{
closed = 1;
nodes = (
"355 541 LINE",
"353 520 OFFCURVE",
"346 456 OFFCURVE",
"342 410 CURVE SMOOTH",
"339 379 OFFCURVE",
"337 373 OFFCURVE",
"358 373 CURVE SMOOTH",
"369 373 OFFCURVE",
"318 373 OFFCURVE",
"363 373 CURVE SMOOTH",
"409 373 OFFCURVE",
"452 416 OFFCURVE",
"456 451 CURVE SMOOTH",
"460 483 OFFCURVE",
"463 514 OFFCURVE",
"466 538 CURVE"
);
},
{
closed = 1;
nodes = (
"401 469 LINE",
"310 461 OFFCURVE",
"240 463 OFFCURVE",
"204 463 CURVE SMOOTH",
"138 463 OFFCURVE",
"75 378 OFFCURVE",
"76 319 CURVE SMOOTH",
"77 242 OFFCURVE",
"164 194 OFFCURVE",
"219 194 CURVE SMOOTH",
"256 194 OFFCURVE",
"306 223 OFFCURVE",
"320 223 CURVE SMOOTH",
"345 223 OFFCURVE",
"365 183 OFFCURVE",
"365 163 CURVE SMOOTH",
"365 125 OFFCURVE",
"202 101 OFFCURVE",
"158 101 CURVE SMOOTH",
"129 101 OFFCURVE",
"118 125 OFFCURVE",
"104 125 CURVE SMOOTH",
"88 125 OFFCURVE",
"61 59 OFFCURVE",
"61 38 CURVE SMOOTH",
"61 19 OFFCURVE",
"76 32 OFFCURVE",
"98 4 CURVE SMOOTH",
"176 -96 OFFCURVE",
"277 -165 OFFCURVE",
"308 -165 CURVE SMOOTH",
"332 -165 OFFCURVE",
"386 -97 OFFCURVE",
"386 -63 CURVE SMOOTH",
"386 -48 OFFCURVE",
"385 -28 OFFCURVE",
"375 -28 CURVE SMOOTH",
"366 -28 OFFCURVE",
"356 -60 OFFCURVE",
"347 -60 CURVE SMOOTH",
"327 -60 OFFCURVE",
"242 -14 OFFCURVE",
"210 21 CURVE",
"302 21 OFFCURVE",
"482 82 OFFCURVE",
"482 163 CURVE SMOOTH",
"482 226 OFFCURVE",
"421 306 OFFCURVE",
"358 306 CURVE SMOOTH",
"308 306 OFFCURVE",
"262 279 OFFCURVE",
"239 279 CURVE SMOOTH",
"224 279 OFFCURVE",
"192 299 OFFCURVE",
"192 322 CURVE SMOOTH",
"192 349 OFFCURVE",
"218 373 OFFCURVE",
"238 373 CURVE SMOOTH",
"271 373 OFFCURVE",
"331 373 OFFCURVE",
"362 373 CURVE SMOOTH",
"379 373 OFFCURVE",
"388 384 OFFCURVE",
"392 410 CURVE SMOOTH"
);
},
{
closed = 1;
nodes = (
"543 697 OFFCURVE",
"622 744 OFFCURVE",
"621 771 CURVE SMOOTH",
"620 804 OFFCURVE",
"537 873 OFFCURVE",
"464 873 CURVE SMOOTH",
"350 873 OFFCURVE",
"275 750 OFFCURVE",
"275 597 CURVE",
"384 597 LINE",
"384 706 OFFCURVE",
"414 798 OFFCURVE",
"456 798 CURVE SMOOTH",
"487 798 OFFCURVE",
"516 757 OFFCURVE",
"516 738 CURVE SMOOTH",
"516 725 OFFCURVE",
"488 717 OFFCURVE",
"488 707 CURVE SMOOTH",
"488 701 OFFCURVE",
"495 697 OFFCURVE",
"509 697 CURVE SMOOTH"
);
}
);
};
layerId = "B0B60A8F-2DEB-4A58-A43B-60A0DADABD8F";
paths = (
{
closed = 1;
nodes = (
"-70 519 OFFCURVE",
"-63 512 OFFCURVE",
"-44 512 CURVE SMOOTH",
"352 512 LINE",
"347 465 LINE",
"282 462 OFFCURVE",
"233 463 OFFCURVE",
"204 463 CURVE SMOOTH",
"138 463 OFFCURVE",
"75 378 OFFCURVE",
"76 319 CURVE SMOOTH",
"77 242 OFFCURVE",
"164 194 OFFCURVE",
"219 194 CURVE SMOOTH",
"256 194 OFFCURVE",
"306 223 OFFCURVE",
"320 223 CURVE SMOOTH",
"345 223 OFFCURVE",
"365 183 OFFCURVE",
"365 163 CURVE SMOOTH",
"365 125 OFFCURVE",
"202 101 OFFCURVE",
"158 101 CURVE SMOOTH",
"129 101 OFFCURVE",
"118 125 OFFCURVE",
"104 125 CURVE SMOOTH",
"88 125 OFFCURVE",
"61 59 OFFCURVE",
"61 38 CURVE SMOOTH",
"61 19 OFFCURVE",
"76 32 OFFCURVE",
"98 4 CURVE SMOOTH",
"176 -96 OFFCURVE",
"277 -165 OFFCURVE",
"308 -165 CURVE SMOOTH",
"332 -165 OFFCURVE",
"386 -97 OFFCURVE",
"386 -63 CURVE SMOOTH",
"386 -48 OFFCURVE",
"385 -28 OFFCURVE",
"375 -28 CURVE SMOOTH",
"366 -28 OFFCURVE",
"356 -60 OFFCURVE",
"347 -60 CURVE SMOOTH",
"327 -60 OFFCURVE",
"242 -14 OFFCURVE",
"210 21 CURVE",
"302 21 OFFCURVE",
"482 82 OFFCURVE",
"482 163 CURVE SMOOTH",
"482 226 OFFCURVE",
"421 306 OFFCURVE",
"358 306 CURVE SMOOTH",
"308 306 OFFCURVE",
"262 279 OFFCURVE",
"239 279 CURVE SMOOTH",
"224 279 OFFCURVE",
"192 299 OFFCURVE",
"192 322 CURVE SMOOTH",
"192 349 OFFCURVE",
"218 373 OFFCURVE",
"238 373 CURVE SMOOTH",
"256 373 OFFCURVE",
"316 373 OFFCURVE",
"362 373 CURVE SMOOTH",
"409 373 OFFCURVE",
"452 416 OFFCURVE",
"456 451 CURVE SMOOTH",
"463 512 LINE",
"543 512 LINE",
"572 512 OFFCURVE",
"585 509 OFFCURVE",
"592 531 CURVE SMOOTH",
"609 584 LINE SMOOTH",
"614 599 OFFCURVE",
"607 606 OFFCURVE",
"588 606 CURVE SMOOTH",
"384 606 LINE",
"386 711 OFFCURVE",
"415 798 OFFCURVE",
"456 798 CURVE SMOOTH",
"487 798 OFFCURVE",
"516 757 OFFCURVE",
"516 738 CURVE SMOOTH",
"516 725 OFFCURVE",
"488 717 OFFCURVE",
"488 707 CURVE SMOOTH",
"488 701 OFFCURVE",
"495 697 OFFCURVE",
"509 697 CURVE SMOOTH",
"543 697 OFFCURVE",
"622 744 OFFCURVE",
"621 771 CURVE SMOOTH",
"620 804 OFFCURVE",
"537 873 OFFCURVE",
"464 873 CURVE SMOOTH",
"352 873 OFFCURVE",
"278 755 OFFCURVE",
"275 606 CURVE",
"0 606 LINE SMOOTH",
"-29 606 OFFCURVE",
"-42 609 OFFCURVE",
"-49 587 CURVE SMOOTH",
"-65 534 LINE SMOOTH"
);
}
);
width = 543;
},
{
layerId = "C23C635F-568C-40B7-8839-28DDBF9C11D0";
paths = (
{
closed = 1;
nodes = (
"-78 517 OFFCURVE",
"-71 510 OFFCURVE",
"-52 510 CURVE SMOOTH",
"344 510 LINE",
"340 473 LINE",
"279 470 OFFCURVE",
"231 471 OFFCURVE",
"199 471 CURVE SMOOTH",
"124 471 OFFCURVE",
"65 378 OFFCURVE",
"66 319 CURVE SMOOTH",
"67 227 OFFCURVE",
"165 184 OFFCURVE",
"220 184 CURVE SMOOTH",
"257 184 OFFCURVE",
"306 213 OFFCURVE",
"320 213 CURVE SMOOTH",
"336 213 OFFCURVE",
"355 183 OFFCURVE",
"355 166 CURVE SMOOTH",
"355 136 OFFCURVE",
"202 111 OFFCURVE",
"157 111 CURVE SMOOTH",
"128 111 OFFCURVE",
"120 137 OFFCURVE",
"102 137 CURVE SMOOTH",
"82 137 OFFCURVE",
"51 59 OFFCURVE",
"51 35 CURVE SMOOTH",
"51 13 OFFCURVE",
"74 24 OFFCURVE",
"96 -4 CURVE SMOOTH",
"174 -104 OFFCURVE",
"272 -175 OFFCURVE",
"309 -175 CURVE SMOOTH",
"340 -175 OFFCURVE",
"394 -104 OFFCURVE",
"394 -63 CURVE SMOOTH",
"394 -48 OFFCURVE",
"391 -17 OFFCURVE",
"381 -17 CURVE SMOOTH",
"372 -17 OFFCURVE",
"361 -49 OFFCURVE",
"352 -49 CURVE SMOOTH",
"332 -49 OFFCURVE",
"250 -7 OFFCURVE",
"228 14 CURVE",
"320 14 OFFCURVE",
"490 72 OFFCURVE",
"490 163 CURVE SMOOTH",
"490 227 OFFCURVE",
"437 314 OFFCURVE",
"358 314 CURVE SMOOTH",
"304 314 OFFCURVE",
"262 289 OFFCURVE",
"239 289 CURVE SMOOTH",
"224 289 OFFCURVE",
"202 307 OFFCURVE",
"202 322 CURVE SMOOTH",
"202 338 OFFCURVE",
"223 365 OFFCURVE",
"242 365 CURVE SMOOTH",
"334 365 OFFCURVE",
"349 365 OFFCURVE",
"371 365 CURVE SMOOTH",
"417 365 OFFCURVE",
"465 416 OFFCURVE",
"469 451 CURVE SMOOTH",
"476 510 LINE",
"543 510 LINE",
"575 510 OFFCURVE",
"585 508 OFFCURVE",
"592 529 CURVE SMOOTH",
"616 603 LINE SMOOTH",
"621 618 OFFCURVE",
"614 625 OFFCURVE",
"595 625 CURVE SMOOTH",
"397 625 LINE",
"400 715 OFFCURVE",
"424 790 OFFCURVE",
"459 790 CURVE SMOOTH",
"480 790 OFFCURVE",
"509 755 OFFCURVE",
"509 736 CURVE SMOOTH",
"509 723 OFFCURVE",
"479 714 OFFCURVE",
"479 700 CURVE SMOOTH",
"479 693 OFFCURVE",
"495 689 OFFCURVE",
"509 689 CURVE SMOOTH",
"543 689 OFFCURVE",
"633 738 OFFCURVE",
"632 771 CURVE SMOOTH",
"631 812 OFFCURVE",
"546 881 OFFCURVE",
"467 881 CURVE SMOOTH",
"348 881 OFFCURVE",
"273 769 OFFCURVE",
"268 625 CURVE",
"0 625 LINE SMOOTH",
"-32 625 OFFCURVE",
"-42 627 OFFCURVE",
"-49 606 CURVE SMOOTH",
"-73 532 LINE SMOOTH"
);
}
);
width = 543;
}
);
unicode = 0908;
},
{
glyphname = "u-deva";
lastChange = "2022-01-18 13:57:14 +0000";
layers = (
{
background = {
paths = (
{
closed = 1;
nodes = (
"0 629 LINE",
"-32 629 OFFCURVE",
"-42 631 OFFCURVE",
"-49 610 CURVE SMOOTH",
"-74 532 LINE SMOOTH",
"-79 517 OFFCURVE",
"-72 510 OFFCURVE",
"-53 510 CURVE SMOOTH",
"641 510 LINE",
"673 510 OFFCURVE",
"683 508 OFFCURVE",
"690 529 CURVE SMOOTH",
"715 607 LINE SMOOTH",
"720 622 OFFCURVE",
"713 629 OFFCURVE",
"694 629 CURVE SMOOTH"
);
},
{
closed = 1;
nodes = (
"378 511 LINE",
"423 511 OFFCURVE",
"435 462 OFFCURVE",
"435 438 CURVE SMOOTH",
"435 402 OFFCURVE",
"411 390 OFFCURVE",
"365 378 CURVE SMOOTH",
"317 365 OFFCURVE",
"290 367 OFFCURVE",
"290 346 CURVE SMOOTH",
"290 320 OFFCURVE",
"308 246 OFFCURVE",
"334 246 CURVE SMOOTH",
"351 246 OFFCURVE",
"377 264 OFFCURVE",
"396 264 CURVE SMOOTH",
"414 264 OFFCURVE",
"438 229 OFFCURVE",
"438 179 CURVE SMOOTH",
"438 133 OFFCURVE",
"375 88 OFFCURVE",
"293 88 CURVE SMOOTH",
"228 88 OFFCURVE",
"187 150 OFFCURVE",
"187 235 CURVE SMOOTH",
"187 299 OFFCURVE",
"208 350 OFFCURVE",
"179 350 CURVE SMOOTH",
"146 350 OFFCURVE",
"62 267 OFFCURVE",
"62 163 CURVE SMOOTH",
"62 44 OFFCURVE",
"182 -24 OFFCURVE",
"294 -24 CURVE SMOOTH",
"466 -24 OFFCURVE",
"586 84 OFFCURVE",
"586 215 CURVE SMOOTH",
"586 273 OFFCURVE",
"544 322 OFFCURVE",
"508 338 CURVE",
"536 356 OFFCURVE",
"578 395 OFFCURVE",
"578 449 CURVE SMOOTH",
"578 492 OFFCURVE",
"562 519 OFFCURVE",
"550 533 CURVE"
);
},
{
closed = 1;
nodes = (
"388 512 LINE",
"433 512 OFFCURVE",
"446 462 OFFCURVE",
"446 438 CURVE SMOOTH",
"446 398 OFFCURVE",
"422 381 OFFCURVE",
"365 367 CURVE SMOOTH",
"320 356 OFFCURVE",
"304 353 OFFCURVE",
"304 336 CURVE SMOOTH",
"304 307 OFFCURVE",
"323 259 OFFCURVE",
"340 259 CURVE SMOOTH",
"355 259 OFFCURVE",
"381 275 OFFCURVE",
"399 275 CURVE SMOOTH",
"423 275 OFFCURVE",
"449 230 OFFCURVE",
"449 183 CURVE SMOOTH",
"449 123 OFFCURVE",
"383 77 OFFCURVE",
"301 77 CURVE SMOOTH",
"232 77 OFFCURVE",
"177 120 OFFCURVE",
"177 235 CURVE SMOOTH",
"177 299 OFFCURVE",
"197 341 OFFCURVE",
"173 341 CURVE SMOOTH",
"146 341 OFFCURVE",
"72 254 OFFCURVE",
"72 167 CURVE SMOOTH",
"72 56 OFFCURVE",
"173 -13 OFFCURVE",
"292 -13 CURVE SMOOTH",
"448 -13 OFFCURVE",
"576 87 OFFCURVE",
"576 210 CURVE SMOOTH",
"576 269 OFFCURVE",
"529 318 OFFCURVE",
"495 338 CURVE",
"523 356 OFFCURVE",
"568 395 OFFCURVE",
"568 449 CURVE SMOOTH",
"568 490 OFFCURVE",
"552 519 OFFCURVE",
"540 533 CURVE"
);
},
{
closed = 1;
nodes = (
"0 606 LINE",
"-29 606 OFFCURVE",
"-42 609 OFFCURVE",
"-49 587 CURVE SMOOTH",
"-65 534 LINE SMOOTH",
"-70 519 OFFCURVE",
"-63 512 OFFCURVE",
"-44 512 CURVE SMOOTH",
"620 512 LINE",
"649 512 OFFCURVE",
"662 509 OFFCURVE",
"669 531 CURVE SMOOTH",
"686 584 LINE SMOOTH",
"691 599 OFFCURVE",
"684 606 OFFCURVE",
"665 606 CURVE SMOOTH"
);
}
);
};
layerId = "B0B60A8F-2DEB-4A58-A43B-60A0DADABD8F";
paths = (
{
closed = 1;
nodes = (
"-70 519 OFFCURVE",
"-63 512 OFFCURVE",
"-44 512 CURVE SMOOTH",
"388 512 LINE SMOOTH",
"433 512 OFFCURVE",
"446 462 OFFCURVE",
"446 438 CURVE SMOOTH",
"446 398 OFFCURVE",
"422 381 OFFCURVE",
"365 367 CURVE SMOOTH",
"320 356 OFFCURVE",
"304 353 OFFCURVE",
"304 336 CURVE SMOOTH",
"304 307 OFFCURVE",
"323 259 OFFCURVE",
"340 259 CURVE SMOOTH",
"355 259 OFFCURVE",
"381 275 OFFCURVE",
"399 275 CURVE SMOOTH",
"423 275 OFFCURVE",
"449 230 OFFCURVE",
"449 183 CURVE SMOOTH",
"449 123 OFFCURVE",
"383 77 OFFCURVE",
"301 77 CURVE SMOOTH",
"232 77 OFFCURVE",
"177 120 OFFCURVE",
"177 235 CURVE SMOOTH",
"177 299 OFFCURVE",
"197 341 OFFCURVE",
"173 341 CURVE SMOOTH",
"146 341 OFFCURVE",
"72 254 OFFCURVE",
"72 167 CURVE SMOOTH",
"72 56 OFFCURVE",
"173 -13 OFFCURVE",
"292 -13 CURVE SMOOTH",
"448 -13 OFFCURVE",
"576 87 OFFCURVE",
"576 210 CURVE SMOOTH",
"576 269 OFFCURVE",
"529 318 OFFCURVE",
"495 338 CURVE",
"523 356 OFFCURVE",
"568 395 OFFCURVE",
"568 449 CURVE SMOOTH",
"568 475 OFFCURVE",
"561 496 OFFCURVE",
"554 512 CURVE",
"641 512 LINE",
"649 512 OFFCURVE",
"662 509 OFFCURVE",
"669 531 CURVE SMOOTH",
"686 584 LINE SMOOTH",
"691 599 OFFCURVE",
"684 606 OFFCURVE",
"665 606 CURVE SMOOTH",
"0 606 LINE",
"-29 606 OFFCURVE",
"-42 609 OFFCURVE",
"-49 587 CURVE SMOOTH",
"-65 534 LINE SMOOTH"
);
}
);
width = 641;
},
{
layerId = "C23C635F-568C-40B7-8839-28DDBF9C11D0";
paths = (
{
closed = 1;
nodes = (
"-78 517 OFFCURVE",
"-71 510 OFFCURVE",
"-52 510 CURVE SMOOTH",
"389 510 LINE SMOOTH",
"426 505 OFFCURVE",
"437 460 OFFCURVE",
"437 438 CURVE SMOOTH",
"437 401 OFFCURVE",
"413 389 OFFCURVE",
"365 376 CURVE SMOOTH",
"318 364 OFFCURVE",
"292 365 OFFCURVE",
"292 344 CURVE SMOOTH",
"292 318 OFFCURVE",
"311 248 OFFCURVE",
"335 248 CURVE SMOOTH",
"352 248 OFFCURVE",
"378 266 OFFCURVE",
"397 266 CURVE SMOOTH",
"416 266 OFFCURVE",
"440 229 OFFCURVE",
"440 180 CURVE SMOOTH",
"440 131 OFFCURVE",
"376 86 OFFCURVE",
"294 86 CURVE SMOOTH",
"229 86 OFFCURVE",
"185 145 OFFCURVE",
"185 235 CURVE SMOOTH",
"185 299 OFFCURVE",
"206 349 OFFCURVE",
"178 349 CURVE SMOOTH",
"146 349 OFFCURVE",
"64 265 OFFCURVE",
"64 164 CURVE SMOOTH",
"64 46 OFFCURVE",
"181 -22 OFFCURVE",
"294 -22 CURVE SMOOTH",
"463 -22 OFFCURVE",
"584 85 OFFCURVE",
"584 214 CURVE SMOOTH",
"584 272 OFFCURVE",
"542 321 OFFCURVE",
"506 338 CURVE",
"534 356 OFFCURVE",
"576 395 OFFCURVE",
"576 449 CURVE SMOOTH",
"576 475 OFFCURVE",
"570 495 OFFCURVE",
"563 510 CURVE",
"637 510 LINE",
"665 510 OFFCURVE",
"675 508 OFFCURVE",
"682 529 CURVE SMOOTH",
"706 603 LINE SMOOTH",
"711 618 OFFCURVE",
"704 625 OFFCURVE",
"685 625 CURVE SMOOTH",
"0 625 LINE",
"-32 625 OFFCURVE",
"-42 627 OFFCURVE",
"-49 606 CURVE SMOOTH",
"-73 532 LINE SMOOTH"
);
}
);
width = 636.83333;
}
);
unicode = 0909;
},
{
glyphname = "uu-deva";
lastChange = "2022-01-18 13:57:14 +0000";
layers = (
{
background = {
paths = (
{
closed = 1;
nodes = (
"54 629 LINE",
"22 629 OFFCURVE",
"12 631 OFFCURVE",
"5 610 CURVE SMOOTH",
"-20 532 LINE SMOOTH",
"-25 517 OFFCURVE",
"-18 510 OFFCURVE",
"1 510 CURVE SMOOTH",
"881 510 LINE",
"913 510 OFFCURVE",
"923 508 OFFCURVE",
"930 529 CURVE SMOOTH",
"955 607 LINE SMOOTH",
"960 622 OFFCURVE",
"953 629 OFFCURVE",
"934 629 CURVE SMOOTH"
);
},
{
closed = 1;
nodes = (
"378 511 LINE",
"423 511 OFFCURVE",
"435 462 OFFCURVE",
"435 438 CURVE SMOOTH",
"435 402 OFFCURVE",
"411 390 OFFCURVE",
"365 378 CURVE SMOOTH",
"317 365 OFFCURVE",
"290 367 OFFCURVE",
"290 346 CURVE SMOOTH",
"290 320 OFFCURVE",
"308 246 OFFCURVE",
"334 246 CURVE SMOOTH",
"351 246 OFFCURVE",
"377 264 OFFCURVE",
"396 264 CURVE SMOOTH",
"414 264 OFFCURVE",
"438 229 OFFCURVE",
"438 179 CURVE SMOOTH",
"438 133 OFFCURVE",
"375 88 OFFCURVE",
"293 88 CURVE SMOOTH",
"228 88 OFFCURVE",
"187 150 OFFCURVE",
"187 235 CURVE SMOOTH",
"187 299 OFFCURVE",
"208 350 OFFCURVE",
"179 350 CURVE SMOOTH",
"146 350 OFFCURVE",
"62 267 OFFCURVE",
"62 163 CURVE SMOOTH",
"62 44 OFFCURVE",
"182 -24 OFFCURVE",
"294 -24 CURVE SMOOTH",
"466 -24 OFFCURVE",
"586 84 OFFCURVE",
"586 215 CURVE SMOOTH",
"586 273 OFFCURVE",
"544 322 OFFCURVE",
"508 338 CURVE",
"536 356 OFFCURVE",
"578 395 OFFCURVE",
"578 449 CURVE SMOOTH",
"578 492 OFFCURVE",
"562 519 OFFCURVE",
"550 533 CURVE"
);
},
{
closed = 1;
nodes = (
"778 90 OFFCURVE",
"840 187 OFFCURVE",
"840 265 CURVE SMOOTH",
"840 374 OFFCURVE",
"755 437 OFFCURVE",
"666 437 CURVE SMOOTH",
"585 437 OFFCURVE",
"483 372 OFFCURVE",
"462 357 CURVE",
"531 244 LINE",
"558 267 OFFCURVE",
"648 333 OFFCURVE",
"683 333 CURVE SMOOTH",
"713 333 OFFCURVE",
"735 300 OFFCURVE",
"735 275 CURVE SMOOTH",
"735 247 OFFCURVE",
"690 205 OFFCURVE",
"674 205 CURVE SMOOTH",
"661 205 OFFCURVE",
"637 234 OFFCURVE",
"625 234 CURVE SMOOTH",
"617 234 OFFCURVE",
"616 219 OFFCURVE",
"616 211 CURVE SMOOTH",
"616 169 OFFCURVE",
"691 90 OFFCURVE",
"736 90 CURVE SMOOTH"
);
},
{
closed = 1;
nodes = (
"767 100 OFFCURVE",
"829 187 OFFCURVE",
"829 265 CURVE SMOOTH",
"829 374 OFFCURVE",
"734 427 OFFCURVE",
"665 427 CURVE SMOOTH",
"584 427 OFFCURVE",
"492 362 OFFCURVE",
"471 347 CURVE",
"524 260 LINE",
"551 283 OFFCURVE",
"649 347 OFFCURVE",
"684 347 CURVE SMOOTH",
"719 347 OFFCURVE",
"744 303 OFFCURVE",
"744 276 CURVE SMOOTH",
"744 245 OFFCURVE",
"699 195 OFFCURVE",
"683 195 CURVE SMOOTH",
"670 195 OFFCURVE",
"649 218 OFFCURVE",
"640 218 CURVE SMOOTH",
"632 218 OFFCURVE",
"630 208 OFFCURVE",
"630 198 CURVE SMOOTH",
"630 163 OFFCURVE",
"699 100 OFFCURVE",
"736 100 CURVE SMOOTH"
);
},
{
closed = 1;
nodes = (
"391 512 LINE",
"436 512 OFFCURVE",
"449 462 OFFCURVE",
"449 438 CURVE SMOOTH",
"449 398 OFFCURVE",
"422 381 OFFCURVE",
"365 367 CURVE SMOOTH",
"320 356 OFFCURVE",
"304 353 OFFCURVE",
"304 336 CURVE SMOOTH",
"304 307 OFFCURVE",
"323 259 OFFCURVE",
"340 259 CURVE SMOOTH",
"355 259 OFFCURVE",
"381 275 OFFCURVE",
"399 275 CURVE SMOOTH",
"423 275 OFFCURVE",
"449 230 OFFCURVE",
"449 183 CURVE SMOOTH",
"449 123 OFFCURVE",
"383 77 OFFCURVE",
"301 77 CURVE SMOOTH",
"232 77 OFFCURVE",
"177 120 OFFCURVE",
"177 235 CURVE SMOOTH",
"177 299 OFFCURVE",
"197 341 OFFCURVE",
"173 341 CURVE SMOOTH",
"146 341 OFFCURVE",
"72 254 OFFCURVE",
"72 167 CURVE SMOOTH",
"72 56 OFFCURVE",
"173 -13 OFFCURVE",
"292 -13 CURVE SMOOTH",
"448 -13 OFFCURVE",
"576 95 OFFCURVE",
"576 200 CURVE SMOOTH",
"576 263 OFFCURVE",
"523 318 OFFCURVE",
"489 338 CURVE",
"522 356 OFFCURVE",
"568 395 OFFCURVE",
"568 449 CURVE SMOOTH",
"568 490 OFFCURVE",
"552 519 OFFCURVE",
"540 533 CURVE"
);
},
{
closed = 1;
nodes = (
"0 606 LINE",
"-29 606 OFFCURVE",
"-42 609 OFFCURVE",
"-49 587 CURVE SMOOTH",
"-65 534 LINE SMOOTH",
"-70 519 OFFCURVE",
"-63 512 OFFCURVE",
"-44 512 CURVE SMOOTH",
"882 512 LINE",
"911 512 OFFCURVE",
"924 509 OFFCURVE",
"931 531 CURVE SMOOTH",
"948 584 LINE SMOOTH",
"953 599 OFFCURVE",
"946 606 OFFCURVE",
"927 606 CURVE SMOOTH"
);
}
);
};
layerId = "B0B60A8F-2DEB-4A58-A43B-60A0DADABD8F";
paths = (
{
closed = 1;
nodes = (
"-70 519 OFFCURVE",
"-63 512 OFFCURVE",
"-44 512 CURVE SMOOTH",
"391 512 LINE SMOOTH",
"436 512 OFFCURVE",
"449 462 OFFCURVE",
"449 438 CURVE SMOOTH",
"449 398 OFFCURVE",
"422 381 OFFCURVE",
"365 367 CURVE SMOOTH",
"320 356 OFFCURVE",
"304 353 OFFCURVE",
"304 336 CURVE SMOOTH",
"304 307 OFFCURVE",
"323 259 OFFCURVE",
"340 259 CURVE SMOOTH",
"355 259 OFFCURVE",
"381 275 OFFCURVE",
"399 275 CURVE SMOOTH",
"423 275 OFFCURVE",
"449 230 OFFCURVE",
"449 183 CURVE SMOOTH",
"449 123 OFFCURVE",
"383 77 OFFCURVE",
"301 77 CURVE SMOOTH",
"232 77 OFFCURVE",
"177 120 OFFCURVE",
"177 235 CURVE SMOOTH",
"177 299 OFFCURVE",
"197 341 OFFCURVE",
"173 341 CURVE SMOOTH",
"146 341 OFFCURVE",
"72 254 OFFCURVE",
"72 167 CURVE SMOOTH",
"72 56 OFFCURVE",
"173 -13 OFFCURVE",
"292 -13 CURVE SMOOTH",
"448 -13 OFFCURVE",
"576 95 OFFCURVE",
"576 200 CURVE SMOOTH",
"576 229 OFFCURVE",
"565 256 OFFCURVE",
"549 279 CURVE",
"590 307 OFFCURVE",
"656 347 OFFCURVE",
"684 347 CURVE SMOOTH",
"719 347 OFFCURVE",
"744 303 OFFCURVE",
"744 276 CURVE SMOOTH",
"744 245 OFFCURVE",
"699 195 OFFCURVE",
"683 195 CURVE SMOOTH",
"670 195 OFFCURVE",
"649 218 OFFCURVE",
"640 218 CURVE SMOOTH",
"632 218 OFFCURVE",
"630 208 OFFCURVE",
"630 198 CURVE SMOOTH",
"630 163 OFFCURVE",
"699 100 OFFCURVE",
"736 100 CURVE SMOOTH",
"767 100 OFFCURVE",
"829 187 OFFCURVE",
"829 265 CURVE SMOOTH",
"829 374 OFFCURVE",
"734 427 OFFCURVE",
"665 427 CURVE SMOOTH",
"627 427 OFFCURVE",
"587 413 OFFCURVE",
"552 396 CURVE",
"562 412 OFFCURVE",
"568 429 OFFCURVE",
"568 449 CURVE SMOOTH",
"568 475 OFFCURVE",
"561 496 OFFCURVE",
"554 512 CURVE",
"882 512 LINE",
"911 512 OFFCURVE",
"924 509 OFFCURVE",
"931 531 CURVE SMOOTH",
"948 584 LINE SMOOTH",
"953 599 OFFCURVE",
"946 606 OFFCURVE",
"927 606 CURVE SMOOTH",
"0 606 LINE",
"-29 606 OFFCURVE",
"-42 609 OFFCURVE",
"-49 587 CURVE SMOOTH",
"-65 534 LINE SMOOTH"
);
}
);
width = 883;
},
{
layerId = "C23C635F-568C-40B7-8839-28DDBF9C11D0";
paths = (
{
closed = 1;
nodes = (
"-78 517 OFFCURVE",
"-71 510 OFFCURVE",
"-52 510 CURVE SMOOTH",
"389 510 LINE SMOOTH",
"427 505 OFFCURVE",
"437 460 OFFCURVE",
"437 438 CURVE SMOOTH",
"437 401 OFFCURVE",
"413 389 OFFCURVE",
"365 376 CURVE SMOOTH",
"318 364 OFFCURVE",
"292 365 OFFCURVE",
"292 344 CURVE SMOOTH",
"292 318 OFFCURVE",
"311 248 OFFCURVE",
"335 248 CURVE SMOOTH",
"352 248 OFFCURVE",
"378 266 OFFCURVE",
"397 266 CURVE SMOOTH",
"416 266 OFFCURVE",
"440 229 OFFCURVE",
"440 180 CURVE SMOOTH",
"440 131 OFFCURVE",
"376 86 OFFCURVE",
"294 86 CURVE SMOOTH",
"229 86 OFFCURVE",
"185 145 OFFCURVE",
"185 235 CURVE SMOOTH",
"185 299 OFFCURVE",
"206 349 OFFCURVE",
"178 349 CURVE SMOOTH",
"146 349 OFFCURVE",
"64 265 OFFCURVE",
"64 164 CURVE SMOOTH",
"64 46 OFFCURVE",
"181 -22 OFFCURVE",
"294 -22 CURVE SMOOTH",
"463 -22 OFFCURVE",
"584 86 OFFCURVE",
"584 213 CURVE SMOOTH",
"584 236 OFFCURVE",
"578 257 OFFCURVE",
"567 276 CURVE",
"606 303 OFFCURVE",
"659 335 OFFCURVE",
"683 335 CURVE SMOOTH",
"714 335 OFFCURVE",
"737 301 OFFCURVE",
"737 275 CURVE SMOOTH",
"737 247 OFFCURVE",
"692 203 OFFCURVE",
"676 203 CURVE SMOOTH",
"663 203 OFFCURVE",
"639 231 OFFCURVE",
"628 231 CURVE SMOOTH",
"620 231 OFFCURVE",
"618 217 OFFCURVE",
"618 209 CURVE SMOOTH",
"618 168 OFFCURVE",
"692 92 OFFCURVE",
"736 92 CURVE SMOOTH",
"776 92 OFFCURVE",
"838 187 OFFCURVE",
"838 265 CURVE SMOOTH",
"838 374 OFFCURVE",
"752 435 OFFCURVE",
"666 435 CURVE SMOOTH",
"635 435 OFFCURVE",
"600 426 OFFCURVE",
"570 413 CURVE",
"574 424 OFFCURVE",
"576 436 OFFCURVE",
"576 449 CURVE SMOOTH",
"576 475 OFFCURVE",
"570 495 OFFCURVE",
"563 510 CURVE",
"881 510 LINE",
"913 510 OFFCURVE",
"923 508 OFFCURVE",
"930 529 CURVE SMOOTH",
"954 603 LINE SMOOTH",
"959 618 OFFCURVE",
"952 625 OFFCURVE",
"933 625 CURVE SMOOTH",
"0 625 LINE",
"-32 625 OFFCURVE",
"-42 627 OFFCURVE",
"-49 606 CURVE SMOOTH",
"-73 532 LINE SMOOTH"
);
}
);
width = 881.33333;
}
);
unicode = 090A;
},
{
glyphname = "rVocalic-deva";
lastChange = "2022-01-18 13:57:14 +0000";
layers = (
{
background = {
paths = (
{
closed = 1;
nodes = (
"344 541 LINE",
"321 295 OFFCURVE",
"304 117 OFFCURVE",
"297 63 CURVE SMOOTH",
"292 27 OFFCURVE",
"283 -23 OFFCURVE",
"322 -23 CURVE SMOOTH",
"386 -23 OFFCURVE",
"443 107 OFFCURVE",
"448 174 CURVE SMOOTH",
"462 361 OFFCURVE",
"468 396 OFFCURVE",
"481 538 CURVE"
);
},
{
closed = 1;
nodes = (
"0 629 LINE",
"-14 629 OFFCURVE",
"-24 627 OFFCURVE",
"-29 610 CURVE SMOOTH",
"-54 532 LINE SMOOTH",
"-59 517 OFFCURVE",
"-52 510 OFFCURVE",
"-33 510 CURVE SMOOTH",
"796 510 LINE",
"828 510 OFFCURVE",
"838 508 OFFCURVE",
"845 529 CURVE SMOOTH",
"870 607 LINE SMOOTH",
"875 622 OFFCURVE",
"868 629 OFFCURVE",
"849 629 CURVE SMOOTH"
);
},
{
closed = 1;
nodes = (
"432 238 LINE",
"432 336 OFFCURVE",
"262 480 OFFCURVE",
"175 480 CURVE SMOOTH",
"119 480 OFFCURVE",
"62 392 OFFCURVE",
"62 346 CURVE SMOOTH",
"62 334 OFFCURVE",
"69 318 OFFCURVE",
"76 318 CURVE SMOOTH",
"85 318 OFFCURVE",
"98 347 OFFCURVE",
"113 347 CURVE SMOOTH",
"165 347 OFFCURVE",
"323 320 OFFCURVE",
"319 274 CURVE SMOOTH",
"317 256 OFFCURVE",
"317 246 OFFCURVE",
"316 238 CURVE"
);
},
{
closed = 1;
nodes = (
"170 27 OFFCURVE",
"380 168 OFFCURVE",
"448 276 CURVE",
"319 274 LINE",
"280 249 OFFCURVE",
"131 169 OFFCURVE",
"96 169 CURVE SMOOTH",
"83 169 OFFCURVE",
"74 187 OFFCURVE",
"62 187 CURVE SMOOTH",
"56 187 OFFCURVE",
"55 180 OFFCURVE",
"55 175 CURVE SMOOTH",
"55 123 OFFCURVE",
"95 27 OFFCURVE",
"129 27 CURVE SMOOTH"
);
},
{
closed = 1;
nodes = (
"475 237 OFFCURVE",
"541 275 OFFCURVE",
"571 305 CURVE",
"609 276 OFFCURVE",
"636 231 OFFCURVE",
"636 214 CURVE SMOOTH",
"636 186 OFFCURVE",
"572 157 OFFCURVE",
"560 157 CURVE SMOOTH",
"548 158 OFFCURVE",
"536 176 OFFCURVE",
"524 176 CURVE SMOOTH",
"520 176 OFFCURVE",
"517 165 OFFCURVE",
"517 159 CURVE SMOOTH",
"517 102 OFFCURVE",
"556 33 OFFCURVE",
"598 33 CURVE SMOOTH",
"631 33 OFFCURVE",
"739 126 OFFCURVE",
"739 206 CURVE SMOOTH",
"739 274 OFFCURVE",
"657 353 OFFCURVE",
"645 361 CURVE",
"657 371 OFFCURVE",
"671 387 OFFCURVE",
"671 395 CURVE SMOOTH",
"671 411 OFFCURVE",
"620 463 OFFCURVE",
"603 463 CURVE SMOOTH",
"595 463 OFFCURVE",
"585 450 OFFCURVE",
"575 439 CURVE SMOOTH",
"553 414 OFFCURVE",
"467 366 OFFCURVE",
"446 353 CURVE",
"434 207 LINE"
);
},
{
closed = 1;
nodes = (
"0 606 LINE",
"-29 606 OFFCURVE",
"-42 609 OFFCURVE",
"-49 587 CURVE SMOOTH",
"-65 534 LINE SMOOTH",
"-70 519 OFFCURVE",
"-63 512 OFFCURVE",
"-44 512 CURVE SMOOTH",
"760 512 LINE",
"789 512 OFFCURVE",
"802 509 OFFCURVE",
"809 531 CURVE SMOOTH",
"826 584 LINE SMOOTH",
"831 599 OFFCURVE",
"824 606 OFFCURVE",
"805 606 CURVE SMOOTH"
);
},
{
closed = 1;
nodes = (
"344 541 LINE",
"344 541 OFFCURVE",
"310 162 OFFCURVE",
"296 56 CURVE SMOOTH",
"290 14 OFFCURVE",
"285 -21 OFFCURVE",
"316 -21 CURVE SMOOTH",
"357 -21 OFFCURVE",
"419 107 OFFCURVE",
"423 174 CURVE SMOOTH",
"434 361 OFFCURVE",
"457 538 OFFCURVE",
"457 538 CURVE"
);
},
{
closed = 1;
nodes = (
"412 238 LINE",
"412 336 OFFCURVE",
"245 461 OFFCURVE",
"175 461 CURVE SMOOTH",
"127 461 OFFCURVE",
"76 390 OFFCURVE",
"76 352 CURVE SMOOTH",
"76 344 OFFCURVE",
"78 328 OFFCURVE",
"85 328 CURVE SMOOTH",
"94 328 OFFCURVE",
"103 353 OFFCURVE",
"118 353 CURVE SMOOTH",
"170 353 OFFCURVE",
"323 323 OFFCURVE",
"319 273 CURVE SMOOTH",
"318 255 OFFCURVE",
"317 247 OFFCURVE",
"316 238 CURVE"
);
},
{
closed = 1;
nodes = (
"174 40 OFFCURVE",
"346 164 OFFCURVE",
"422 263 CURVE",
"319 266 LINE",
"280 241 OFFCURVE",
"143 159 OFFCURVE",
"108 159 CURVE SMOOTH",
"95 159 OFFCURVE",
"88 175 OFFCURVE",
"76 175 CURVE SMOOTH",
"70 175 OFFCURVE",
"69 168 OFFCURVE",
"69 163 CURVE SMOOTH",
"69 111 OFFCURVE",
"105 40 OFFCURVE",
"133 40 CURVE SMOOTH"
);
},
{
closed = 1;
nodes = (
"455 235 OFFCURVE",
"541 286 OFFCURVE",
"571 316 CURVE",
"609 287 OFFCURVE",
"647 237 OFFCURVE",
"647 214 CURVE SMOOTH",
"647 181 OFFCURVE",
"582 148 OFFCURVE",
"570 148 CURVE SMOOTH",
"558 149 OFFCURVE",
"545 168 OFFCURVE",
"536 168 CURVE SMOOTH",
"529 168 OFFCURVE",
"527 157 OFFCURVE",
"527 147 CURVE SMOOTH",
"527 103 OFFCURVE",
"566 43 OFFCURVE",
"598 43 CURVE SMOOTH",
"631 43 OFFCURVE",
"729 135 OFFCURVE",
"729 206 CURVE SMOOTH",
"729 274 OFFCURVE",
"644 352 OFFCURVE",
"632 360 CURVE",
"644 370 OFFCURVE",
"661 387 OFFCURVE",
"661 395 CURVE SMOOTH",
"661 408 OFFCURVE",
"620 450 OFFCURVE",
"606 450 CURVE SMOOTH",
"598 450 OFFCURVE",
"585 436 OFFCURVE",
"575 425 CURVE SMOOTH",
"553 400 OFFCURVE",
"447 339 OFFCURVE",
"426 327 CURVE",
"414 206 LINE"
);
}
);
};
layerId = "B0B60A8F-2DEB-4A58-A43B-60A0DADABD8F";
paths = (
{
closed = 1;
nodes = (
"-70 519 OFFCURVE",
"-63 512 OFFCURVE",
"-44 512 CURVE SMOOTH",
"341 512 LINE",
"329 378 LINE",
"277 426 OFFCURVE",
"212 461 OFFCURVE",
"175 461 CURVE SMOOTH",
"127 461 OFFCURVE",
"76 390 OFFCURVE",
"76 352 CURVE SMOOTH",
"76 344 OFFCURVE",
"78 328 OFFCURVE",
"85 328 CURVE SMOOTH",
"94 328 OFFCURVE",
"103 353 OFFCURVE",
"118 353 CURVE SMOOTH",
"212 353 OFFCURVE",
"322 306 OFFCURVE",
"318 266 CURVE",
"278 240 OFFCURVE",
"143 159 OFFCURVE",
"108 159 CURVE SMOOTH",
"95 159 OFFCURVE",
"88 175 OFFCURVE",
"76 175 CURVE SMOOTH",
"70 175 OFFCURVE",
"69 168 OFFCURVE",
"69 163 CURVE SMOOTH",
"69 111 OFFCURVE",
"105 40 OFFCURVE",
"133 40 CURVE SMOOTH",
"158 40 OFFCURVE",
"234 88 OFFCURVE",
"306 148 CURVE",
"302 110 OFFCURVE",
"299 77 OFFCURVE",
"296 56 CURVE SMOOTH",
"290 14 OFFCURVE",
"285 -21 OFFCURVE",
"316 -21 CURVE SMOOTH",
"357 -21 OFFCURVE",
"418 107 OFFCURVE",
"423 174 CURVE SMOOTH",
"426 214 LINE",
"469 244 OFFCURVE",
"544 289 OFFCURVE",
"571 316 CURVE",
"609 287 OFFCURVE",
"647 237 OFFCURVE",
"647 214 CURVE SMOOTH",
"647 181 OFFCURVE",
"582 148 OFFCURVE",
"570 148 CURVE SMOOTH",
"558 149 OFFCURVE",
"545 168 OFFCURVE",
"536 168 CURVE SMOOTH",
"529 168 OFFCURVE",
"527 157 OFFCURVE",
"527 147 CURVE SMOOTH",
"527 103 OFFCURVE",
"566 43 OFFCURVE",
"598 43 CURVE SMOOTH",
"631 43 OFFCURVE",
"729 135 OFFCURVE",
"729 206 CURVE SMOOTH",
"729 274 OFFCURVE",
"644 352 OFFCURVE",
"632 360 CURVE",
"644 370 OFFCURVE",
"661 387 OFFCURVE",
"661 395 CURVE SMOOTH",
"661 408 OFFCURVE",
"620 450 OFFCURVE",
"606 450 CURVE SMOOTH",
"598 450 OFFCURVE",
"585 436 OFFCURVE",
"575 425 CURVE SMOOTH",
"555 403 OFFCURVE",
"468 351 OFFCURVE",
"435 332 CURVE",
"442 412 OFFCURVE",
"450 477 OFFCURVE",
"454 512 CURVE",
"760 512 LINE",
"789 512 OFFCURVE",
"802 509 OFFCURVE",
"809 531 CURVE SMOOTH",
"826 584 LINE SMOOTH",
"831 599 OFFCURVE",
"824 606 OFFCURVE",
"805 606 CURVE SMOOTH",
"0 606 LINE",
"-29 606 OFFCURVE",
"-42 609 OFFCURVE",
"-49 587 CURVE SMOOTH",
"-65 534 LINE SMOOTH"
);
}
);
width = 760;
},
{
layerId = "C23C635F-568C-40B7-8839-28DDBF9C11D0";
paths = (
{
closed = 1;
nodes = (
"-61 517 OFFCURVE",
"-54 510 OFFCURVE",
"-35 510 CURVE SMOOTH",
"341 510 LINE",
"331 396 LINE",
"279 443 OFFCURVE",
"216 477 OFFCURVE",
"175 477 CURVE SMOOTH",
"120 477 OFFCURVE",
"64 392 OFFCURVE",
"64 347 CURVE SMOOTH",
"64 336 OFFCURVE",
"71 320 OFFCURVE",
"78 320 CURVE SMOOTH",
"87 320 OFFCURVE",
"99 348 OFFCURVE",
"114 348 CURVE SMOOTH",
"193 348 OFFCURVE",
"323 314 OFFCURVE",
"319 273 CURVE",
"279 248 OFFCURVE",
"133 167 OFFCURVE",
"98 167 CURVE SMOOTH",
"85 167 OFFCURVE",
"76 185 OFFCURVE",
"64 185 CURVE SMOOTH",
"58 185 OFFCURVE",
"57 178 OFFCURVE",
"57 173 CURVE SMOOTH",
"57 121 OFFCURVE",
"97 29 OFFCURVE",
"130 29 CURVE SMOOTH",
"153 29 OFFCURVE",
"231 75 OFFCURVE",
"305 134 CURVE",
"302 108 OFFCURVE",
"300 85 OFFCURVE",
"297 62 CURVE SMOOTH",
"293 25 OFFCURVE",
"283 -23 OFFCURVE",
"321 -23 CURVE SMOOTH",
"381 -23 OFFCURVE",
"440 107 OFFCURVE",
"444 174 CURVE SMOOTH",
"447 218 LINE",
"488 247 OFFCURVE",
"545 281 OFFCURVE",
"571 307 CURVE",
"609 278 OFFCURVE",
"638 232 OFFCURVE",
"638 214 CURVE SMOOTH",
"638 185 OFFCURVE",
"574 156 OFFCURVE",
"562 156 CURVE SMOOTH",
"550 157 OFFCURVE",
"538 175 OFFCURVE",
"526 175 CURVE SMOOTH",
"522 175 OFFCURVE",
"519 164 OFFCURVE",
"519 157 CURVE SMOOTH",
"519 102 OFFCURVE",
"558 35 OFFCURVE",
"598 35 CURVE SMOOTH",
"631 35 OFFCURVE",
"737 128 OFFCURVE",
"737 206 CURVE SMOOTH",
"737 274 OFFCURVE",
"655 353 OFFCURVE",
"643 361 CURVE",
"655 371 OFFCURVE",
"669 387 OFFCURVE",
"669 395 CURVE SMOOTH",
"669 411 OFFCURVE",
"620 461 OFFCURVE",
"604 461 CURVE SMOOTH",
"596 461 OFFCURVE",
"585 448 OFFCURVE",
"575 437 CURVE SMOOTH",
"557 416 OFFCURVE",
"492 378 OFFCURVE",
"459 359 CURVE",
"465 413 OFFCURVE",
"469 464 OFFCURVE",
"474 510 CURVE",
"790 510 LINE",
"822 510 OFFCURVE",
"832 508 OFFCURVE",
"839 529 CURVE SMOOTH",
"863 603 LINE SMOOTH",
"868 618 OFFCURVE",
"861 625 OFFCURVE",
"842 625 CURVE SMOOTH",
"0 625 LINE",
"-17 625 OFFCURVE",
"-27 624 OFFCURVE",
"-32 606 CURVE SMOOTH",
"-56 532 LINE SMOOTH"
);
}
);
width = 790;
}
);
unicode = 090B;
},
{
glyphname = "rrVocalic-deva";
lastChange = "2022-01-18 13:57:14 +0000";
layers = (
{
background = {
paths = (
{
closed = 1;
nodes = (
"344 541 LINE",
"321 295 OFFCURVE",
"304 117 OFFCURVE",
"297 63 CURVE SMOOTH",
"292 27 OFFCURVE",
"283 -23 OFFCURVE",
"322 -23 CURVE SMOOTH",
"386 -23 OFFCURVE",
"443 107 OFFCURVE",
"448 174 CURVE SMOOTH",
"462 361 OFFCURVE",
"468 396 OFFCURVE",
"481 538 CURVE"
);
},
{
closed = 1;
nodes = (
"0 629 LINE",
"-14 629 OFFCURVE",
"-24 627 OFFCURVE",
"-29 610 CURVE SMOOTH",
"-54 532 LINE SMOOTH",
"-59 517 OFFCURVE",
"-52 510 OFFCURVE",
"-33 510 CURVE SMOOTH",
"816 510 LINE",
"848 510 OFFCURVE",
"858 508 OFFCURVE",
"865 529 CURVE SMOOTH",
"890 607 LINE SMOOTH",
"895 622 OFFCURVE",
"888 629 OFFCURVE",
"869 629 CURVE SMOOTH"
);
},
{
closed = 1;
nodes = (
"432 238 LINE",
"432 336 OFFCURVE",
"262 480 OFFCURVE",
"175 480 CURVE SMOOTH",
"119 480 OFFCURVE",
"62 392 OFFCURVE",
"62 346 CURVE SMOOTH",
"62 334 OFFCURVE",
"69 318 OFFCURVE",
"76 318 CURVE SMOOTH",
"85 318 OFFCURVE",
"98 347 OFFCURVE",
"113 347 CURVE SMOOTH",
"165 347 OFFCURVE",
"323 320 OFFCURVE",
"319 274 CURVE SMOOTH",
"317 256 OFFCURVE",
"317 246 OFFCURVE",
"316 238 CURVE"
);
},
{
closed = 1;
nodes = (
"170 27 OFFCURVE",
"380 168 OFFCURVE",
"448 276 CURVE",
"319 274 LINE",
"280 249 OFFCURVE",
"131 169 OFFCURVE",
"96 169 CURVE SMOOTH",
"83 169 OFFCURVE",
"74 187 OFFCURVE",
"62 187 CURVE SMOOTH",
"56 187 OFFCURVE",
"55 180 OFFCURVE",
"55 175 CURVE SMOOTH",
"55 123 OFFCURVE",
"95 27 OFFCURVE",
"129 27 CURVE SMOOTH"
);
},
{
closed = 1;
nodes = (
"475 237 OFFCURVE",
"536 271 OFFCURVE",
"566 301 CURVE",
"576 295 OFFCURVE",
"587 285 OFFCURVE",
"595 275 CURVE",
"547 240 OFFCURVE",
"513 197 OFFCURVE",
"513 155 CURVE SMOOTH",
"513 83 OFFCURVE",
"594 9 OFFCURVE",
"656 9 CURVE SMOOTH",
"718 9 OFFCURVE",
"765 81 OFFCURVE",
"765 123 CURVE SMOOTH",
"765 133 OFFCURVE",
"762 138 OFFCURVE",
"756 138 CURVE SMOOTH",
"743 138 OFFCURVE",
"716 117 OFFCURVE",
"688 117 CURVE SMOOTH",
"665 117 OFFCURVE",
"621 138 OFFCURVE",
"621 158 CURVE SMOOTH",
"621 198 OFFCURVE",
"718 241 OFFCURVE",
"718 262 CURVE SMOOTH",
"718 282 OFFCURVE",
"671 342 OFFCURVE",
"645 361 CURVE",
"657 371 OFFCURVE",
"671 387 OFFCURVE",
"671 395 CURVE SMOOTH",
"671 411 OFFCURVE",
"620 463 OFFCURVE",
"603 463 CURVE SMOOTH",
"595 463 OFFCURVE",
"586 451 OFFCURVE",
"575 439 CURVE SMOOTH",
"552 414 OFFCURVE",
"467 366 OFFCURVE",
"446 353 CURVE",
"434 207 LINE"
);
},
{
closed = 1;
nodes = (
"0 606 LINE",
"-29 606 OFFCURVE",
"-42 609 OFFCURVE",
"-49 587 CURVE SMOOTH",
"-65 534 LINE SMOOTH",
"-70 519 OFFCURVE",
"-63 512 OFFCURVE",
"-44 512 CURVE SMOOTH",
"780 512 LINE",
"809 512 OFFCURVE",
"822 509 OFFCURVE",
"829 531 CURVE SMOOTH",
"846 584 LINE SMOOTH",
"851 599 OFFCURVE",
"844 606 OFFCURVE",
"825 606 CURVE SMOOTH"
);
},
{
closed = 1;
nodes = (
"344 541 LINE",
"344 541 OFFCURVE",
"310 162 OFFCURVE",
"296 56 CURVE SMOOTH",
"290 14 OFFCURVE",
"285 -21 OFFCURVE",
"316 -21 CURVE SMOOTH",
"357 -21 OFFCURVE",
"419 107 OFFCURVE",
"423 174 CURVE SMOOTH",
"434 361 OFFCURVE",
"457 538 OFFCURVE",
"457 538 CURVE"
);
},
{
closed = 1;
nodes = (
"412 238 LINE",
"412 336 OFFCURVE",
"245 461 OFFCURVE",
"175 461 CURVE SMOOTH",
"127 461 OFFCURVE",
"76 390 OFFCURVE",
"76 352 CURVE SMOOTH",
"76 344 OFFCURVE",
"78 328 OFFCURVE",
"85 328 CURVE SMOOTH",
"94 328 OFFCURVE",
"103 353 OFFCURVE",
"118 353 CURVE SMOOTH",
"170 353 OFFCURVE",
"323 323 OFFCURVE",
"319 273 CURVE SMOOTH",
"318 255 OFFCURVE",
"317 247 OFFCURVE",
"316 238 CURVE"
);
},
{
closed = 1;
nodes = (
"174 40 OFFCURVE",
"346 164 OFFCURVE",
"422 263 CURVE",
"319 266 LINE",
"280 241 OFFCURVE",
"143 159 OFFCURVE",
"108 159 CURVE SMOOTH",
"95 159 OFFCURVE",
"88 175 OFFCURVE",
"76 175 CURVE SMOOTH",
"70 175 OFFCURVE",
"69 168 OFFCURVE",
"69 163 CURVE SMOOTH",
"69 111 OFFCURVE",
"105 40 OFFCURVE",
"133 40 CURVE SMOOTH"
);
},
{
closed = 1;
nodes = (
"455 236 OFFCURVE",
"538 283 OFFCURVE",
"568 313 CURVE",
"578 307 OFFCURVE",
"601 283 OFFCURVE",
"609 273 CURVE",
"561 238 OFFCURVE",
"523 197 OFFCURVE",
"523 155 CURVE SMOOTH",
"523 83 OFFCURVE",
"607 19 OFFCURVE",
"656 19 CURVE SMOOTH",
"695 19 OFFCURVE",
"750 80 OFFCURVE",
"750 116 CURVE SMOOTH",
"750 126 OFFCURVE",
"747 130 OFFCURVE",
"742 130 CURVE SMOOTH",
"731 130 OFFCURVE",
"712 108 OFFCURVE",
"687 108 CURVE SMOOTH",
"671 108 OFFCURVE",
"611 128 OFFCURVE",
"611 158 CURVE SMOOTH",
"611 198 OFFCURVE",
"708 251 OFFCURVE",
"708 264 CURVE SMOOTH",
"708 286 OFFCURVE",
"643 352 OFFCURVE",
"632 360 CURVE",
"644 370 OFFCURVE",
"660 386 OFFCURVE",
"660 394 CURVE SMOOTH",
"660 407 OFFCURVE",
"620 450 OFFCURVE",
"606 450 CURVE SMOOTH",
"598 450 OFFCURVE",
"586 437 OFFCURVE",
"575 425 CURVE SMOOTH",
"552 400 OFFCURVE",
"447 340 OFFCURVE",
"426 327 CURVE",
"414 206 LINE"
);
}
);
};
layerId = "B0B60A8F-2DEB-4A58-A43B-60A0DADABD8F";
paths = (
{
closed = 1;
nodes = (
"-70 519 OFFCURVE",
"-63 512 OFFCURVE",
"-44 512 CURVE SMOOTH",
"341 512 LINE",
"329 378 LINE",
"277 426 OFFCURVE",
"212 461 OFFCURVE",
"175 461 CURVE SMOOTH",
"127 461 OFFCURVE",
"76 390 OFFCURVE",
"76 352 CURVE SMOOTH",
"76 344 OFFCURVE",
"78 328 OFFCURVE",
"85 328 CURVE SMOOTH",
"94 328 OFFCURVE",
"103 353 OFFCURVE",
"118 353 CURVE SMOOTH",
"212 353 OFFCURVE",
"322 303 OFFCURVE",
"318 266 CURVE",
"278 240 OFFCURVE",
"143 159 OFFCURVE",
"108 159 CURVE SMOOTH",
"95 159 OFFCURVE",
"88 175 OFFCURVE",
"76 175 CURVE SMOOTH",
"70 175 OFFCURVE",
"69 168 OFFCURVE",
"69 163 CURVE SMOOTH",
"69 111 OFFCURVE",
"105 40 OFFCURVE",
"133 40 CURVE SMOOTH",
"158 40 OFFCURVE",
"234 88 OFFCURVE",
"306 148 CURVE",
"302 110 OFFCURVE",
"299 77 OFFCURVE",
"296 56 CURVE SMOOTH",
"290 14 OFFCURVE",
"285 -21 OFFCURVE",
"316 -21 CURVE SMOOTH",
"357 -21 OFFCURVE",
"418 107 OFFCURVE",
"423 174 CURVE SMOOTH",
"426 214 LINE",
"469 244 OFFCURVE",
"541 286 OFFCURVE",
"568 313 CURVE",
"578 307 OFFCURVE",
"601 283 OFFCURVE",
"609 273 CURVE",
"561 238 OFFCURVE",
"523 197 OFFCURVE",
"523 155 CURVE SMOOTH",
"523 83 OFFCURVE",
"607 19 OFFCURVE",
"656 19 CURVE SMOOTH",
"695 19 OFFCURVE",
"750 80 OFFCURVE",
"750 116 CURVE SMOOTH",
"750 126 OFFCURVE",
"747 130 OFFCURVE",
"742 130 CURVE SMOOTH",
"731 130 OFFCURVE",
"712 108 OFFCURVE",
"687 108 CURVE SMOOTH",
"671 108 OFFCURVE",
"611 128 OFFCURVE",
"611 158 CURVE SMOOTH",
"611 198 OFFCURVE",
"708 251 OFFCURVE",
"708 264 CURVE SMOOTH",
"708 286 OFFCURVE",
"643 352 OFFCURVE",
"632 360 CURVE",
"644 370 OFFCURVE",
"660 386 OFFCURVE",
"660 394 CURVE SMOOTH",
"660 407 OFFCURVE",
"620 450 OFFCURVE",
"606 450 CURVE SMOOTH",
"598 450 OFFCURVE",
"586 437 OFFCURVE",
"575 425 CURVE SMOOTH",
"554 403 OFFCURVE",
"468 352 OFFCURVE",
"435 332 CURVE",
"442 412 OFFCURVE",
"450 478 OFFCURVE",
"454 512 CURVE",
"780 512 LINE",
"809 512 OFFCURVE",
"822 509 OFFCURVE",
"829 531 CURVE SMOOTH",
"846 584 LINE SMOOTH",
"851 599 OFFCURVE",
"844 606 OFFCURVE",
"825 606 CURVE SMOOTH",
"0 606 LINE",
"-29 606 OFFCURVE",
"-42 609 OFFCURVE",
"-49 587 CURVE SMOOTH",
"-65 534 LINE SMOOTH"
);
}
);
width = 780;
},
{
layerId = "C23C635F-568C-40B7-8839-28DDBF9C11D0";
paths = (
{
closed = 1;
nodes = (
"-61 517 OFFCURVE",
"-54 510 OFFCURVE",
"-35 510 CURVE SMOOTH",
"341 510 LINE",
"331 396 LINE",
"279 443 OFFCURVE",
"216 477 OFFCURVE",
"175 477 CURVE SMOOTH",
"120 477 OFFCURVE",
"64 392 OFFCURVE",
"64 347 CURVE SMOOTH",
"64 336 OFFCURVE",
"71 320 OFFCURVE",
"78 320 CURVE SMOOTH",
"87 320 OFFCURVE",
"99 348 OFFCURVE",
"114 348 CURVE SMOOTH",
"183 348 OFFCURVE",
"323 315 OFFCURVE",
"319 273 CURVE",
"279 248 OFFCURVE",
"133 167 OFFCURVE",
"98 167 CURVE SMOOTH",
"85 167 OFFCURVE",
"76 185 OFFCURVE",
"64 185 CURVE SMOOTH",
"58 185 OFFCURVE",
"57 178 OFFCURVE",
"57 173 CURVE SMOOTH",
"57 121 OFFCURVE",
"97 29 OFFCURVE",
"130 29 CURVE SMOOTH",
"153 29 OFFCURVE",
"231 75 OFFCURVE",
"305 134 CURVE",
"302 108 OFFCURVE",
"300 85 OFFCURVE",
"297 62 CURVE SMOOTH",
"293 25 OFFCURVE",
"283 -23 OFFCURVE",
"321 -23 CURVE SMOOTH",
"381 -23 OFFCURVE",
"440 107 OFFCURVE",
"444 174 CURVE SMOOTH",
"447 218 LINE",
"487 246 OFFCURVE",
"540 277 OFFCURVE",
"566 303 CURVE",
"576 297 OFFCURVE",
"589 285 OFFCURVE",
"597 275 CURVE",
"549 240 OFFCURVE",
"515 197 OFFCURVE",
"515 155 CURVE SMOOTH",
"515 83 OFFCURVE",
"596 11 OFFCURVE",
"656 11 CURVE SMOOTH",
"714 11 OFFCURVE",
"763 81 OFFCURVE",
"763 122 CURVE SMOOTH",
"763 132 OFFCURVE",
"760 137 OFFCURVE",
"754 137 CURVE SMOOTH",
"741 137 OFFCURVE",
"715 116 OFFCURVE",
"688 116 CURVE SMOOTH",
"666 116 OFFCURVE",
"619 136 OFFCURVE",
"619 158 CURVE SMOOTH",
"619 198 OFFCURVE",
"716 243 OFFCURVE",
"716 262 CURVE SMOOTH",
"716 283 OFFCURVE",
"666 344 OFFCURVE",
"643 361 CURVE",
"655 371 OFFCURVE",
"669 387 OFFCURVE",
"669 395 CURVE SMOOTH",
"669 410 OFFCURVE",
"620 461 OFFCURVE",
"604 461 CURVE SMOOTH",
"596 461 OFFCURVE",
"586 449 OFFCURVE",
"575 437 CURVE SMOOTH",
"556 416 OFFCURVE",
"492 378 OFFCURVE",
"459 359 CURVE",
"465 413 OFFCURVE",
"469 464 OFFCURVE",
"474 510 CURVE",
"810 510 LINE",
"842 510 OFFCURVE",
"852 508 OFFCURVE",
"859 529 CURVE SMOOTH",
"883 603 LINE SMOOTH",
"888 618 OFFCURVE",
"881 625 OFFCURVE",
"862 625 CURVE SMOOTH",
"0 625 LINE",
"-17 625 OFFCURVE",
"-27 624 OFFCURVE",
"-32 606 CURVE SMOOTH",
"-56 532 LINE SMOOTH"
);
}
);
width = 810;
}
);
unicode = 0960;
},
{
glyphname = "lVocalic-deva";
lastChange = "2022-01-25 11:12:51 +0000";
layers = (
{
background = {
paths = (
{
closed = 1;
nodes = (
"-59 519 OFFCURVE",
"-52 512 OFFCURVE",
"-33 512 CURVE SMOOTH",
"650 512 LINE",
"641 422 LINE",
"612 442 OFFCURVE",
"577 454 OFFCURVE",
"540 454 CURVE SMOOTH",
"478 454 OFFCURVE",
"414 412 OFFCURVE",
"399 400 CURVE",
"382 416 OFFCURVE",
"327 462 OFFCURVE",
"255 462 CURVE SMOOTH",
"142 462 OFFCURVE",
"40 346 OFFCURVE",
"40 237 CURVE SMOOTH",
"40 125 OFFCURVE",
"163 32 OFFCURVE",
"211 32 CURVE SMOOTH",
"240 32 OFFCURVE",
"300 109 OFFCURVE",
"300 156 CURVE SMOOTH",
"300 164 OFFCURVE",
"297 169 OFFCURVE",
"291 169 CURVE SMOOTH",
"281 169 OFFCURVE",
"263 146 OFFCURVE",
"251 146 CURVE SMOOTH",
"214 146 OFFCURVE",
"151 206 OFFCURVE",
"151 251 CURVE SMOOTH",
"151 315 OFFCURVE",
"207 374 OFFCURVE",
"255 374 CURVE SMOOTH",
"327 374 OFFCURVE",
"361 231 OFFCURVE",
"385 231 CURVE SMOOTH",
"408 231 OFFCURVE",
"474 250 OFFCURVE",
"473 267 CURVE SMOOTH",
"472 283 OFFCURVE",
"467 299 OFFCURVE",
"467 318 CURVE SMOOTH",
"467 335 OFFCURVE",
"522 363 OFFCURVE",
"551 363 CURVE SMOOTH",
"599 363 OFFCURVE",
"632 280 OFFCURVE",
"632 234 CURVE SMOOTH",
"632 181 OFFCURVE",
"538 135 OFFCURVE",
"538 116 CURVE SMOOTH",
"538 100 OFFCURVE",
"587 37 OFFCURVE",
"608 37 CURVE SMOOTH",
"627 37 OFFCURVE",
"741 121 OFFCURVE",
"741 223 CURVE SMOOTH",
"741 270 OFFCURVE",
"728 315 OFFCURVE",
"706 352 CURVE",
"744 399 OFFCURVE",
"755 439 OFFCURVE",
"760 512 CURVE",
"814 512 LINE SMOOTH",
"843 512 OFFCURVE",
"856 509 OFFCURVE",
"863 531 CURVE SMOOTH",
"880 584 LINE SMOOTH",
"885 599 OFFCURVE",
"878 606 OFFCURVE",
"859 606 CURVE SMOOTH",
"0 606 LINE SMOOTH",
"-18 606 OFFCURVE",
"-31 609 OFFCURVE",
"-38 587 CURVE SMOOTH",
"-54 534 LINE SMOOTH"
);
}
);
};
layerId = "B0B60A8F-2DEB-4A58-A43B-60A0DADABD8F";
paths = (
{
closed = 1;
nodes = (
"-59 519 OFFCURVE",
"-52 512 OFFCURVE",
"-33 512 CURVE SMOOTH",
"607 512 LINE",
"598 422 LINE",
"569 442 OFFCURVE",
"534 454 OFFCURVE",
"497 454 CURVE SMOOTH",
"435 454 OFFCURVE",
"391 412 OFFCURVE",
"376 400 CURVE",
"359 416 OFFCURVE",
"304 462 OFFCURVE",
"232 462 CURVE SMOOTH",
"119 462 OFFCURVE",
"22 346 OFFCURVE",
"22 237 CURVE SMOOTH",
"22 125 OFFCURVE",
"145 32 OFFCURVE",
"193 32 CURVE SMOOTH",
"222 32 OFFCURVE",
"282 109 OFFCURVE",
"282 156 CURVE SMOOTH",
"282 164 OFFCURVE",
"279 169 OFFCURVE",
"273 169 CURVE SMOOTH",
"263 169 OFFCURVE",
"245 146 OFFCURVE",
"233 146 CURVE SMOOTH",
"196 146 OFFCURVE",
"133 206 OFFCURVE",
"133 251 CURVE SMOOTH",
"133 315 OFFCURVE",
"184 374 OFFCURVE",
"232 374 CURVE SMOOTH",
"304 374 OFFCURVE",
"338 231 OFFCURVE",
"362 231 CURVE SMOOTH",
"385 231 OFFCURVE",
"451 250 OFFCURVE",
"450 267 CURVE SMOOTH",
"449 283 OFFCURVE",
"444 299 OFFCURVE",
"444 318 CURVE SMOOTH",
"444 335 OFFCURVE",
"479 363 OFFCURVE",
"508 363 CURVE SMOOTH",
"551 363 OFFCURVE",
"583 293 OFFCURVE",
"583 264 CURVE SMOOTH",
"583 222 OFFCURVE",
"451 190 OFFCURVE",
"451 118 CURVE SMOOTH",
"451 46 OFFCURVE",
"538 -47 OFFCURVE",
"587 -47 CURVE SMOOTH",
"626 -47 OFFCURVE",
"674 17 OFFCURVE",
"674 53 CURVE SMOOTH",
"674 63 OFFCURVE",
"671 67 OFFCURVE",
"666 67 CURVE SMOOTH",
"655 67 OFFCURVE",
"634 42 OFFCURVE",
"618 42 CURVE SMOOTH",
"602 42 OFFCURVE",
"551 83 OFFCURVE",
"551 106 CURVE SMOOTH",
"551 132 OFFCURVE",
"691 181 OFFCURVE",
"691 264 CURVE SMOOTH",
"691 290 OFFCURVE",
"684 315 OFFCURVE",
"663 352 CURVE",
"701 399 OFFCURVE",
"712 439 OFFCURVE",
"717 512 CURVE",
"771 512 LINE SMOOTH",
"800 512 OFFCURVE",
"813 509 OFFCURVE",
"820 531 CURVE SMOOTH",
"837 584 LINE SMOOTH",
"842 599 OFFCURVE",
"835 606 OFFCURVE",
"816 606 CURVE SMOOTH",
"0 606 LINE SMOOTH",
"-18 606 OFFCURVE",
"-31 609 OFFCURVE",
"-38 587 CURVE SMOOTH",
"-54 534 LINE SMOOTH"
);
}
);
width = 771;
},
{
background = {
paths = (
{
closed = 1;
nodes = (
"-59 519 OFFCURVE",
"-52 512 OFFCURVE",
"-33 512 CURVE SMOOTH",
"607 512 LINE",
"598 422 LINE",
"569 442 OFFCURVE",
"534 454 OFFCURVE",
"497 454 CURVE SMOOTH",
"435 454 OFFCURVE",
"391 412 OFFCURVE",
"376 400 CURVE",
"359 416 OFFCURVE",
"304 462 OFFCURVE",
"232 462 CURVE SMOOTH",
"119 462 OFFCURVE",
"22 346 OFFCURVE",
"22 237 CURVE SMOOTH",
"22 125 OFFCURVE",
"145 32 OFFCURVE",
"193 32 CURVE SMOOTH",
"222 32 OFFCURVE",
"282 109 OFFCURVE",
"282 156 CURVE SMOOTH",
"282 164 OFFCURVE",
"279 169 OFFCURVE",
"273 169 CURVE SMOOTH",
"263 169 OFFCURVE",
"245 146 OFFCURVE",
"233 146 CURVE SMOOTH",
"196 146 OFFCURVE",
"133 206 OFFCURVE",
"133 251 CURVE SMOOTH",
"133 315 OFFCURVE",
"184 374 OFFCURVE",
"232 374 CURVE SMOOTH",
"304 374 OFFCURVE",
"338 231 OFFCURVE",
"362 231 CURVE SMOOTH",
"385 231 OFFCURVE",
"451 250 OFFCURVE",
"450 267 CURVE SMOOTH",
"449 283 OFFCURVE",
"444 299 OFFCURVE",
"444 318 CURVE SMOOTH",
"444 335 OFFCURVE",
"479 363 OFFCURVE",
"508 363 CURVE SMOOTH",
"551 363 OFFCURVE",
"583 293 OFFCURVE",
"583 264 CURVE SMOOTH",
"583 222 OFFCURVE",
"451 190 OFFCURVE",
"451 118 CURVE SMOOTH",
"451 46 OFFCURVE",
"538 -47 OFFCURVE",
"587 -47 CURVE SMOOTH",
"626 -47 OFFCURVE",
"674 17 OFFCURVE",
"674 53 CURVE SMOOTH",
"674 63 OFFCURVE",
"671 67 OFFCURVE",
"666 67 CURVE SMOOTH",
"655 67 OFFCURVE",
"634 42 OFFCURVE",
"618 42 CURVE SMOOTH",
"602 42 OFFCURVE",
"551 83 OFFCURVE",
"551 106 CURVE SMOOTH",
"551 132 OFFCURVE",
"691 181 OFFCURVE",
"691 264 CURVE SMOOTH",
"691 290 OFFCURVE",
"684 315 OFFCURVE",
"663 352 CURVE",
"701 399 OFFCURVE",
"712 439 OFFCURVE",
"717 512 CURVE",
"771 512 LINE SMOOTH",
"800 512 OFFCURVE",
"813 509 OFFCURVE",
"820 531 CURVE SMOOTH",
"837 584 LINE SMOOTH",
"842 599 OFFCURVE",
"835 606 OFFCURVE",
"816 606 CURVE SMOOTH",
"0 606 LINE SMOOTH",
"-18 606 OFFCURVE",
"-31 609 OFFCURVE",
"-38 587 CURVE SMOOTH",
"-54 534 LINE SMOOTH"
);
}
);
};
layerId = "C23C635F-568C-40B7-8839-28DDBF9C11D0";
paths = (
{
closed = 1;
nodes = (
"-60 517 OFFCURVE",
"-53 510 OFFCURVE",
"-34 510 CURVE SMOOTH",
"600 510 LINE",
"591 424 LINE",
"561 443 OFFCURVE",
"528 454 OFFCURVE",
"497 454 CURVE SMOOTH",
"435 454 OFFCURVE",
"388 412 OFFCURVE",
"373 400 CURVE",
"356 416 OFFCURVE",
"301 462 OFFCURVE",
"229 462 CURVE SMOOTH",
"116 462 OFFCURVE",
"14 346 OFFCURVE",
"14 237 CURVE SMOOTH",
"14 125 OFFCURVE",
"130 24 OFFCURVE",
"185 24 CURVE SMOOTH",
"220 24 OFFCURVE",
"284 104 OFFCURVE",
"284 153 CURVE SMOOTH",
"284 170 OFFCURVE",
"281 181 OFFCURVE",
"275 181 CURVE SMOOTH",
"265 181 OFFCURVE",
"247 158 OFFCURVE",
"235 158 CURVE SMOOTH",
"202 158 OFFCURVE",
"142 212 OFFCURVE",
"142 251 CURVE SMOOTH",
"142 302 OFFCURVE",
"189 357 OFFCURVE",
"229 357 CURVE SMOOTH",
"301 357 OFFCURVE",
"332 214 OFFCURVE",
"359 214 CURVE SMOOTH",
"382 214 OFFCURVE",
"457 234 OFFCURVE",
"456 253 CURVE SMOOTH",
"455 269 OFFCURVE",
"450 285 OFFCURVE",
"450 302 CURVE SMOOTH",
"450 318 OFFCURVE",
"479 346 OFFCURVE",
"508 346 CURVE SMOOTH",
"538 346 OFFCURVE",
"570 291 OFFCURVE",
"570 262 CURVE SMOOTH",
"570 232 OFFCURVE",
"440 199 OFFCURVE",
"440 118 CURVE SMOOTH",
"440 40 OFFCURVE",
"534 -60 OFFCURVE",
"587 -60 CURVE SMOOTH",
"630 -60 OFFCURVE",
"678 16 OFFCURVE",
"678 53 CURVE SMOOTH",
"678 64 OFFCURVE",
"674 71 OFFCURVE",
"666 71 CURVE SMOOTH",
"656 71 OFFCURVE",
"633 49 OFFCURVE",
"618 49 CURVE SMOOTH",
"604 49 OFFCURVE",
"561 88 OFFCURVE",
"561 106 CURVE SMOOTH",
"561 126 OFFCURVE",
"703 175 OFFCURVE",
"703 264 CURVE SMOOTH",
"703 293 OFFCURVE",
"695 315 OFFCURVE",
"671 352 CURVE",
"709 398 OFFCURVE",
"720 437 OFFCURVE",
"725 510 CURVE",
"795 510 LINE SMOOTH",
"827 510 OFFCURVE",
"837 508 OFFCURVE",
"844 529 CURVE SMOOTH",
"868 603 LINE SMOOTH",
"873 618 OFFCURVE",
"866 625 OFFCURVE",
"847 625 CURVE SMOOTH",
"0 625 LINE SMOOTH",
"-16 625 OFFCURVE",
"-25 624 OFFCURVE",
"-31 606 CURVE SMOOTH",
"-55 532 LINE SMOOTH"
);
}
);
width = 795;
}
);
unicode = 090C;
},
{
glyphname = "llVocalic-deva";
lastChange = "2022-01-25 11:55:20 +0000";
layers = (
{
layerId = "B0B60A8F-2DEB-4A58-A43B-60A0DADABD8F";
paths = (
{
closed = 1;
nodes = (
"-59 519 OFFCURVE",
"-52 512 OFFCURVE",
"-33 512 CURVE SMOOTH",
"607 512 LINE",
"598 422 LINE",
"569 442 OFFCURVE",
"534 454 OFFCURVE",
"497 454 CURVE SMOOTH",
"435 454 OFFCURVE",
"391 412 OFFCURVE",
"376 400 CURVE",
"359 416 OFFCURVE",
"304 462 OFFCURVE",
"232 462 CURVE SMOOTH",
"119 462 OFFCURVE",
"22 346 OFFCURVE",
"22 237 CURVE SMOOTH",
"22 125 OFFCURVE",
"145 32 OFFCURVE",
"193 32 CURVE SMOOTH",
"222 32 OFFCURVE",
"282 109 OFFCURVE",
"282 156 CURVE SMOOTH",
"282 164 OFFCURVE",
"279 169 OFFCURVE",
"273 169 CURVE SMOOTH",
"263 169 OFFCURVE",
"245 146 OFFCURVE",
"233 146 CURVE SMOOTH",
"196 146 OFFCURVE",
"133 206 OFFCURVE",
"133 251 CURVE SMOOTH",
"133 315 OFFCURVE",
"184 374 OFFCURVE",
"232 374 CURVE SMOOTH",
"304 374 OFFCURVE",
"338 231 OFFCURVE",
"362 231 CURVE SMOOTH",
"385 231 OFFCURVE",
"451 250 OFFCURVE",
"450 267 CURVE SMOOTH",
"449 283 OFFCURVE",
"444 299 OFFCURVE",
"444 318 CURVE SMOOTH",
"444 335 OFFCURVE",
"479 363 OFFCURVE",
"508 363 CURVE SMOOTH",
"551 363 OFFCURVE",
"583 293 OFFCURVE",
"583 264 CURVE SMOOTH",
"583 228 OFFCURVE",
"451 191 OFFCURVE",
"451 145 CURVE SMOOTH",
"451 113 OFFCURVE",
"480 66 OFFCURVE",
"510 34 CURVE",
"471 6 OFFCURVE",
"442 -22 OFFCURVE",
"442 -42 CURVE SMOOTH",
"442 -96 OFFCURVE",
"582 -236 OFFCURVE",
"646 -236 CURVE SMOOTH",
"685 -236 OFFCURVE",
"730 -160 OFFCURVE",
"730 -126 CURVE SMOOTH",
"730 -101 OFFCURVE",
"724 -87 OFFCURVE",
"717 -87 CURVE SMOOTH",
"708 -87 OFFCURVE",
"698 -123 OFFCURVE",
"683 -123 CURVE SMOOTH",
"654 -123 OFFCURVE",
"559 -68 OFFCURVE",
"559 -45 CURVE SMOOTH",
"559 -20 OFFCURVE",
"699 29 OFFCURVE",
"699 47 CURVE SMOOTH",
"699 61 OFFCURVE",
"683 99 OFFCURVE",
"671 99 CURVE SMOOTH",
"658 99 OFFCURVE",
"631 88 OFFCURVE",
"610 78 CURVE",
"594 78 OFFCURVE",
"551 114 OFFCURVE",
"551 126 CURVE SMOOTH",
"551 152 OFFCURVE",
"691 181 OFFCURVE",
"691 264 CURVE SMOOTH",
"691 290 OFFCURVE",
"684 315 OFFCURVE",
"663 352 CURVE",
"701 399 OFFCURVE",
"712 439 OFFCURVE",
"717 512 CURVE",
"771 512 LINE SMOOTH",
"800 512 OFFCURVE",
"813 509 OFFCURVE",
"820 531 CURVE SMOOTH",
"837 584 LINE SMOOTH",
"842 599 OFFCURVE",
"835 606 OFFCURVE",
"816 606 CURVE SMOOTH",
"0 606 LINE SMOOTH",
"-18 606 OFFCURVE",
"-31 609 OFFCURVE",
"-38 587 CURVE SMOOTH",
"-54 534 LINE SMOOTH"
);
}
);
width = 771;
},
{
layerId = "C23C635F-568C-40B7-8839-28DDBF9C11D0";
paths = (
{
closed = 1;
nodes = (
"-60 517 OFFCURVE",
"-53 510 OFFCURVE",
"-34 510 CURVE SMOOTH",
"600 510 LINE",
"591 424 LINE",
"561 443 OFFCURVE",
"528 454 OFFCURVE",
"497 454 CURVE SMOOTH",
"435 454 OFFCURVE",
"388 412 OFFCURVE",
"373 400 CURVE",
"356 416 OFFCURVE",
"301 462 OFFCURVE",
"229 462 CURVE SMOOTH",
"116 462 OFFCURVE",
"14 346 OFFCURVE",
"14 237 CURVE SMOOTH",
"14 125 OFFCURVE",
"130 24 OFFCURVE",
"185 24 CURVE SMOOTH",
"220 24 OFFCURVE",
"284 104 OFFCURVE",
"284 153 CURVE SMOOTH",
"284 170 OFFCURVE",
"281 181 OFFCURVE",
"275 181 CURVE SMOOTH",
"265 181 OFFCURVE",
"247 158 OFFCURVE",
"235 158 CURVE SMOOTH",
"202 158 OFFCURVE",
"142 212 OFFCURVE",
"142 251 CURVE SMOOTH",
"142 302 OFFCURVE",
"189 357 OFFCURVE",
"229 357 CURVE SMOOTH",
"301 357 OFFCURVE",
"332 214 OFFCURVE",
"359 214 CURVE SMOOTH",
"382 214 OFFCURVE",
"457 234 OFFCURVE",
"456 253 CURVE SMOOTH",
"455 269 OFFCURVE",
"450 285 OFFCURVE",
"450 302 CURVE SMOOTH",
"450 318 OFFCURVE",
"479 346 OFFCURVE",
"508 346 CURVE SMOOTH",
"538 346 OFFCURVE",
"570 291 OFFCURVE",
"570 262 CURVE SMOOTH",
"570 232 OFFCURVE",
"441 203 OFFCURVE",
"441 145 CURVE SMOOTH",
"441 108 OFFCURVE",
"471 66 OFFCURVE",
"497 36 CURVE",
"466 13 OFFCURVE",
"432 -17 OFFCURVE",
"432 -42 CURVE SMOOTH",
"432 -104 OFFCURVE",
"577 -247 OFFCURVE",
"646 -247 CURVE SMOOTH",
"684 -247 OFFCURVE",
"736 -165 OFFCURVE",
"736 -126 CURVE SMOOTH",
"736 -102 OFFCURVE",
"728 -78 OFFCURVE",
"717 -78 CURVE SMOOTH",
"706 -78 OFFCURVE",
"698 -113 OFFCURVE",
"683 -113 CURVE SMOOTH",
"661 -113 OFFCURVE",
"570 -67 OFFCURVE",
"570 -45 CURVE SMOOTH",
"570 -20 OFFCURVE",
"706 23 OFFCURVE",
"706 47 CURVE SMOOTH",
"706 62 OFFCURVE",
"686 109 OFFCURVE",
"671 109 CURVE SMOOTH",
"658 109 OFFCURVE",
"625 94 OFFCURVE",
"610 88 CURVE",
"596 88 OFFCURVE",
"561 113 OFFCURVE",
"561 126 CURVE SMOOTH",
"561 143 OFFCURVE",
"703 175 OFFCURVE",
"703 264 CURVE SMOOTH",
"703 293 OFFCURVE",
"695 315 OFFCURVE",
"671 352 CURVE",
"709 398 OFFCURVE",
"720 437 OFFCURVE",
"725 510 CURVE",
"795 510 LINE SMOOTH",
"827 510 OFFCURVE",
"837 508 OFFCURVE",
"844 529 CURVE SMOOTH",
"868 603 LINE SMOOTH",
"873 618 OFFCURVE",
"866 625 OFFCURVE",
"847 625 CURVE SMOOTH",
"0 625 LINE SMOOTH",
"-16 625 OFFCURVE",
"-25 624 OFFCURVE",
"-31 606 CURVE SMOOTH",
"-55 532 LINE SMOOTH"
);
}
);
width = 795;
}
);
unicode = 0961;
},
{
glyphname = "e-deva";
lastChange = "2022-01-18 13:57:14 +0000";
layers = (
{
background = {
paths = (
{
closed = 1;
nodes = (
"0 629 LINE",
"-15 629 OFFCURVE",
"-25 627 OFFCURVE",
"-30 610 CURVE SMOOTH",
"-55 532 LINE SMOOTH",
"-60 517 OFFCURVE",
"-53 510 OFFCURVE",
"-34 510 CURVE SMOOTH",
"600 510 LINE",
"632 510 OFFCURVE",
"642 508 OFFCURVE",
"649 529 CURVE SMOOTH",
"674 607 LINE SMOOTH",
"679 622 OFFCURVE",
"672 629 OFFCURVE",
"653 629 CURVE SMOOTH"
);
},
{
closed = 1;
nodes = (
"425 512 OFFCURVE",
"424 484 OFFCURVE",
"421 449 CURVE SMOOTH",
"415 381 OFFCURVE",
"384 324 OFFCURVE",
"367 324 CURVE SMOOTH",
"355 324 OFFCURVE",
"337 341 OFFCURVE",
"328 341 CURVE SMOOTH",
"320 341 OFFCURVE",
"319 327 OFFCURVE",
"319 318 CURVE SMOOTH",
"319 287 OFFCURVE",
"387 211 OFFCURVE",
"449 211 CURVE SMOOTH",
"490 211 OFFCURVE",
"532 311 OFFCURVE",
"536 425 CURVE SMOOTH",
"537 454 OFFCURVE",
"537 497 OFFCURVE",
"535 531 CURVE",
"535 531 OFFCURVE",
"440 531 OFFCURVE",
"425 531 CURVE"
);
},
{
closed = 1;
nodes = (
"198 339 OFFCURVE",
"211 445 OFFCURVE",
"222 540 CURVE",
"84 540 LINE",
"77 467 OFFCURVE",
"64 354 OFFCURVE",
"64 308 CURVE SMOOTH",
"64 254 OFFCURVE",
"80 220 OFFCURVE",
"116 182 CURVE SMOOTH",
"187 106 OFFCURVE",
"359 9 OFFCURVE",
"359 -29 CURVE SMOOTH",
"359 -40 OFFCURVE",
"338 -57 OFFCURVE",
"338 -66 CURVE SMOOTH",
"338 -73 OFFCURVE",
"351 -75 OFFCURVE",
"363 -75 CURVE SMOOTH",
"411 -75 OFFCURVE",
"478 21 OFFCURVE",
"478 72 CURVE SMOOTH",
"478 120 OFFCURVE",
"284 206 OFFCURVE",
"229 250 CURVE SMOOTH",
"204 269 OFFCURVE",
"198 284 OFFCURVE",
"198 315 CURVE SMOOTH"
);
},
{
closed = 1;
nodes = (
"435 512 OFFCURVE",
"434 484 OFFCURVE",
"431 449 CURVE SMOOTH",
"425 381 OFFCURVE",
"393 322 OFFCURVE",
"374 322 CURVE SMOOTH",
"358 322 OFFCURVE",
"344 336 OFFCURVE",
"337 336 CURVE SMOOTH",
"331 336 OFFCURVE",
"329 328 OFFCURVE",
"329 317 CURVE SMOOTH",
"329 282 OFFCURVE",
"398 221 OFFCURVE",
"442 221 CURVE SMOOTH",
"482 221 OFFCURVE",
"522 326 OFFCURVE",
"526 425 CURVE SMOOTH",
"527 454 OFFCURVE",
"527 497 OFFCURVE",
"525 531 CURVE",
"525 531 OFFCURVE",
"450 531 OFFCURVE",
"435 531 CURVE"
);
},
{
closed = 1;
nodes = (
"186 339 OFFCURVE",
"199 445 OFFCURVE",
"210 540 CURVE",
"97 540 LINE",
"90 467 OFFCURVE",
"77 354 OFFCURVE",
"77 308 CURVE SMOOTH",
"77 263 OFFCURVE",
"91 221 OFFCURVE",
"130 183 CURVE SMOOTH",
"199 116 OFFCURVE",
"365 21 OFFCURVE",
"365 -17 CURVE SMOOTH",
"365 -28 OFFCURVE",
"345 -47 OFFCURVE",
"345 -56 CURVE SMOOTH",
"345 -63 OFFCURVE",
"356 -65 OFFCURVE",
"366 -65 CURVE SMOOTH",
"407 -65 OFFCURVE",
"465 21 OFFCURVE",
"465 67 CURVE SMOOTH",
"465 109 OFFCURVE",
"272 200 OFFCURVE",
"217 244 CURVE SMOOTH",
"192 263 OFFCURVE",
"186 284 OFFCURVE",
"186 315 CURVE SMOOTH"
);
},
{
closed = 1;
nodes = (
"0 606 LINE",
"-29 606 OFFCURVE",
"-42 609 OFFCURVE",
"-49 587 CURVE SMOOTH",
"-65 534 LINE SMOOTH",
"-70 519 OFFCURVE",
"-63 512 OFFCURVE",
"-44 512 CURVE SMOOTH",
"580 512 LINE",
"609 512 OFFCURVE",
"622 509 OFFCURVE",
"629 531 CURVE SMOOTH",
"646 584 LINE SMOOTH",
"651 599 OFFCURVE",
"644 606 OFFCURVE",
"625 606 CURVE SMOOTH"
);
}
);
};
layerId = "B0B60A8F-2DEB-4A58-A43B-60A0DADABD8F";
paths = (
{
closed = 1;
nodes = (
"-70 519 OFFCURVE",
"-63 512 OFFCURVE",
"-44 512 CURVE SMOOTH",
"94 512 LINE",
"87 441 OFFCURVE",
"77 348 OFFCURVE",
"77 308 CURVE SMOOTH",
"77 263 OFFCURVE",
"91 221 OFFCURVE",
"130 183 CURVE SMOOTH",
"199 116 OFFCURVE",
"365 21 OFFCURVE",
"365 -17 CURVE SMOOTH",
"365 -28 OFFCURVE",
"345 -47 OFFCURVE",
"345 -56 CURVE SMOOTH",
"345 -63 OFFCURVE",
"356 -65 OFFCURVE",
"366 -65 CURVE SMOOTH",
"407 -65 OFFCURVE",
"465 21 OFFCURVE",
"465 67 CURVE SMOOTH",
"465 109 OFFCURVE",
"272 200 OFFCURVE",
"217 244 CURVE SMOOTH",
"192 263 OFFCURVE",
"186 284 OFFCURVE",
"186 315 CURVE SMOOTH",
"186 337 OFFCURVE",
"197 425 OFFCURVE",
"207 512 CURVE",
"435 512 LINE",
"434 495 OFFCURVE",
"433 474 OFFCURVE",
"431 449 CURVE SMOOTH",
"425 381 OFFCURVE",
"393 322 OFFCURVE",
"374 322 CURVE SMOOTH",
"358 322 OFFCURVE",
"344 336 OFFCURVE",
"337 336 CURVE SMOOTH",
"331 336 OFFCURVE",
"329 328 OFFCURVE",
"329 317 CURVE SMOOTH",
"329 282 OFFCURVE",
"398 221 OFFCURVE",
"442 221 CURVE SMOOTH",
"482 221 OFFCURVE",
"522 326 OFFCURVE",
"526 425 CURVE SMOOTH",
"527 449 OFFCURVE",
"527 482 OFFCURVE",
"526 512 CURVE",
"580 512 LINE",
"609 512 OFFCURVE",
"622 509 OFFCURVE",
"629 531 CURVE SMOOTH",
"646 584 LINE SMOOTH",
"651 599 OFFCURVE",
"644 606 OFFCURVE",
"625 606 CURVE SMOOTH",
"0 606 LINE",
"-29 606 OFFCURVE",
"-42 609 OFFCURVE",
"-49 587 CURVE SMOOTH",
"-65 534 LINE SMOOTH"
);
}
);
width = 580;
},
{
layerId = "C23C635F-568C-40B7-8839-28DDBF9C11D0";
paths = (
{
closed = 1;
nodes = (
"-62 517 OFFCURVE",
"-55 510 OFFCURVE",
"-36 510 CURVE SMOOTH",
"83 510 LINE",
"76 439 OFFCURVE",
"66 348 OFFCURVE",
"66 308 CURVE SMOOTH",
"66 256 OFFCURVE",
"82 220 OFFCURVE",
"118 182 CURVE SMOOTH",
"189 108 OFFCURVE",
"360 11 OFFCURVE",
"360 -27 CURVE SMOOTH",
"360 -38 OFFCURVE",
"339 -55 OFFCURVE",
"339 -64 CURVE SMOOTH",
"339 -71 OFFCURVE",
"352 -73 OFFCURVE",
"364 -73 CURVE SMOOTH",
"410 -73 OFFCURVE",
"476 21 OFFCURVE",
"476 71 CURVE SMOOTH",
"476 118 OFFCURVE",
"282 205 OFFCURVE",
"227 249 CURVE SMOOTH",
"202 268 OFFCURVE",
"196 284 OFFCURVE",
"196 315 CURVE SMOOTH",
"196 336 OFFCURVE",
"206 424 OFFCURVE",
"217 510 CURVE",
"427 510 LINE",
"426 493 OFFCURVE",
"425 473 OFFCURVE",
"423 449 CURVE SMOOTH",
"417 381 OFFCURVE",
"386 324 OFFCURVE",
"368 324 CURVE SMOOTH",
"356 324 OFFCURVE",
"338 340 OFFCURVE",
"330 340 CURVE SMOOTH",
"322 340 OFFCURVE",
"321 327 OFFCURVE",
"321 318 CURVE SMOOTH",
"321 286 OFFCURVE",
"389 213 OFFCURVE",
"448 213 CURVE SMOOTH",
"489 213 OFFCURVE",
"530 314 OFFCURVE",
"534 425 CURVE SMOOTH",
"535 448 OFFCURVE",
"535 481 OFFCURVE",
"534 510 CURVE",
"597 510 LINE",
"628 510 OFFCURVE",
"639 508 OFFCURVE",
"646 529 CURVE SMOOTH",
"669 603 LINE SMOOTH",
"674 618 OFFCURVE",
"667 625 OFFCURVE",
"648 625 CURVE SMOOTH",
"0 625 LINE",
"-17 625 OFFCURVE",
"-28 624 OFFCURVE",
"-33 606 CURVE SMOOTH",
"-57 532 LINE SMOOTH"
);
}
);
width = 596.66667;
}
);
unicode = 090F;
},
{
glyphname = "ai-deva";
lastChange = "2022-01-18 13:57:14 +0000";
layers = (
{
background = {
paths = (
{
closed = 1;
nodes = (
"515 616 LINE",
"515 714 OFFCURVE",
"341 870 OFFCURVE",
"254 870 CURVE SMOOTH",
"198 870 OFFCURVE",
"141 782 OFFCURVE",
"141 736 CURVE SMOOTH",
"141 724 OFFCURVE",
"148 708 OFFCURVE",
"155 708 CURVE SMOOTH",
"164 708 OFFCURVE",
"177 737 OFFCURVE",
"192 737 CURVE SMOOTH",
"244 737 OFFCURVE",
"403 701 OFFCURVE",
"403 643 CURVE SMOOTH",
"403 635 OFFCURVE",
"401 624 OFFCURVE",
"399 616 CURVE"
);
},
{
closed = 1;
nodes = (
"0 629 LINE",
"-15 629 OFFCURVE",
"-25 627 OFFCURVE",
"-30 610 CURVE SMOOTH",
"-55 532 LINE SMOOTH",
"-60 517 OFFCURVE",
"-53 510 OFFCURVE",
"-34 510 CURVE SMOOTH",
"600 510 LINE",
"632 510 OFFCURVE",
"642 508 OFFCURVE",
"649 529 CURVE SMOOTH",
"674 607 LINE SMOOTH",
"679 622 OFFCURVE",
"672 629 OFFCURVE",
"653 629 CURVE SMOOTH"
);
},
{
closed = 1;
nodes = (
"425 512 OFFCURVE",
"424 484 OFFCURVE",
"421 449 CURVE SMOOTH",
"415 381 OFFCURVE",
"384 324 OFFCURVE",
"367 324 CURVE SMOOTH",
"355 324 OFFCURVE",
"337 341 OFFCURVE",
"328 341 CURVE SMOOTH",
"320 341 OFFCURVE",
"319 327 OFFCURVE",
"319 318 CURVE SMOOTH",
"319 287 OFFCURVE",
"387 211 OFFCURVE",
"449 211 CURVE SMOOTH",
"490 211 OFFCURVE",
"532 311 OFFCURVE",
"536 425 CURVE SMOOTH",
"537 454 OFFCURVE",
"537 497 OFFCURVE",
"535 531 CURVE",
"535 531 OFFCURVE",
"440 531 OFFCURVE",
"425 531 CURVE"
);
},
{
closed = 1;
nodes = (
"198 339 OFFCURVE",
"211 445 OFFCURVE",
"222 540 CURVE",
"84 540 LINE",
"77 467 OFFCURVE",
"64 354 OFFCURVE",
"64 308 CURVE SMOOTH",
"64 254 OFFCURVE",
"80 220 OFFCURVE",
"116 182 CURVE SMOOTH",
"187 106 OFFCURVE",
"359 9 OFFCURVE",
"359 -29 CURVE SMOOTH",
"359 -40 OFFCURVE",
"338 -57 OFFCURVE",
"338 -66 CURVE SMOOTH",
"338 -73 OFFCURVE",
"351 -75 OFFCURVE",
"363 -75 CURVE SMOOTH",
"411 -75 OFFCURVE",
"478 21 OFFCURVE",
"478 72 CURVE SMOOTH",
"478 120 OFFCURVE",
"284 206 OFFCURVE",
"229 250 CURVE SMOOTH",
"204 269 OFFCURVE",
"198 284 OFFCURVE",
"198 315 CURVE SMOOTH"
);
},
{
closed = 1;
nodes = (
"0 606 LINE",
"-29 606 OFFCURVE",
"-42 609 OFFCURVE",
"-49 587 CURVE SMOOTH",
"-65 534 LINE SMOOTH",
"-70 519 OFFCURVE",
"-63 512 OFFCURVE",
"-44 512 CURVE SMOOTH",
"620 512 LINE",
"649 512 OFFCURVE",
"662 509 OFFCURVE",
"669 531 CURVE SMOOTH",
"686 584 LINE SMOOTH",
"691 599 OFFCURVE",
"684 606 OFFCURVE",
"665 606 CURVE SMOOTH"
);
},
{
closed = 1;
nodes = (
"435 512 OFFCURVE",
"434 484 OFFCURVE",
"431 449 CURVE SMOOTH",
"425 381 OFFCURVE",
"393 322 OFFCURVE",
"374 322 CURVE SMOOTH",
"358 322 OFFCURVE",
"344 336 OFFCURVE",
"337 336 CURVE SMOOTH",
"331 336 OFFCURVE",
"329 328 OFFCURVE",
"329 317 CURVE SMOOTH",
"329 282 OFFCURVE",
"398 221 OFFCURVE",
"442 221 CURVE SMOOTH",
"482 221 OFFCURVE",
"522 326 OFFCURVE",
"526 425 CURVE SMOOTH",
"527 454 OFFCURVE",
"527 497 OFFCURVE",
"525 531 CURVE",
"525 531 OFFCURVE",
"450 531 OFFCURVE",
"435 531 CURVE"
);
},
{
closed = 1;
nodes = (
"186 339 OFFCURVE",
"199 445 OFFCURVE",
"210 540 CURVE",
"97 540 LINE",
"90 467 OFFCURVE",
"77 354 OFFCURVE",
"77 308 CURVE SMOOTH",
"77 263 OFFCURVE",
"91 221 OFFCURVE",
"130 183 CURVE SMOOTH",
"199 116 OFFCURVE",
"365 21 OFFCURVE",
"365 -17 CURVE SMOOTH",
"365 -28 OFFCURVE",
"345 -47 OFFCURVE",
"345 -56 CURVE SMOOTH",
"345 -63 OFFCURVE",
"356 -65 OFFCURVE",
"366 -65 CURVE SMOOTH",
"407 -65 OFFCURVE",
"465 21 OFFCURVE",
"465 67 CURVE SMOOTH",
"465 109 OFFCURVE",
"272 200 OFFCURVE",
"217 244 CURVE SMOOTH",
"192 263 OFFCURVE",
"186 284 OFFCURVE",
"186 315 CURVE SMOOTH"
);
},
{
closed = 1;
nodes = (
"509 599 LINE",
"509 696 OFFCURVE",
"330 842 OFFCURVE",
"253 842 CURVE SMOOTH",
"213 842 OFFCURVE",
"164 777 OFFCURVE",
"164 731 CURVE SMOOTH",
"164 719 OFFCURVE",
"171 707 OFFCURVE",
"178 707 CURVE SMOOTH",
"187 707 OFFCURVE",
"197 736 OFFCURVE",
"212 736 CURVE SMOOTH",
"257 736 OFFCURVE",
"411 699 OFFCURVE",
"411 642 CURVE SMOOTH",
"411 629 OFFCURVE",
"405 607 OFFCURVE",
"403 599 CURVE"
);
}
);
};
layerId = "B0B60A8F-2DEB-4A58-A43B-60A0DADABD8F";
paths = (
{
closed = 1;
nodes = (
"-70 519 OFFCURVE",
"-63 512 OFFCURVE",
"-44 512 CURVE SMOOTH",
"94 512 LINE",
"87 441 OFFCURVE",
"77 348 OFFCURVE",
"77 308 CURVE SMOOTH",
"77 263 OFFCURVE",
"91 221 OFFCURVE",
"130 183 CURVE SMOOTH",
"199 116 OFFCURVE",
"365 21 OFFCURVE",
"365 -17 CURVE SMOOTH",
"365 -28 OFFCURVE",
"345 -47 OFFCURVE",
"345 -56 CURVE SMOOTH",
"345 -63 OFFCURVE",
"356 -65 OFFCURVE",
"366 -65 CURVE SMOOTH",
"407 -65 OFFCURVE",
"465 21 OFFCURVE",
"465 67 CURVE SMOOTH",
"465 109 OFFCURVE",
"272 200 OFFCURVE",
"217 244 CURVE SMOOTH",
"192 263 OFFCURVE",
"186 284 OFFCURVE",
"186 315 CURVE SMOOTH",
"186 337 OFFCURVE",
"197 425 OFFCURVE",
"207 512 CURVE",
"435 512 LINE",
"434 495 OFFCURVE",
"433 474 OFFCURVE",
"431 449 CURVE SMOOTH",
"425 381 OFFCURVE",
"393 322 OFFCURVE",
"374 322 CURVE SMOOTH",
"358 322 OFFCURVE",
"344 336 OFFCURVE",
"337 336 CURVE SMOOTH",
"331 336 OFFCURVE",
"329 328 OFFCURVE",
"329 317 CURVE SMOOTH",
"329 282 OFFCURVE",
"398 221 OFFCURVE",
"442 221 CURVE SMOOTH",
"482 221 OFFCURVE",
"522 326 OFFCURVE",
"526 425 CURVE SMOOTH",
"527 449 OFFCURVE",
"527 482 OFFCURVE",
"526 512 CURVE",
"600 512 LINE",
"629 512 OFFCURVE",
"642 509 OFFCURVE",
"649 531 CURVE SMOOTH",
"666 584 LINE SMOOTH",
"671 599 OFFCURVE",
"664 606 OFFCURVE",
"645 606 CURVE SMOOTH",
"509 606 LINE",
"501 703 OFFCURVE",
"328 842 OFFCURVE",
"253 842 CURVE SMOOTH",
"213 842 OFFCURVE",
"164 777 OFFCURVE",
"164 731 CURVE SMOOTH",
"164 719 OFFCURVE",
"171 707 OFFCURVE",
"178 707 CURVE SMOOTH",
"187 707 OFFCURVE",
"197 736 OFFCURVE",
"212 736 CURVE SMOOTH",
"257 736 OFFCURVE",
"411 699 OFFCURVE",
"411 642 CURVE SMOOTH",
"411 632 OFFCURVE",
"411 616 OFFCURVE",
"411 606 CURVE",
"0 606 LINE",
"-29 606 OFFCURVE",
"-42 609 OFFCURVE",
"-49 587 CURVE SMOOTH",
"-65 534 LINE SMOOTH"
);
}
);
width = 600;
},
{
layerId = "C23C635F-568C-40B7-8839-28DDBF9C11D0";
paths = (
{
closed = 1;
nodes = (
"-62 517 OFFCURVE",
"-55 510 OFFCURVE",
"-36 510 CURVE SMOOTH",
"83 510 LINE",
"76 439 OFFCURVE",
"66 348 OFFCURVE",
"66 308 CURVE SMOOTH",
"66 256 OFFCURVE",
"82 220 OFFCURVE",
"118 182 CURVE SMOOTH",
"189 108 OFFCURVE",
"360 11 OFFCURVE",
"360 -27 CURVE SMOOTH",
"360 -38 OFFCURVE",
"339 -55 OFFCURVE",
"339 -64 CURVE SMOOTH",
"339 -71 OFFCURVE",
"352 -73 OFFCURVE",
"364 -73 CURVE SMOOTH",
"410 -73 OFFCURVE",
"476 21 OFFCURVE",
"476 71 CURVE SMOOTH",
"476 118 OFFCURVE",
"282 205 OFFCURVE",
"227 249 CURVE SMOOTH",
"202 268 OFFCURVE",
"196 284 OFFCURVE",
"196 315 CURVE SMOOTH",
"196 336 OFFCURVE",
"206 424 OFFCURVE",
"217 510 CURVE",
"427 510 LINE",
"426 493 OFFCURVE",
"425 473 OFFCURVE",
"423 449 CURVE SMOOTH",
"417 381 OFFCURVE",
"386 324 OFFCURVE",
"368 324 CURVE SMOOTH",
"356 324 OFFCURVE",
"338 340 OFFCURVE",
"330 340 CURVE SMOOTH",
"322 340 OFFCURVE",
"321 327 OFFCURVE",
"321 318 CURVE SMOOTH",
"321 286 OFFCURVE",
"389 213 OFFCURVE",
"448 213 CURVE SMOOTH",
"489 213 OFFCURVE",
"530 314 OFFCURVE",
"534 425 CURVE SMOOTH",
"535 448 OFFCURVE",
"535 481 OFFCURVE",
"534 510 CURVE",
"600 510 LINE",
"632 510 OFFCURVE",
"642 508 OFFCURVE",
"649 529 CURVE SMOOTH",
"673 603 LINE SMOOTH",
"678 618 OFFCURVE",
"671 625 OFFCURVE",
"652 625 CURVE SMOOTH",
"513 625 LINE",
"500 723 OFFCURVE",
"336 865 OFFCURVE",
"254 865 CURVE SMOOTH",
"201 865 OFFCURVE",
"145 781 OFFCURVE",
"145 735 CURVE SMOOTH",
"145 723 OFFCURVE",
"152 708 OFFCURVE",
"159 708 CURVE SMOOTH",
"168 708 OFFCURVE",
"180 737 OFFCURVE",
"195 737 CURVE SMOOTH",
"246 737 OFFCURVE",
"404 701 OFFCURVE",
"404 643 CURVE SMOOTH",
"404 638 OFFCURVE",
"404 631 OFFCURVE",
"404 625 CURVE",
"0 625 LINE",
"-17 625 OFFCURVE",
"-28 624 OFFCURVE",
"-33 606 CURVE SMOOTH",
"-57 532 LINE SMOOTH"
);
}
);
width = 600;
}
);
unicode = 0910;
},
{
glyphname = "o-deva";
lastChange = "2022-01-18 13:57:14 +0000";
layers = (
{
background = {
paths = (
{
closed = 1;
nodes = (
"1002 538 OFFCURVE",
"981 361 OFFCURVE",
"969 174 CURVE SMOOTH",
"964 94 OFFCURVE",
"900 -21 OFFCURVE",
"837 -21 CURVE SMOOTH",
"801 -21 OFFCURVE",
"813 27 OFFCURVE",
"818 63 CURVE SMOOTH",
"825 117 OFFCURVE",
"842 295 OFFCURVE",
"865 541 CURVE",
"1002 538 LINE"
);
},
{
closed = 1;
nodes = (
"766 538 OFFCURVE",
"745 361 OFFCURVE",
"733 174 CURVE SMOOTH",
"728 94 OFFCURVE",
"664 -21 OFFCURVE",
"601 -21 CURVE SMOOTH",
"565 -21 OFFCURVE",
"577 27 OFFCURVE",
"582 63 CURVE SMOOTH",
"589 117 OFFCURVE",
"606 295 OFFCURVE",
"629 541 CURVE",
"766 538 LINE"
);
},
{
closed = 1;
nodes = (
"1117 629 OFFCURVE",
"1126 622 OFFCURVE",
"1121 607 CURVE SMOOTH",
"1096 529 LINE SMOOTH",
"1089 508 OFFCURVE",
"1079 510 OFFCURVE",
"1062 510 CURVE",
"575 510 LINE SMOOTH",
"556 510 OFFCURVE",
"549 517 OFFCURVE",
"554 532 CURVE SMOOTH",
"579 610 LINE SMOOTH",
"586 631 OFFCURVE",
"596 629 OFFCURVE",
"628 629 CURVE",
"1098 629 LINE SMOOTH"
);
},
{
closed = 1;
nodes = (
"452 395 LINE",
"490 373 OFFCURVE",
"558 350 OFFCURVE",
"619 384 CURVE",
"608 259 LINE",
"500 262 OFFCURVE",
"454 308 OFFCURVE",
"405 346 CURVE"
);
},
{
closed = 1;
nodes = (
"276 502 OFFCURVE",
"271 507 OFFCURVE",
"271 516 CURVE SMOOTH",
"271 541 OFFCURVE",
"350 608 OFFCURVE",
"406 608 CURVE SMOOTH",
"460 608 OFFCURVE",
"518 554 OFFCURVE",
"518 492 CURVE SMOOTH",
"518 419 OFFCURVE",
"437 361 OFFCURVE",
"405 346 CURVE",
"457 328 OFFCURVE",
"502 284 OFFCURVE",
"502 206 CURVE SMOOTH",
"502 121 OFFCURVE",
"421 17 OFFCURVE",
"242 17 CURVE SMOOTH",
"121 17 OFFCURVE",
"25 83 OFFCURVE",
"25 180 CURVE SMOOTH",
"25 278 OFFCURVE",
"129 337 OFFCURVE",
"162 337 CURVE SMOOTH",
"191 337 OFFCURVE",
"149 279 OFFCURVE",
"149 210 CURVE SMOOTH",
"149 168 OFFCURVE",
"155 119 OFFCURVE",
"233 119 CURVE SMOOTH",
"304 119 OFFCURVE",
"360 155 OFFCURVE",
"360 226 CURVE SMOOTH",
"360 269 OFFCURVE",
"345 290 OFFCURVE",
"322 290 CURVE SMOOTH",
"300 290 OFFCURVE",
"285 286 OFFCURVE",
"268 286 CURVE SMOOTH",
"249 286 OFFCURVE",
"244 298 OFFCURVE",
"244 320 CURVE SMOOTH",
"244 373 OFFCURVE",
"248 387 OFFCURVE",
"279 387 CURVE SMOOTH",
"326 387 OFFCURVE",
"383 384 OFFCURVE",
"383 440 CURVE SMOOTH",
"383 477 OFFCURVE",
"380 515 OFFCURVE",
"353 515 CURVE SMOOTH",
"339 515 OFFCURVE",
"300 502 OFFCURVE",
"287 502 CURVE SMOOTH"
);
},
{
closed = 1;
nodes = (
"879 624 OFFCURVE",
"881 635 OFFCURVE",
"881 643 CURVE SMOOTH",
"881 701 OFFCURVE",
"722 737 OFFCURVE",
"670 737 CURVE SMOOTH",
"655 737 OFFCURVE",
"642 708 OFFCURVE",
"633 708 CURVE SMOOTH",
"626 708 OFFCURVE",
"619 724 OFFCURVE",
"619 736 CURVE SMOOTH",
"619 782 OFFCURVE",
"676 870 OFFCURVE",
"732 870 CURVE SMOOTH",
"819 870 OFFCURVE",
"993 714 OFFCURVE",
"993 616 CURVE",
"877 616 LINE"
);
},
{
closed = 1;
nodes = (
"742 538 OFFCURVE",
"719 361 OFFCURVE",
"708 174 CURVE SMOOTH",
"704 107 OFFCURVE",
"642 -21 OFFCURVE",
"601 -21 CURVE SMOOTH",
"570 -21 OFFCURVE",
"575 14 OFFCURVE",
"581 56 CURVE SMOOTH",
"595 162 OFFCURVE",
"629 541 OFFCURVE",
"629 541 CURVE",
"742 538 LINE"
);
},
{
closed = 1;
nodes = (
"1074 606 OFFCURVE",
"1081 599 OFFCURVE",
"1076 584 CURVE SMOOTH",
"1059 531 LINE SMOOTH",
"1052 509 OFFCURVE",
"1039 512 OFFCURVE",
"1010 512 CURVE",
"576 512 LINE SMOOTH",
"557 512 OFFCURVE",
"550 519 OFFCURVE",
"555 534 CURVE SMOOTH",
"571 587 LINE SMOOTH",
"578 609 OFFCURVE",
"591 606 OFFCURVE",
"620 606 CURVE",
"1055 606 LINE SMOOTH"
);
},
{
closed = 1;
nodes = (
"439 393 LINE",
"480 367 OFFCURVE",
"553 345 OFFCURVE",
"619 375 CURVE",
"609 267 LINE",
"510 270 OFFCURVE",
"447 313 OFFCURVE",
"400 351 CURVE"
);
},
{
closed = 1;
nodes = (
"289 512 OFFCURVE",
"284 514 OFFCURVE",
"284 521 CURVE SMOOTH",
"284 546 OFFCURVE",
"370 608 OFFCURVE",
"407 608 CURVE SMOOTH",
"449 608 OFFCURVE",
"508 547 OFFCURVE",
"508 487 CURVE SMOOTH",
"508 419 OFFCURVE",
"432 366 OFFCURVE",
"400 351 CURVE",
"450 331 OFFCURVE",
"492 277 OFFCURVE",
"492 211 CURVE SMOOTH",
"492 121 OFFCURVE",
"405 27 OFFCURVE",
"242 27 CURVE SMOOTH",
"121 27 OFFCURVE",
"34 97 OFFCURVE",
"34 183 CURVE SMOOTH",
"34 267 OFFCURVE",
"135 337 OFFCURVE",
"162 337 CURVE SMOOTH",
"191 337 OFFCURVE",
"141 278 OFFCURVE",
"141 199 CURVE SMOOTH",
"141 149 OFFCURVE",
"160 110 OFFCURVE",
"233 110 CURVE SMOOTH",
"313 110 OFFCURVE",
"372 146 OFFCURVE",
"372 226 CURVE SMOOTH",
"372 248 OFFCURVE",
"369 299 OFFCURVE",
"322 299 CURVE SMOOTH",
"300 299 OFFCURVE",
"286 295 OFFCURVE",
"269 295 CURVE SMOOTH",
"257 295 OFFCURVE",
"254 303 OFFCURVE",
"254 320 CURVE SMOOTH",
"254 373 OFFCURVE",
"263 379 OFFCURVE",
"285 379 CURVE SMOOTH",
"347 379 OFFCURVE",
"395 384 OFFCURVE",
"395 440 CURVE SMOOTH",
"395 477 OFFCURVE",
"387 525 OFFCURVE",
"361 525 CURVE SMOOTH",
"347 525 OFFCURVE",
"310 512 OFFCURVE",
"296 512 CURVE SMOOTH"
);
},
{
closed = 1;
nodes = (
"977 538 OFFCURVE",
"954 361 OFFCURVE",
"943 174 CURVE SMOOTH",
"939 107 OFFCURVE",
"877 -21 OFFCURVE",
"836 -21 CURVE SMOOTH",
"805 -21 OFFCURVE",
"810 14 OFFCURVE",
"816 56 CURVE SMOOTH",
"830 162 OFFCURVE",
"864 541 OFFCURVE",
"864 541 CURVE",
"977 538 LINE"
);
},
{
closed = 1;
nodes = (
"875 607 OFFCURVE",
"881 629 OFFCURVE",
"881 642 CURVE SMOOTH",
"881 699 OFFCURVE",
"727 736 OFFCURVE",
"682 736 CURVE SMOOTH",
"667 736 OFFCURVE",
"657 707 OFFCURVE",
"648 707 CURVE SMOOTH",
"641 707 OFFCURVE",
"634 719 OFFCURVE",
"634 731 CURVE SMOOTH",
"634 777 OFFCURVE",
"683 842 OFFCURVE",
"723 842 CURVE SMOOTH",
"800 842 OFFCURVE",
"979 696 OFFCURVE",
"979 599 CURVE",
"873 599 LINE"
);
}
);
};
layerId = "B0B60A8F-2DEB-4A58-A43B-60A0DADABD8F";
paths = (
{
closed = 1;
nodes = (
"34 267 OFFCURVE",
"135 337 OFFCURVE",
"162 337 CURVE SMOOTH",
"191 337 OFFCURVE",
"141 278 OFFCURVE",
"141 199 CURVE SMOOTH",
"141 149 OFFCURVE",
"160 110 OFFCURVE",
"233 110 CURVE SMOOTH",
"313 110 OFFCURVE",
"372 146 OFFCURVE",
"372 226 CURVE SMOOTH",
"372 248 OFFCURVE",
"369 299 OFFCURVE",
"322 299 CURVE SMOOTH",
"300 299 OFFCURVE",
"286 295 OFFCURVE",
"269 295 CURVE SMOOTH",
"257 295 OFFCURVE",
"254 303 OFFCURVE",
"254 320 CURVE SMOOTH",
"254 373 OFFCURVE",
"263 379 OFFCURVE",
"285 379 CURVE SMOOTH",
"347 379 OFFCURVE",
"395 384 OFFCURVE",
"395 440 CURVE SMOOTH",
"395 477 OFFCURVE",
"387 525 OFFCURVE",
"361 525 CURVE SMOOTH",
"347 525 OFFCURVE",
"310 512 OFFCURVE",
"296 512 CURVE SMOOTH",
"289 512 OFFCURVE",
"284 514 OFFCURVE",
"284 521 CURVE SMOOTH",
"284 546 OFFCURVE",
"370 608 OFFCURVE",
"407 608 CURVE SMOOTH",
"449 608 OFFCURVE",
"508 547 OFFCURVE",
"508 487 CURVE SMOOTH",
"508 446 OFFCURVE",
"481 411 OFFCURVE",
"452 386 CURVE",
"493 364 OFFCURVE",
"555 349 OFFCURVE",
"613 373 CURVE",
"626 512 LINE",
"576 512 LINE SMOOTH",
"557 512 OFFCURVE",
"550 519 OFFCURVE",
"555 534 CURVE SMOOTH",
"571 587 LINE SMOOTH",
"578 609 OFFCURVE",
"591 606 OFFCURVE",
"620 606 CURVE SMOOTH",
"881 606 LINE",
"881 616 OFFCURVE",
"881 632 OFFCURVE",
"881 642 CURVE SMOOTH",
"881 699 OFFCURVE",
"727 736 OFFCURVE",
"682 736 CURVE SMOOTH",
"667 736 OFFCURVE",
"657 707 OFFCURVE",
"648 707 CURVE SMOOTH",
"641 707 OFFCURVE",
"634 719 OFFCURVE",
"634 731 CURVE SMOOTH",
"634 777 OFFCURVE",
"683 842 OFFCURVE",
"723 842 CURVE SMOOTH",
"798 842 OFFCURVE",
"971 703 OFFCURVE",
"979 606 CURVE",
"1055 606 LINE SMOOTH",
"1074 606 OFFCURVE",
"1081 599 OFFCURVE",
"1076 584 CURVE SMOOTH",
"1059 531 LINE SMOOTH",
"1052 509 OFFCURVE",
"1039 512 OFFCURVE",
"1010 512 CURVE",
"974 512 LINE",
"967 456 OFFCURVE",
"951 318 OFFCURVE",
"943 174 CURVE SMOOTH",
"939 107 OFFCURVE",
"877 -21 OFFCURVE",
"836 -21 CURVE SMOOTH",
"805 -21 OFFCURVE",
"810 14 OFFCURVE",
"816 56 CURVE SMOOTH",
"828 144 OFFCURVE",
"853 421 OFFCURVE",
"861 512 CURVE",
"739 512 LINE",
"732 456 OFFCURVE",
"716 318 OFFCURVE",
"708 174 CURVE SMOOTH",
"704 107 OFFCURVE",
"642 -21 OFFCURVE",
"601 -21 CURVE SMOOTH",
"570 -21 OFFCURVE",
"575 14 OFFCURVE",
"581 56 CURVE SMOOTH",
"586 98 OFFCURVE",
"595 181 OFFCURVE",
"603 267 CURVE",
"540 270 OFFCURVE",
"492 289 OFFCURVE",
"453 313 CURVE",
"477 287 OFFCURVE",
"492 251 OFFCURVE",
"492 211 CURVE SMOOTH",
"492 121 OFFCURVE",
"405 27 OFFCURVE",
"242 27 CURVE SMOOTH",
"121 27 OFFCURVE",
"34 97 OFFCURVE",
"34 183 CURVE SMOOTH"
);
}
);
width = 1010;
},
{
layerId = "C23C635F-568C-40B7-8839-28DDBF9C11D0";
paths = (
{
closed = 1;
nodes = (
"43 276 OFFCURVE",
"147 337 OFFCURVE",
"179 337 CURVE SMOOTH",
"208 337 OFFCURVE",
"164 279 OFFCURVE",
"164 208 CURVE SMOOTH",
"164 165 OFFCURVE",
"173 118 OFFCURVE",
"250 118 CURVE SMOOTH",
"322 118 OFFCURVE",
"379 154 OFFCURVE",
"379 226 CURVE SMOOTH",
"379 266 OFFCURVE",
"366 292 OFFCURVE",
"339 292 CURVE SMOOTH",
"317 292 OFFCURVE",
"302 288 OFFCURVE",
"285 288 CURVE SMOOTH",
"267 288 OFFCURVE",
"262 299 OFFCURVE",
"262 320 CURVE SMOOTH",
"262 373 OFFCURVE",
"267 386 OFFCURVE",
"297 386 CURVE SMOOTH",
"346 386 OFFCURVE",
"402 384 OFFCURVE",
"402 440 CURVE SMOOTH",
"402 477 OFFCURVE",
"398 517 OFFCURVE",
"371 517 CURVE SMOOTH",
"357 517 OFFCURVE",
"318 504 OFFCURVE",
"305 504 CURVE SMOOTH",
"295 504 OFFCURVE",
"290 508 OFFCURVE",
"290 517 CURVE SMOOTH",
"290 542 OFFCURVE",
"370 608 OFFCURVE",
"423 608 CURVE SMOOTH",
"475 608 OFFCURVE",
"533 553 OFFCURVE",
"533 491 CURVE SMOOTH",
"533 450 OFFCURVE",
"508 414 OFFCURVE",
"480 388 CURVE",
"518 368 OFFCURVE",
"577 353 OFFCURVE",
"631 380 CURVE",
"643 510 LINE",
"592 510 LINE SMOOTH",
"573 510 OFFCURVE",
"566 517 OFFCURVE",
"571 532 CURVE SMOOTH",
"594 606 LINE SMOOTH",
"601 627 OFFCURVE",
"612 625 OFFCURVE",
"643 625 CURVE SMOOTH",
"898 625 LINE",
"898 631 OFFCURVE",
"898 638 OFFCURVE",
"898 643 CURVE SMOOTH",
"898 701 OFFCURVE",
"740 737 OFFCURVE",
"689 737 CURVE SMOOTH",
"674 737 OFFCURVE",
"661 708 OFFCURVE",
"652 708 CURVE SMOOTH",
"645 708 OFFCURVE",
"638 723 OFFCURVE",
"638 735 CURVE SMOOTH",
"638 781 OFFCURVE",
"694 865 OFFCURVE",
"747 865 CURVE SMOOTH",
"829 865 OFFCURVE",
"994 723 OFFCURVE",
"1007 625 CURVE",
"1108 625 LINE SMOOTH",
"1127 625 OFFCURVE",
"1135 618 OFFCURVE",
"1130 603 CURVE SMOOTH",
"1107 529 LINE SMOOTH",
"1100 508 OFFCURVE",
"1089 510 OFFCURVE",
"1070 510 CURVE",
"1012 510 LINE",
"1005 454 OFFCURVE",
"990 316 OFFCURVE",
"981 174 CURVE SMOOTH",
"977 96 OFFCURVE",
"913 -21 OFFCURVE",
"854 -21 CURVE SMOOTH",
"818 -21 OFFCURVE",
"829 25 OFFCURVE",
"834 62 CURVE SMOOTH",
"842 120 OFFCURVE",
"860 304 OFFCURVE",
"879 510 CURVE",
"776 510 LINE",
"769 454 OFFCURVE",
"754 316 OFFCURVE",
"746 174 CURVE SMOOTH",
"741 96 OFFCURVE",
"677 -21 OFFCURVE",
"618 -21 CURVE SMOOTH",
"583 -21 OFFCURVE",
"593 25 OFFCURVE",
"599 62 CURVE SMOOTH",
"603 94 OFFCURVE",
"610 165 OFFCURVE",
"619 260 CURVE",
"563 263 OFFCURVE",
"522 278 OFFCURVE",
"489 297 CURVE",
"506 274 OFFCURVE",
"517 244 OFFCURVE",
"517 207 CURVE SMOOTH",
"517 121 OFFCURVE",
"435 19 OFFCURVE",
"259 19 CURVE SMOOTH",
"138 19 OFFCURVE",
"43 85 OFFCURVE",
"43 181 CURVE SMOOTH"
);
}
);
width = 1070;
}
);
unicode = 0913;
},
{
glyphname = "au-deva";
lastChange = "2022-01-18 13:57:14 +0000";
layers = (
{
background = {
paths = (
{
closed = 1;
nodes = (
"877 624 OFFCURVE",
"879 632 OFFCURVE",
"879 636 CURVE SMOOTH",
"879 675 OFFCURVE",
"744 681 OFFCURVE",
"722 681 CURVE SMOOTH",
"707 681 OFFCURVE",
"698 652 OFFCURVE",
"686 652 CURVE SMOOTH",
"679 652 OFFCURVE",
"674 669 OFFCURVE",
"674 681 CURVE SMOOTH",
"674 712 OFFCURVE",
"714 781 OFFCURVE",
"749 781 CURVE SMOOTH",
"812 781 OFFCURVE",
"948 674 OFFCURVE",
"948 616 CURVE",
"873 616 LINE"
);
},
{
closed = 1;
nodes = (
"935 620 OFFCURVE",
"909 669 OFFCURVE",
"898 684 CURVE",
"915 698 LINE",
"852 787 OFFCURVE",
"755 832 OFFCURVE",
"718 832 CURVE SMOOTH",
"703 832 OFFCURVE",
"687 803 OFFCURVE",
"678 803 CURVE SMOOTH",
"671 803 OFFCURVE",
"666 820 OFFCURVE",
"666 832 CURVE SMOOTH",
"666 871 OFFCURVE",
"733 942 OFFCURVE",
"776 942 CURVE SMOOTH",
"865 942 OFFCURVE",
"1020 723 OFFCURVE",
"1020 616 CURVE",
"934 616 LINE"
);
},
{
closed = 1;
nodes = (
"1002 538 OFFCURVE",
"981 361 OFFCURVE",
"969 174 CURVE SMOOTH",
"964 94 OFFCURVE",
"900 -21 OFFCURVE",
"837 -21 CURVE SMOOTH",
"801 -21 OFFCURVE",
"813 27 OFFCURVE",
"818 63 CURVE SMOOTH",
"825 117 OFFCURVE",
"842 295 OFFCURVE",
"865 541 CURVE",
"1002 538 LINE"
);
},
{
closed = 1;
nodes = (
"766 538 OFFCURVE",
"745 361 OFFCURVE",
"733 174 CURVE SMOOTH",
"728 94 OFFCURVE",
"664 -21 OFFCURVE",
"601 -21 CURVE SMOOTH",
"565 -21 OFFCURVE",
"577 27 OFFCURVE",
"582 63 CURVE SMOOTH",
"589 117 OFFCURVE",
"606 295 OFFCURVE",
"629 541 CURVE",
"766 538 LINE"
);
},
{
closed = 1;
nodes = (
"1117 629 OFFCURVE",
"1126 622 OFFCURVE",
"1121 607 CURVE SMOOTH",
"1096 529 LINE SMOOTH",
"1089 508 OFFCURVE",
"1079 510 OFFCURVE",
"1062 510 CURVE",
"575 510 LINE SMOOTH",
"556 510 OFFCURVE",
"549 517 OFFCURVE",
"554 532 CURVE SMOOTH",
"579 610 LINE SMOOTH",
"586 631 OFFCURVE",
"596 629 OFFCURVE",
"628 629 CURVE",
"1098 629 LINE SMOOTH"
);
},
{
closed = 1;
nodes = (
"452 395 LINE",
"490 373 OFFCURVE",
"558 350 OFFCURVE",
"619 384 CURVE",
"608 259 LINE",
"500 262 OFFCURVE",
"454 308 OFFCURVE",
"405 346 CURVE"
);
},
{
closed = 1;
nodes = (
"276 502 OFFCURVE",
"271 507 OFFCURVE",
"271 516 CURVE SMOOTH",
"271 541 OFFCURVE",
"350 608 OFFCURVE",
"406 608 CURVE SMOOTH",
"460 608 OFFCURVE",
"518 554 OFFCURVE",
"518 492 CURVE SMOOTH",
"518 419 OFFCURVE",
"437 361 OFFCURVE",
"405 346 CURVE",
"457 328 OFFCURVE",
"502 284 OFFCURVE",
"502 206 CURVE SMOOTH",
"502 121 OFFCURVE",
"421 17 OFFCURVE",
"242 17 CURVE SMOOTH",
"121 17 OFFCURVE",
"25 83 OFFCURVE",
"25 180 CURVE SMOOTH",
"25 278 OFFCURVE",
"129 337 OFFCURVE",
"162 337 CURVE SMOOTH",
"191 337 OFFCURVE",
"149 279 OFFCURVE",
"149 210 CURVE SMOOTH",
"149 168 OFFCURVE",
"155 119 OFFCURVE",
"233 119 CURVE SMOOTH",
"304 119 OFFCURVE",
"360 155 OFFCURVE",
"360 226 CURVE SMOOTH",
"360 269 OFFCURVE",
"345 290 OFFCURVE",
"322 290 CURVE SMOOTH",
"300 290 OFFCURVE",
"285 286 OFFCURVE",
"268 286 CURVE SMOOTH",
"249 286 OFFCURVE",
"244 298 OFFCURVE",
"244 320 CURVE SMOOTH",
"244 373 OFFCURVE",
"248 387 OFFCURVE",
"279 387 CURVE SMOOTH",
"326 387 OFFCURVE",
"383 384 OFFCURVE",
"383 440 CURVE SMOOTH",
"383 477 OFFCURVE",
"380 515 OFFCURVE",
"353 515 CURVE SMOOTH",
"339 515 OFFCURVE",
"300 502 OFFCURVE",
"287 502 CURVE SMOOTH"
);
},
{
closed = 1;
nodes = (
"875 607 OFFCURVE",
"881 629 OFFCURVE",
"881 642 CURVE SMOOTH",
"881 699 OFFCURVE",
"725 736 OFFCURVE",
"680 736 CURVE SMOOTH",
"665 736 OFFCURVE",
"652 698 OFFCURVE",
"643 698 CURVE SMOOTH",
"636 698 OFFCURVE",
"629 714 OFFCURVE",
"629 726 CURVE SMOOTH",
"629 772 OFFCURVE",
"685 850 OFFCURVE",
"732 850 CURVE SMOOTH",
"809 850 OFFCURVE",
"979 697 OFFCURVE",
"979 599 CURVE",
"873 599 LINE"
);
},
{
closed = 1;
nodes = (
"742 538 OFFCURVE",
"719 361 OFFCURVE",
"708 174 CURVE SMOOTH",
"704 107 OFFCURVE",
"642 -21 OFFCURVE",
"601 -21 CURVE SMOOTH",
"570 -21 OFFCURVE",
"575 14 OFFCURVE",
"581 56 CURVE SMOOTH",
"595 162 OFFCURVE",
"629 541 OFFCURVE",
"629 541 CURVE",
"742 538 LINE"
);
},
{
closed = 1;
nodes = (
"1074 606 OFFCURVE",
"1081 599 OFFCURVE",
"1076 584 CURVE SMOOTH",
"1059 531 LINE SMOOTH",
"1052 509 OFFCURVE",
"1039 512 OFFCURVE",
"1010 512 CURVE",
"576 512 LINE SMOOTH",
"557 512 OFFCURVE",
"550 519 OFFCURVE",
"555 534 CURVE SMOOTH",
"571 587 LINE SMOOTH",
"578 609 OFFCURVE",
"591 606 OFFCURVE",
"620 606 CURVE",
"1055 606 LINE SMOOTH"
);
},
{
closed = 1;
nodes = (
"439 393 LINE",
"480 367 OFFCURVE",
"553 345 OFFCURVE",
"619 375 CURVE",
"609 265 LINE",
"510 268 OFFCURVE",
"447 313 OFFCURVE",
"400 351 CURVE"
);
},
{
closed = 1;
nodes = (
"289 512 OFFCURVE",
"284 514 OFFCURVE",
"284 521 CURVE SMOOTH",
"284 546 OFFCURVE",
"370 608 OFFCURVE",
"407 608 CURVE SMOOTH",
"449 608 OFFCURVE",
"508 547 OFFCURVE",
"508 487 CURVE SMOOTH",
"508 419 OFFCURVE",
"432 366 OFFCURVE",
"400 351 CURVE",
"450 331 OFFCURVE",
"492 277 OFFCURVE",
"492 211 CURVE SMOOTH",
"492 121 OFFCURVE",
"405 27 OFFCURVE",
"242 27 CURVE SMOOTH",
"121 27 OFFCURVE",
"34 97 OFFCURVE",
"34 183 CURVE SMOOTH",
"34 267 OFFCURVE",
"135 337 OFFCURVE",
"162 337 CURVE SMOOTH",
"191 337 OFFCURVE",
"141 278 OFFCURVE",
"141 199 CURVE SMOOTH",
"141 149 OFFCURVE",
"160 110 OFFCURVE",
"233 110 CURVE SMOOTH",
"313 110 OFFCURVE",
"372 146 OFFCURVE",
"372 226 CURVE SMOOTH",
"372 248 OFFCURVE",
"369 299 OFFCURVE",
"322 299 CURVE SMOOTH",
"300 299 OFFCURVE",
"286 295 OFFCURVE",
"269 295 CURVE SMOOTH",
"257 295 OFFCURVE",
"254 303 OFFCURVE",
"254 320 CURVE SMOOTH",
"254 373 OFFCURVE",
"263 379 OFFCURVE",
"285 379 CURVE SMOOTH",
"347 379 OFFCURVE",
"395 384 OFFCURVE",
"395 440 CURVE SMOOTH",
"395 477 OFFCURVE",
"387 525 OFFCURVE",
"361 525 CURVE SMOOTH",
"347 525 OFFCURVE",
"310 512 OFFCURVE",
"296 512 CURVE SMOOTH"
);
},
{
closed = 1;
nodes = (
"977 538 OFFCURVE",
"954 361 OFFCURVE",
"943 174 CURVE SMOOTH",
"939 107 OFFCURVE",
"877 -21 OFFCURVE",
"836 -21 CURVE SMOOTH",
"805 -21 OFFCURVE",
"810 14 OFFCURVE",
"816 56 CURVE SMOOTH",
"830 162 OFFCURVE",
"864 541 OFFCURVE",
"864 541 CURVE",
"977 538 LINE"
);
},
{
closed = 1;
nodes = (
"866 607 OFFCURVE",
"870 619 OFFCURVE",
"870 630 CURVE SMOOTH",
"870 670 OFFCURVE",
"744 682 OFFCURVE",
"722 682 CURVE SMOOTH",
"705 682 OFFCURVE",
"696 654 OFFCURVE",
"686 654 CURVE SMOOTH",
"678 654 OFFCURVE",
"675 668 OFFCURVE",
"675 682 CURVE SMOOTH",
"675 713 OFFCURVE",
"710 769 OFFCURVE",
"738 769 CURVE SMOOTH",
"797 769 OFFCURVE",
"936 657 OFFCURVE",
"936 599 CURVE",
"862 599 LINE"
);
},
{
closed = 1;
nodes = (
"921 603 OFFCURVE",
"911 641 OFFCURVE",
"900 656 CURVE",
"923 676 LINE",
"867 761 OFFCURVE",
"755 836 OFFCURVE",
"718 836 CURVE SMOOTH",
"703 836 OFFCURVE",
"690 809 OFFCURVE",
"680 809 CURVE SMOOTH",
"672 809 OFFCURVE",
"671 824 OFFCURVE",
"671 833 CURVE SMOOTH",
"671 870 OFFCURVE",
"727 930 OFFCURVE",
"760 930 CURVE SMOOTH",
"845 930 OFFCURVE",
"994 706 OFFCURVE",
"994 599 CURVE",
"920 599 LINE"
);
}
);
};
layerId = "B0B60A8F-2DEB-4A58-A43B-60A0DADABD8F";
paths = (
{
closed = 1;
nodes = (
"34 267 OFFCURVE",
"135 337 OFFCURVE",
"162 337 CURVE SMOOTH",
"191 337 OFFCURVE",
"141 278 OFFCURVE",
"141 199 CURVE SMOOTH",
"141 149 OFFCURVE",
"160 110 OFFCURVE",
"233 110 CURVE SMOOTH",
"313 110 OFFCURVE",
"372 146 OFFCURVE",
"372 226 CURVE SMOOTH",
"372 248 OFFCURVE",
"369 299 OFFCURVE",
"322 299 CURVE SMOOTH",
"300 299 OFFCURVE",
"286 295 OFFCURVE",
"269 295 CURVE SMOOTH",
"257 295 OFFCURVE",
"254 303 OFFCURVE",
"254 320 CURVE SMOOTH",
"254 373 OFFCURVE",
"263 379 OFFCURVE",
"285 379 CURVE SMOOTH",
"347 379 OFFCURVE",
"395 384 OFFCURVE",
"395 440 CURVE SMOOTH",
"395 477 OFFCURVE",
"387 525 OFFCURVE",
"361 525 CURVE SMOOTH",
"347 525 OFFCURVE",
"310 512 OFFCURVE",
"296 512 CURVE SMOOTH",
"289 512 OFFCURVE",
"284 514 OFFCURVE",
"284 521 CURVE SMOOTH",
"284 546 OFFCURVE",
"370 608 OFFCURVE",
"407 608 CURVE SMOOTH",
"449 608 OFFCURVE",
"508 547 OFFCURVE",
"508 487 CURVE SMOOTH",
"508 446 OFFCURVE",
"481 411 OFFCURVE",
"452 386 CURVE",
"493 364 OFFCURVE",
"555 349 OFFCURVE",
"613 373 CURVE",
"626 512 LINE",
"576 512 LINE SMOOTH",
"557 512 OFFCURVE",
"550 519 OFFCURVE",
"555 534 CURVE SMOOTH",
"571 587 LINE SMOOTH",
"578 609 OFFCURVE",
"591 606 OFFCURVE",
"620 606 CURVE SMOOTH",
"870 606 LINE",
"870 613 OFFCURVE",
"870 622 OFFCURVE",
"870 630 CURVE SMOOTH",
"870 670 OFFCURVE",
"744 682 OFFCURVE",
"722 682 CURVE SMOOTH",
"705 682 OFFCURVE",
"696 654 OFFCURVE",
"686 654 CURVE SMOOTH",
"678 654 OFFCURVE",
"675 668 OFFCURVE",
"675 682 CURVE SMOOTH",
"675 713 OFFCURVE",
"710 769 OFFCURVE",
"738 769 CURVE SMOOTH",
"780 769 OFFCURVE",
"861 714 OFFCURVE",
"905 660 CURVE",
"923 676 LINE",
"867 761 OFFCURVE",
"755 836 OFFCURVE",
"718 836 CURVE SMOOTH",
"703 836 OFFCURVE",
"690 809 OFFCURVE",
"680 809 CURVE SMOOTH",
"672 809 OFFCURVE",
"671 824 OFFCURVE",
"671 833 CURVE SMOOTH",
"671 870 OFFCURVE",
"727 930 OFFCURVE",
"760 930 CURVE SMOOTH",
"843 930 OFFCURVE",
"988 715 OFFCURVE",
"994 606 CURVE",
"1055 606 LINE SMOOTH",
"1074 606 OFFCURVE",
"1081 599 OFFCURVE",
"1076 584 CURVE SMOOTH",
"1059 531 LINE SMOOTH",
"1052 509 OFFCURVE",
"1039 512 OFFCURVE",
"1010 512 CURVE",
"974 512 LINE",
"967 456 OFFCURVE",
"951 318 OFFCURVE",
"943 174 CURVE SMOOTH",
"939 107 OFFCURVE",
"877 -21 OFFCURVE",
"836 -21 CURVE SMOOTH",
"805 -21 OFFCURVE",
"810 14 OFFCURVE",
"816 56 CURVE SMOOTH",
"828 144 OFFCURVE",
"853 421 OFFCURVE",
"861 512 CURVE",
"739 512 LINE",
"732 456 OFFCURVE",
"716 318 OFFCURVE",
"708 174 CURVE SMOOTH",
"704 107 OFFCURVE",
"642 -21 OFFCURVE",
"601 -21 CURVE SMOOTH",
"570 -21 OFFCURVE",
"575 14 OFFCURVE",
"581 56 CURVE SMOOTH",
"586 97 OFFCURVE",
"595 180 OFFCURVE",
"603 265 CURVE",
"541 268 OFFCURVE",
"493 288 OFFCURVE",
"454 312 CURVE",
"477 286 OFFCURVE",
"492 250 OFFCURVE",
"492 211 CURVE SMOOTH",
"492 121 OFFCURVE",
"405 27 OFFCURVE",
"242 27 CURVE SMOOTH",
"121 27 OFFCURVE",
"34 97 OFFCURVE",
"34 183 CURVE SMOOTH"
);
}
);
width = 1010;
},
{
layerId = "C23C635F-568C-40B7-8839-28DDBF9C11D0";
paths = (
{
closed = 1;
nodes = (
"43 276 OFFCURVE",
"147 337 OFFCURVE",
"179 337 CURVE SMOOTH",
"208 337 OFFCURVE",
"164 279 OFFCURVE",
"164 208 CURVE SMOOTH",
"164 165 OFFCURVE",
"173 118 OFFCURVE",
"250 118 CURVE SMOOTH",
"322 118 OFFCURVE",
"379 154 OFFCURVE",
"379 226 CURVE SMOOTH",
"379 266 OFFCURVE",
"366 292 OFFCURVE",
"339 292 CURVE SMOOTH",
"317 292 OFFCURVE",
"302 288 OFFCURVE",
"285 288 CURVE SMOOTH",
"267 288 OFFCURVE",
"262 299 OFFCURVE",
"262 320 CURVE SMOOTH",
"262 373 OFFCURVE",
"267 386 OFFCURVE",
"297 386 CURVE SMOOTH",
"346 386 OFFCURVE",
"402 384 OFFCURVE",
"402 440 CURVE SMOOTH",
"402 477 OFFCURVE",
"398 517 OFFCURVE",
"371 517 CURVE SMOOTH",
"357 517 OFFCURVE",
"318 504 OFFCURVE",
"305 504 CURVE SMOOTH",
"295 504 OFFCURVE",
"290 508 OFFCURVE",
"290 517 CURVE SMOOTH",
"290 542 OFFCURVE",
"370 608 OFFCURVE",
"423 608 CURVE SMOOTH",
"475 608 OFFCURVE",
"533 553 OFFCURVE",
"533 491 CURVE SMOOTH",
"533 450 OFFCURVE",
"508 414 OFFCURVE",
"480 388 CURVE",
"518 368 OFFCURVE",
"577 353 OFFCURVE",
"631 380 CURVE",
"643 510 LINE",
"592 510 LINE SMOOTH",
"573 510 OFFCURVE",
"566 517 OFFCURVE",
"571 532 CURVE SMOOTH",
"594 606 LINE SMOOTH",
"601 627 OFFCURVE",
"612 625 OFFCURVE",
"643 625 CURVE SMOOTH",
"886 625 LINE",
"886 628 OFFCURVE",
"886 632 OFFCURVE",
"886 635 CURVE SMOOTH",
"886 674 OFFCURVE",
"752 681 OFFCURVE",
"730 681 CURVE SMOOTH",
"715 681 OFFCURVE",
"706 652 OFFCURVE",
"694 652 CURVE SMOOTH",
"687 652 OFFCURVE",
"683 669 OFFCURVE",
"683 681 CURVE SMOOTH",
"683 712 OFFCURVE",
"722 779 OFFCURVE",
"756 779 CURVE SMOOTH",
"796 779 OFFCURVE",
"869 733 OFFCURVE",
"913 685 CURVE",
"925 694 LINE",
"863 783 OFFCURVE",
"763 833 OFFCURVE",
"726 833 CURVE SMOOTH",
"711 833 OFFCURVE",
"696 804 OFFCURVE",
"687 804 CURVE SMOOTH",
"680 804 OFFCURVE",
"675 821 OFFCURVE",
"675 832 CURVE SMOOTH",
"675 871 OFFCURVE",
"740 940 OFFCURVE",
"782 940 CURVE SMOOTH",
"867 940 OFFCURVE",
"1013 736 OFFCURVE",
"1023 625 CURVE",
"1108 625 LINE SMOOTH",
"1127 625 OFFCURVE",
"1135 618 OFFCURVE",
"1130 603 CURVE SMOOTH",
"1107 529 LINE SMOOTH",
"1100 508 OFFCURVE",
"1089 510 OFFCURVE",
"1070 510 CURVE",
"1012 510 LINE",
"1005 454 OFFCURVE",
"990 316 OFFCURVE",
"981 174 CURVE SMOOTH",
"977 96 OFFCURVE",
"913 -21 OFFCURVE",
"854 -21 CURVE SMOOTH",
"818 -21 OFFCURVE",
"829 25 OFFCURVE",
"834 62 CURVE SMOOTH",
"842 120 OFFCURVE",
"860 304 OFFCURVE",
"879 510 CURVE",
"776 510 LINE",
"769 454 OFFCURVE",
"754 316 OFFCURVE",
"746 174 CURVE SMOOTH",
"741 96 OFFCURVE",
"677 -21 OFFCURVE",
"618 -21 CURVE SMOOTH",
"583 -21 OFFCURVE",
"593 25 OFFCURVE",
"599 62 CURVE SMOOTH",
"603 94 OFFCURVE",
"610 165 OFFCURVE",
"619 260 CURVE",
"563 263 OFFCURVE",
"522 278 OFFCURVE",
"489 297 CURVE",
"506 274 OFFCURVE",
"517 243 OFFCURVE",
"517 207 CURVE SMOOTH",
"517 121 OFFCURVE",
"435 19 OFFCURVE",
"259 19 CURVE SMOOTH",
"138 19 OFFCURVE",
"43 85 OFFCURVE",
"43 181 CURVE SMOOTH"
);
}
);
width = 1070;
}
);
unicode = 0914;
},
{
glyphname = "aaMatra-deva";
lastChange = "2022-01-18 13:57:14 +0000";
layers = (
{
background = {
paths = (
{
closed = 1;
nodes = (
"0 629 LINE",
"-15 629 OFFCURVE",
"-25 627 OFFCURVE",
"-30 610 CURVE SMOOTH",
"-55 532 LINE SMOOTH",
"-60 517 OFFCURVE",
"-53 510 OFFCURVE",
"-34 510 CURVE SMOOTH",
"280 510 LINE",
"312 510 OFFCURVE",
"322 508 OFFCURVE",
"329 529 CURVE SMOOTH",
"354 607 LINE SMOOTH",
"359 622 OFFCURVE",
"352 629 OFFCURVE",
"333 629 CURVE SMOOTH"
);
},
{
closed = 1;
nodes = (
"87 541 LINE",
"64 295 OFFCURVE",
"47 117 OFFCURVE",
"40 63 CURVE SMOOTH",
"35 27 OFFCURVE",
"26 -23 OFFCURVE",
"65 -23 CURVE SMOOTH",
"122 -23 OFFCURVE",
"186 95 OFFCURVE",
"191 174 CURVE SMOOTH",
"203 361 OFFCURVE",
"211 396 OFFCURVE",
"224 538 CURVE"
);
},
{
closed = 1;
nodes = (
"0 606 LINE",
"-19 606 OFFCURVE",
"-31 609 OFFCURVE",
"-38 587 CURVE SMOOTH",
"-54 534 LINE SMOOTH",
"-59 519 OFFCURVE",
"-53 512 OFFCURVE",
"-34 512 CURVE SMOOTH",
"221 512 LINE",
"250 512 OFFCURVE",
"263 509 OFFCURVE",
"270 531 CURVE SMOOTH",
"287 584 LINE SMOOTH",
"292 599 OFFCURVE",
"285 606 OFFCURVE",
"266 606 CURVE SMOOTH"
);
},
{
closed = 1;
nodes = (
"87 541 LINE",
"87 541 OFFCURVE",
"53 162 OFFCURVE",
"39 56 CURVE SMOOTH",
"33 14 OFFCURVE",
"28 -23 OFFCURVE",
"59 -23 CURVE SMOOTH",
"100 -23 OFFCURVE",
"162 107 OFFCURVE",
"166 174 CURVE SMOOTH",
"177 361 OFFCURVE",
"200 538 OFFCURVE",
"200 538 CURVE"
);
}
);
};
layerId = "B0B60A8F-2DEB-4A58-A43B-60A0DADABD8F";
paths = (
{
closed = 1;
nodes = (
"-59 519 OFFCURVE",
"-53 512 OFFCURVE",
"-34 512 CURVE SMOOTH",
"84 512 LINE",
"76 421 OFFCURVE",
"51 144 OFFCURVE",
"39 56 CURVE SMOOTH",
"33 14 OFFCURVE",
"28 -23 OFFCURVE",
"59 -23 CURVE SMOOTH",
"100 -23 OFFCURVE",
"162 107 OFFCURVE",
"166 174 CURVE SMOOTH",
"174 318 OFFCURVE",
"190 456 OFFCURVE",
"197 512 CURVE",
"221 512 LINE SMOOTH",
"250 512 OFFCURVE",
"263 509 OFFCURVE",
"270 531 CURVE SMOOTH",
"287 584 LINE SMOOTH",
"292 599 OFFCURVE",
"285 606 OFFCURVE",
"266 606 CURVE SMOOTH",
"0 606 LINE SMOOTH",
"-19 606 OFFCURVE",
"-31 609 OFFCURVE",
"-38 587 CURVE SMOOTH",
"-54 534 LINE SMOOTH"
);
}
);
width = 221;
},
{
layerId = "C23C635F-568C-40B7-8839-28DDBF9C11D0";
paths = (
{
closed = 1;
nodes = (
"-60 517 OFFCURVE",
"-53 510 OFFCURVE",
"-34 510 CURVE SMOOTH",
"67 510 LINE",
"49 304 OFFCURVE",
"31 120 OFFCURVE",
"23 62 CURVE SMOOTH",
"18 25 OFFCURVE",
"10 -23 OFFCURVE",
"47 -23 CURVE SMOOTH",
"102 -23 OFFCURVE",
"165 97 OFFCURVE",
"170 174 CURVE SMOOTH",
"181 343 OFFCURVE",
"190 401 OFFCURVE",
"200 510 CURVE",
"254 510 LINE SMOOTH",
"285 510 OFFCURVE",
"296 508 OFFCURVE",
"303 529 CURVE SMOOTH",
"326 603 LINE SMOOTH",
"331 618 OFFCURVE",
"324 625 OFFCURVE",
"305 625 CURVE SMOOTH",
"0 625 LINE SMOOTH",
"-16 625 OFFCURVE",
"-26 624 OFFCURVE",
"-31 606 CURVE SMOOTH",
"-55 532 LINE SMOOTH"
);
}
);
width = 253.5;
}
);
unicode = 093E;
},
{
glyphname = "iMatra-deva";
lastChange = "2022-01-18 13:57:14 +0000";
layers = (
{
background = {
paths = (
{
closed = 1;
nodes = (
"198 704 OFFCURVE",
"178 860 OFFCURVE",
"329 860 CURVE SMOOTH",
"455 860 OFFCURVE",
"686 737 OFFCURVE",
"686 703 CURVE SMOOTH",
"686 695 OFFCURVE",
"680 680 OFFCURVE",
"680 672 CURVE SMOOTH",
"680 667 OFFCURVE",
"682 661 OFFCURVE",
"694 661 CURVE SMOOTH",
"736 661 OFFCURVE",
"801 753 OFFCURVE",
"799 804 CURVE SMOOTH",
"797 873 OFFCURVE",
"501 992 OFFCURVE",
"332 992 CURVE SMOOTH",
"161 992 OFFCURVE",
"38 845 OFFCURVE",
"86 605 CURVE",
"235 605 LINE"
);
},
{
closed = 1;
nodes = (
"0 629 LINE",
"-15 629 OFFCURVE",
"-25 627 OFFCURVE",
"-30 610 CURVE SMOOTH",
"-55 532 LINE SMOOTH",
"-60 517 OFFCURVE",
"-53 510 OFFCURVE",
"-34 510 CURVE SMOOTH",
"283 510 LINE",
"315 510 OFFCURVE",
"325 508 OFFCURVE",
"332 529 CURVE SMOOTH",
"357 607 LINE SMOOTH",
"362 622 OFFCURVE",
"355 629 OFFCURVE",
"336 629 CURVE SMOOTH"
);
},
{
closed = 1;
nodes = (
"87 541 LINE",
"64 295 OFFCURVE",
"47 117 OFFCURVE",
"40 63 CURVE SMOOTH",
"35 27 OFFCURVE",
"26 -23 OFFCURVE",
"65 -23 CURVE SMOOTH",
"122 -23 OFFCURVE",
"186 95 OFFCURVE",
"191 174 CURVE SMOOTH",
"203 361 OFFCURVE",
"211 396 OFFCURVE",
"224 538 CURVE"
);
},
{
closed = 1;
nodes = (
"0 606 LINE",
"-19 606 OFFCURVE",
"-31 609 OFFCURVE",
"-38 587 CURVE SMOOTH",
"-54 534 LINE SMOOTH",
"-59 519 OFFCURVE",
"-53 512 OFFCURVE",
"-34 512 CURVE SMOOTH",
"273 512 LINE",
"302 512 OFFCURVE",
"315 509 OFFCURVE",
"322 531 CURVE SMOOTH",
"339 584 LINE SMOOTH",
"344 599 OFFCURVE",
"337 606 OFFCURVE",
"318 606 CURVE SMOOTH"
);
},
{
closed = 1;
nodes = (
"99 541 LINE",
"99 541 OFFCURVE",
"65 162 OFFCURVE",
"51 56 CURVE SMOOTH",
"45 14 OFFCURVE",
"40 -23 OFFCURVE",
"71 -23 CURVE SMOOTH",
"112 -23 OFFCURVE",
"174 107 OFFCURVE",
"178 174 CURVE SMOOTH",
"189 361 OFFCURVE",
"212 538 OFFCURVE",
"212 538 CURVE"
);
},
{
closed = 1;
nodes = (
"180 729 OFFCURVE",
"174 873 OFFCURVE",
"329 873 CURVE SMOOTH",
"455 873 OFFCURVE",
"691 749 OFFCURVE",
"691 715 CURVE SMOOTH",
"691 707 OFFCURVE",
"685 691 OFFCURVE",
"685 681 CURVE SMOOTH",
"685 676 OFFCURVE",
"688 672 OFFCURVE",
"696 672 CURVE SMOOTH",
"721 672 OFFCURVE",
"791 749 OFFCURVE",
"789 801 CURVE SMOOTH",
"787 860 OFFCURVE",
"489 981 OFFCURVE",
"336 981 CURVE SMOOTH",
"166 981 OFFCURVE",
"52 836 OFFCURVE",
"98 595 CURVE",
"225 595 LINE"
);
}
);
};
layerId = "B0B60A8F-2DEB-4A58-A43B-60A0DADABD8F";
paths = (
{
closed = 1;
nodes = (
"-59 519 OFFCURVE",
"-53 512 OFFCURVE",
"-34 512 CURVE SMOOTH",
"96 512 LINE",
"88 421 OFFCURVE",
"63 144 OFFCURVE",
"51 56 CURVE SMOOTH",
"45 14 OFFCURVE",
"40 -23 OFFCURVE",
"71 -23 CURVE SMOOTH",
"112 -23 OFFCURVE",
"174 107 OFFCURVE",
"178 174 CURVE SMOOTH",
"186 318 OFFCURVE",
"202 456 OFFCURVE",
"209 512 CURVE",
"273 512 LINE SMOOTH",
"302 512 OFFCURVE",
"315 509 OFFCURVE",
"322 531 CURVE SMOOTH",
"339 584 LINE SMOOTH",
"344 599 OFFCURVE",
"337 606 OFFCURVE",
"318 606 CURVE SMOOTH",
"221 606 LINE",
"180 737 OFFCURVE",
"178 873 OFFCURVE",
"329 873 CURVE SMOOTH",
"455 873 OFFCURVE",
"691 749 OFFCURVE",
"691 715 CURVE SMOOTH",
"691 707 OFFCURVE",
"685 691 OFFCURVE",
"685 681 CURVE SMOOTH",
"685 676 OFFCURVE",
"688 672 OFFCURVE",
"696 672 CURVE SMOOTH",
"721 672 OFFCURVE",
"791 749 OFFCURVE",
"789 801 CURVE SMOOTH",
"787 860 OFFCURVE",
"489 981 OFFCURVE",
"336 981 CURVE SMOOTH",
"169 981 OFFCURVE",
"56 840 OFFCURVE",
"96 606 CURVE",
"0 606 LINE SMOOTH",
"-19 606 OFFCURVE",
"-31 609 OFFCURVE",
"-38 587 CURVE SMOOTH",
"-54 534 LINE SMOOTH"
);
}
);
width = 273;
},
{
layerId = "C23C635F-568C-40B7-8839-28DDBF9C11D0";
paths = (
{
closed = 1;
nodes = (
"-60 517 OFFCURVE",
"-53 510 OFFCURVE",
"-34 510 CURVE SMOOTH",
"86 510 LINE",
"67 304 OFFCURVE",
"50 120 OFFCURVE",
"42 62 CURVE SMOOTH",
"37 25 OFFCURVE",
"28 -23 OFFCURVE",
"66 -23 CURVE SMOOTH",
"120 -23 OFFCURVE",
"184 97 OFFCURVE",
"189 174 CURVE SMOOTH",
"199 343 OFFCURVE",
"209 401 OFFCURVE",
"219 510 CURVE",
"281 510 LINE SMOOTH",
"313 510 OFFCURVE",
"323 508 OFFCURVE",
"330 529 CURVE SMOOTH",
"354 603 LINE SMOOTH",
"359 618 OFFCURVE",
"352 625 OFFCURVE",
"333 625 CURVE SMOOTH",
"226 625 LINE",
"193 729 OFFCURVE",
"188 862 OFFCURVE",
"329 862 CURVE SMOOTH",
"455 862 OFFCURVE",
"687 739 OFFCURVE",
"687 705 CURVE SMOOTH",
"687 697 OFFCURVE",
"681 682 OFFCURVE",
"681 674 CURVE SMOOTH",
"681 669 OFFCURVE",
"683 663 OFFCURVE",
"694 663 CURVE SMOOTH",
"734 663 OFFCURVE",
"799 752 OFFCURVE",
"797 804 CURVE SMOOTH",
"795 871 OFFCURVE",
"499 990 OFFCURVE",
"333 990 CURVE SMOOTH",
"167 990 OFFCURVE",
"48 853 OFFCURVE",
"84 625 CURVE",
"0 625 LINE SMOOTH",
"-16 625 OFFCURVE",
"-26 624 OFFCURVE",
"-31 606 CURVE SMOOTH",
"-55 532 LINE SMOOTH"
);
}
);
width = 281.33333;
}
);
unicode = 093F;
},
{
glyphname = "iMatra_reph-deva";
lastChange = "2022-01-25 16:07:41 +0000";
layers = (
{
layerId = "B0B60A8F-2DEB-4A58-A43B-60A0DADABD8F";
paths = (
{
closed = 1;
nodes = (
"-59 519 OFFCURVE",
"-53 512 OFFCURVE",
"-34 512 CURVE SMOOTH",
"96 512 LINE",
"88 421 OFFCURVE",
"63 144 OFFCURVE",
"51 56 CURVE SMOOTH",
"45 14 OFFCURVE",
"40 -23 OFFCURVE",
"71 -23 CURVE SMOOTH",
"112 -23 OFFCURVE",
"174 107 OFFCURVE",
"178 174 CURVE SMOOTH",
"186 318 OFFCURVE",
"202 456 OFFCURVE",
"209 512 CURVE",
"273 512 LINE SMOOTH",
"302 512 OFFCURVE",
"315 509 OFFCURVE",
"322 531 CURVE SMOOTH",
"339 584 LINE SMOOTH",
"344 599 OFFCURVE",
"337 606 OFFCURVE",
"318 606 CURVE SMOOTH",
"221 606 LINE",
"180 737 OFFCURVE",
"178 873 OFFCURVE",
"329 873 CURVE SMOOTH",
"455 873 OFFCURVE",
"691 749 OFFCURVE",
"691 715 CURVE SMOOTH",
"691 707 OFFCURVE",
"685 691 OFFCURVE",
"685 681 CURVE SMOOTH",
"685 676 OFFCURVE",
"688 672 OFFCURVE",
"696 672 CURVE SMOOTH",
"721 672 OFFCURVE",
"791 749 OFFCURVE",
"789 801 CURVE SMOOTH",
"787 860 OFFCURVE",
"489 981 OFFCURVE",
"336 981 CURVE SMOOTH",
"169 981 OFFCURVE",
"56 840 OFFCURVE",
"96 606 CURVE",
"0 606 LINE SMOOTH",
"-19 606 OFFCURVE",
"-31 609 OFFCURVE",
"-38 587 CURVE SMOOTH",
"-54 534 LINE SMOOTH"
);
},
{
closed = 1;
nodes = (
"925 1000 OFFCURVE",
"830 1092 OFFCURVE",
"730 1092 CURVE SMOOTH",
"641 1092 OFFCURVE",
"533 980 OFFCURVE",
"533 823 CURVE",
"649 823 LINE",
"649 889 OFFCURVE",
"677 993 OFFCURVE",
"730 993 CURVE SMOOTH",
"782 993 OFFCURVE",
"818 926 OFFCURVE",
"818 903 CURVE SMOOTH",
"818 892 OFFCURVE",
"823 874 OFFCURVE",
"833 874 CURVE SMOOTH",
"863 874 OFFCURVE",
"925 942 OFFCURVE",
"925 969 CURVE SMOOTH"
);
}
);
width = 273;
},
{
layerId = "C23C635F-568C-40B7-8839-28DDBF9C11D0";
paths = (
{
closed = 1;
nodes = (
"-60 517 OFFCURVE",
"-53 510 OFFCURVE",
"-34 510 CURVE SMOOTH",
"86 510 LINE",
"67 304 OFFCURVE",
"50 120 OFFCURVE",
"42 62 CURVE SMOOTH",
"37 25 OFFCURVE",
"28 -23 OFFCURVE",
"66 -23 CURVE SMOOTH",
"120 -23 OFFCURVE",
"184 97 OFFCURVE",
"189 174 CURVE SMOOTH",
"199 343 OFFCURVE",
"209 401 OFFCURVE",
"219 510 CURVE",
"281 510 LINE SMOOTH",
"313 510 OFFCURVE",
"323 508 OFFCURVE",
"330 529 CURVE SMOOTH",
"354 603 LINE SMOOTH",
"359 618 OFFCURVE",
"352 625 OFFCURVE",
"333 625 CURVE SMOOTH",
"226 625 LINE",
"193 729 OFFCURVE",
"188 862 OFFCURVE",
"329 862 CURVE SMOOTH",
"455 862 OFFCURVE",
"687 739 OFFCURVE",
"687 705 CURVE SMOOTH",
"687 697 OFFCURVE",
"681 682 OFFCURVE",
"681 674 CURVE SMOOTH",
"681 669 OFFCURVE",
"683 663 OFFCURVE",
"694 663 CURVE SMOOTH",
"734 663 OFFCURVE",
"799 752 OFFCURVE",
"797 804 CURVE SMOOTH",
"795 871 OFFCURVE",
"499 990 OFFCURVE",
"333 990 CURVE SMOOTH",
"167 990 OFFCURVE",
"48 853 OFFCURVE",
"84 625 CURVE",
"0 625 LINE SMOOTH",
"-16 625 OFFCURVE",
"-25 624 OFFCURVE",
"-31 606 CURVE SMOOTH",
"-55 532 LINE SMOOTH"
);
},
{
closed = 1;
nodes = (
"936 990 OFFCURVE",
"841 1087 OFFCURVE",
"731 1087 CURVE SMOOTH",
"639 1087 OFFCURVE",
"524 979 OFFCURVE",
"524 822 CURVE",
"651 822 LINE",
"651 868 OFFCURVE",
"678 966 OFFCURVE",
"731 966 CURVE SMOOTH",
"783 966 OFFCURVE",
"811 904 OFFCURVE",
"811 886 CURVE SMOOTH",
"811 868 OFFCURVE",
"817 849 OFFCURVE",
"834 849 CURVE SMOOTH",
"868 849 OFFCURVE",
"936 920 OFFCURVE",
"936 952 CURVE SMOOTH"
);
}
);
width = 281;
}
);
},
{
glyphname = "iMatra_reph_anusvara-deva";
lastChange = "2022-01-25 16:08:51 +0000";
layers = (
{
layerId = "B0B60A8F-2DEB-4A58-A43B-60A0DADABD8F";
paths = (
{
closed = 1;
nodes = (
"-59 519 OFFCURVE",
"-53 512 OFFCURVE",
"-34 512 CURVE SMOOTH",
"96 512 LINE",
"88 421 OFFCURVE",
"63 144 OFFCURVE",
"51 56 CURVE SMOOTH",
"45 14 OFFCURVE",
"40 -23 OFFCURVE",
"71 -23 CURVE SMOOTH",
"112 -23 OFFCURVE",
"174 107 OFFCURVE",
"178 174 CURVE SMOOTH",
"186 318 OFFCURVE",
"202 456 OFFCURVE",
"209 512 CURVE",
"273 512 LINE SMOOTH",
"302 512 OFFCURVE",
"315 509 OFFCURVE",
"322 531 CURVE SMOOTH",
"339 584 LINE SMOOTH",
"344 599 OFFCURVE",
"337 606 OFFCURVE",
"318 606 CURVE SMOOTH",
"221 606 LINE",
"180 737 OFFCURVE",
"178 873 OFFCURVE",
"329 873 CURVE SMOOTH",
"455 873 OFFCURVE",
"691 749 OFFCURVE",
"691 715 CURVE SMOOTH",
"691 707 OFFCURVE",
"685 691 OFFCURVE",
"685 681 CURVE SMOOTH",
"685 676 OFFCURVE",
"688 672 OFFCURVE",
"696 672 CURVE SMOOTH",
"721 672 OFFCURVE",
"791 749 OFFCURVE",
"789 801 CURVE SMOOTH",
"787 860 OFFCURVE",
"489 981 OFFCURVE",
"336 981 CURVE SMOOTH",
"169 981 OFFCURVE",
"56 840 OFFCURVE",
"96 606 CURVE",
"0 606 LINE SMOOTH",
"-19 606 OFFCURVE",
"-31 609 OFFCURVE",
"-38 587 CURVE SMOOTH",
"-54 534 LINE SMOOTH"
);
},
{
closed = 1;
nodes = (
"925 1000 OFFCURVE",
"830 1092 OFFCURVE",
"730 1092 CURVE SMOOTH",
"641 1092 OFFCURVE",
"533 980 OFFCURVE",
"533 823 CURVE",
"649 823 LINE",
"649 889 OFFCURVE",
"677 993 OFFCURVE",
"730 993 CURVE SMOOTH",
"782 993 OFFCURVE",
"818 926 OFFCURVE",
"818 903 CURVE SMOOTH",
"818 892 OFFCURVE",
"823 874 OFFCURVE",
"833 874 CURVE SMOOTH",
"863 874 OFFCURVE",
"925 942 OFFCURVE",
"925 969 CURVE SMOOTH"
);
},
{
closed = 1;
nodes = (
"440 997 OFFCURVE",
"464 969 OFFCURVE",
"502 969 CURVE SMOOTH",
"538 969 OFFCURVE",
"564 994 OFFCURVE",
"564 1030 CURVE SMOOTH",
"564 1063 OFFCURVE",
"540 1091 OFFCURVE",
"502 1091 CURVE SMOOTH",
"466 1091 OFFCURVE",
"440 1066 OFFCURVE",
"440 1030 CURVE SMOOTH"
);
}
);
width = 273;
},
{
layerId = "C23C635F-568C-40B7-8839-28DDBF9C11D0";
paths = (
{
closed = 1;
nodes = (
"-60 517 OFFCURVE",
"-53 510 OFFCURVE",
"-34 510 CURVE SMOOTH",
"86 510 LINE",
"67 304 OFFCURVE",
"50 120 OFFCURVE",
"42 62 CURVE SMOOTH",
"37 25 OFFCURVE",
"28 -23 OFFCURVE",
"66 -23 CURVE SMOOTH",
"120 -23 OFFCURVE",
"184 97 OFFCURVE",
"189 174 CURVE SMOOTH",
"199 343 OFFCURVE",
"209 401 OFFCURVE",
"219 510 CURVE",
"281 510 LINE SMOOTH",
"313 510 OFFCURVE",
"323 508 OFFCURVE",
"330 529 CURVE SMOOTH",
"354 603 LINE SMOOTH",
"359 618 OFFCURVE",
"352 625 OFFCURVE",
"333 625 CURVE SMOOTH",
"226 625 LINE",
"193 729 OFFCURVE",
"188 862 OFFCURVE",
"329 862 CURVE SMOOTH",
"455 862 OFFCURVE",
"687 739 OFFCURVE",
"687 705 CURVE SMOOTH",
"687 697 OFFCURVE",
"681 682 OFFCURVE",
"681 674 CURVE SMOOTH",
"681 669 OFFCURVE",
"683 663 OFFCURVE",
"694 663 CURVE SMOOTH",
"734 663 OFFCURVE",
"799 752 OFFCURVE",
"797 804 CURVE SMOOTH",
"795 871 OFFCURVE",
"499 990 OFFCURVE",
"333 990 CURVE SMOOTH",
"167 990 OFFCURVE",
"48 853 OFFCURVE",
"84 625 CURVE",
"0 625 LINE SMOOTH",
"-16 625 OFFCURVE",
"-25 624 OFFCURVE",
"-31 606 CURVE SMOOTH",
"-55 532 LINE SMOOTH"
);
},
{
closed = 1;
nodes = (
"936 990 OFFCURVE",
"841 1087 OFFCURVE",
"731 1087 CURVE SMOOTH",
"639 1087 OFFCURVE",
"524 979 OFFCURVE",
"524 822 CURVE",
"651 822 LINE",
"651 868 OFFCURVE",
"678 966 OFFCURVE",
"731 966 CURVE SMOOTH",
"783 966 OFFCURVE",
"811 904 OFFCURVE",
"811 886 CURVE SMOOTH",
"811 868 OFFCURVE",
"817 849 OFFCURVE",
"834 849 CURVE SMOOTH",
"868 849 OFFCURVE",
"936 920 OFFCURVE",
"936 952 CURVE SMOOTH"
);
},
{
closed = 1;
nodes = (
"418 1027 OFFCURVE",
"449 990 OFFCURVE",
"499 990 CURVE SMOOTH",
"546 990 OFFCURVE",
"580 1023 OFFCURVE",
"580 1070 CURVE SMOOTH",
"580 1113 OFFCURVE",
"549 1150 OFFCURVE",
"499 1150 CURVE SMOOTH",
"452 1150 OFFCURVE",
"418 1117 OFFCURVE",
"418 1070 CURVE SMOOTH"
);
}
);
width = 281;
}
);
},
{
glyphname = "iiMatra-deva";
lastChange = "2022-01-18 13:57:14 +0000";
layers = (
{
background = {
paths = (
{
closed = 1;
nodes = (
"235 605 LINE",
"241 795 OFFCURVE",
"-89 997 OFFCURVE",
"-269 997 CURVE SMOOTH",
"-416 997 OFFCURVE",
"-520 836 OFFCURVE",
"-520 761 CURVE SMOOTH",
"-520 710 OFFCURVE",
"-411 663 OFFCURVE",
"-371 663 CURVE SMOOTH",
"-357 663 OFFCURVE",
"-353 671 OFFCURVE",
"-353 675 CURVE SMOOTH",
"-353 687 OFFCURVE",
"-371 699 OFFCURVE",
"-371 711 CURVE SMOOTH",
"-371 761 OFFCURVE",
"-324 869 OFFCURVE",
"-257 869 CURVE SMOOTH",
"-151 869 OFFCURVE",
"86 742 OFFCURVE",
"72 605 CURVE"
);
},
{
closed = 1;
nodes = (
"0 629 LINE",
"-15 629 OFFCURVE",
"-25 627 OFFCURVE",
"-30 610 CURVE SMOOTH",
"-55 532 LINE SMOOTH",
"-60 517 OFFCURVE",
"-53 510 OFFCURVE",
"-34 510 CURVE SMOOTH",
"283 510 LINE",
"315 510 OFFCURVE",
"325 508 OFFCURVE",
"332 529 CURVE SMOOTH",
"357 607 LINE SMOOTH",
"362 622 OFFCURVE",
"355 629 OFFCURVE",
"336 629 CURVE SMOOTH"
);
},
{
closed = 1;
nodes = (
"87 541 LINE",
"64 295 OFFCURVE",
"47 117 OFFCURVE",
"40 63 CURVE SMOOTH",
"35 27 OFFCURVE",
"26 -23 OFFCURVE",
"65 -23 CURVE SMOOTH",
"122 -23 OFFCURVE",
"186 95 OFFCURVE",
"191 174 CURVE SMOOTH",
"203 361 OFFCURVE",
"211 396 OFFCURVE",
"224 538 CURVE"
);
},
{
closed = 1;
nodes = (
"205 600 LINE",
"211 790 OFFCURVE",
"-94 988 OFFCURVE",
"-265 988 CURVE SMOOTH",
"-398 988 OFFCURVE",
"-508 840 OFFCURVE",
"-508 765 CURVE SMOOTH",
"-508 730 OFFCURVE",
"-411 679 OFFCURVE",
"-381 679 CURVE SMOOTH",
"-367 679 OFFCURVE",
"-363 687 OFFCURVE",
"-363 691 CURVE SMOOTH",
"-363 703 OFFCURVE",
"-381 715 OFFCURVE",
"-381 727 CURVE SMOOTH",
"-381 782 OFFCURVE",
"-329 881 OFFCURVE",
"-257 881 CURVE SMOOTH",
"-151 881 OFFCURVE",
"93 749 OFFCURVE",
"77 600 CURVE"
);
},
{
closed = 1;
nodes = (
"0 606 LINE",
"-19 606 OFFCURVE",
"-31 609 OFFCURVE",
"-38 587 CURVE SMOOTH",
"-54 534 LINE SMOOTH",
"-59 519 OFFCURVE",
"-53 512 OFFCURVE",
"-34 512 CURVE SMOOTH",
"221 512 LINE",
"250 512 OFFCURVE",
"263 509 OFFCURVE",
"270 531 CURVE SMOOTH",
"287 584 LINE SMOOTH",
"292 599 OFFCURVE",
"285 606 OFFCURVE",
"266 606 CURVE SMOOTH"
);
},
{
closed = 1;
nodes = (
"80 541 LINE",
"80 541 OFFCURVE",
"46 162 OFFCURVE",
"32 56 CURVE SMOOTH",
"26 14 OFFCURVE",
"21 -23 OFFCURVE",
"52 -23 CURVE SMOOTH",
"93 -23 OFFCURVE",
"155 107 OFFCURVE",
"159 174 CURVE SMOOTH",
"170 361 OFFCURVE",
"193 538 OFFCURVE",
"193 538 CURVE"
);
}
);
};
layerId = "B0B60A8F-2DEB-4A58-A43B-60A0DADABD8F";
paths = (
{
closed = 1;
nodes = (
"-508 730 OFFCURVE",
"-411 679 OFFCURVE",
"-381 679 CURVE SMOOTH",
"-367 679 OFFCURVE",
"-363 687 OFFCURVE",
"-363 691 CURVE SMOOTH",
"-363 703 OFFCURVE",
"-381 715 OFFCURVE",
"-381 727 CURVE SMOOTH",
"-381 782 OFFCURVE",
"-329 881 OFFCURVE",
"-257 881 CURVE SMOOTH",
"-152 881 OFFCURVE",
"86 753 OFFCURVE",
"78 606 CURVE",
"0 606 LINE SMOOTH",
"-19 606 OFFCURVE",
"-31 609 OFFCURVE",
"-38 587 CURVE SMOOTH",
"-54 534 LINE SMOOTH",
"-59 519 OFFCURVE",
"-53 512 OFFCURVE",
"-34 512 CURVE SMOOTH",
"77 512 LINE",
"69 421 OFFCURVE",
"44 144 OFFCURVE",
"32 56 CURVE SMOOTH",
"26 14 OFFCURVE",
"21 -23 OFFCURVE",
"52 -23 CURVE SMOOTH",
"93 -23 OFFCURVE",
"155 107 OFFCURVE",
"159 174 CURVE SMOOTH",
"167 318 OFFCURVE",
"183 456 OFFCURVE",
"190 512 CURVE",
"221 512 LINE SMOOTH",
"250 512 OFFCURVE",
"263 509 OFFCURVE",
"270 531 CURVE SMOOTH",
"287 584 LINE SMOOTH",
"292 599 OFFCURVE",
"285 606 OFFCURVE",
"266 606 CURVE SMOOTH",
"205 606 LINE",
"205 794 OFFCURVE",
"-96 988 OFFCURVE",
"-265 988 CURVE SMOOTH",
"-398 988 OFFCURVE",
"-508 840 OFFCURVE",
"-508 765 CURVE SMOOTH"
);
}
);
width = 221;
},
{
layerId = "C23C635F-568C-40B7-8839-28DDBF9C11D0";
paths = (
{
closed = 1;
nodes = (
"-518 713 OFFCURVE",
"-411 666 OFFCURVE",
"-373 666 CURVE SMOOTH",
"-359 666 OFFCURVE",
"-355 674 OFFCURVE",
"-355 678 CURVE SMOOTH",
"-355 690 OFFCURVE",
"-373 702 OFFCURVE",
"-373 714 CURVE SMOOTH",
"-373 765 OFFCURVE",
"-325 871 OFFCURVE",
"-257 871 CURVE SMOOTH",
"-156 871 OFFCURVE",
"64 756 OFFCURVE",
"73 625 CURVE",
"0 625 LINE SMOOTH",
"-16 625 OFFCURVE",
"-26 624 OFFCURVE",
"-31 606 CURVE SMOOTH",
"-55 532 LINE SMOOTH",
"-60 517 OFFCURVE",
"-53 510 OFFCURVE",
"-34 510 CURVE SMOOTH",
"83 510 LINE",
"64 304 OFFCURVE",
"47 120 OFFCURVE",
"39 62 CURVE SMOOTH",
"34 25 OFFCURVE",
"25 -23 OFFCURVE",
"63 -23 CURVE SMOOTH",
"117 -23 OFFCURVE",
"181 97 OFFCURVE",
"186 174 CURVE SMOOTH",
"196 343 OFFCURVE",
"206 401 OFFCURVE",
"216 510 CURVE",
"273 510 LINE SMOOTH",
"304 510 OFFCURVE",
"315 508 OFFCURVE",
"322 529 CURVE SMOOTH",
"345 603 LINE SMOOTH",
"350 618 OFFCURVE",
"343 625 OFFCURVE",
"324 625 CURVE SMOOTH",
"229 625 LINE",
"213 809 OFFCURVE",
"-97 996 OFFCURVE",
"-268 996 CURVE SMOOTH",
"-413 996 OFFCURVE",
"-518 837 OFFCURVE",
"-518 762 CURVE SMOOTH"
);
}
);
width = 272.66667;
}
);
unicode = 0940;
},
{
glyphname = "iiMatra_reph-deva";
lastChange = "2022-01-25 16:09:50 +0000";
layers = (
{
layerId = "B0B60A8F-2DEB-4A58-A43B-60A0DADABD8F";
paths = (
{
closed = 1;
nodes = (
"-508 730 OFFCURVE",
"-411 679 OFFCURVE",
"-381 679 CURVE SMOOTH",
"-367 679 OFFCURVE",
"-363 687 OFFCURVE",
"-363 691 CURVE SMOOTH",
"-363 703 OFFCURVE",
"-381 715 OFFCURVE",
"-381 727 CURVE SMOOTH",
"-381 782 OFFCURVE",
"-329 881 OFFCURVE",
"-257 881 CURVE SMOOTH",
"-152 881 OFFCURVE",
"86 753 OFFCURVE",
"78 606 CURVE",
"0 606 LINE SMOOTH",
"-19 606 OFFCURVE",
"-31 609 OFFCURVE",
"-38 587 CURVE SMOOTH",
"-54 534 LINE SMOOTH",
"-59 519 OFFCURVE",
"-53 512 OFFCURVE",
"-34 512 CURVE SMOOTH",
"77 512 LINE",
"69 421 OFFCURVE",
"44 144 OFFCURVE",
"32 56 CURVE SMOOTH",
"26 14 OFFCURVE",
"21 -23 OFFCURVE",
"52 -23 CURVE SMOOTH",
"93 -23 OFFCURVE",
"155 107 OFFCURVE",
"159 174 CURVE SMOOTH",
"167 318 OFFCURVE",
"183 456 OFFCURVE",
"190 512 CURVE",
"221 512 LINE SMOOTH",
"250 512 OFFCURVE",
"263 509 OFFCURVE",
"270 531 CURVE SMOOTH",
"287 584 LINE SMOOTH",
"292 599 OFFCURVE",
"285 606 OFFCURVE",
"266 606 CURVE SMOOTH",
"205 606 LINE",
"205 794 OFFCURVE",
"-96 988 OFFCURVE",
"-265 988 CURVE SMOOTH",
"-398 988 OFFCURVE",
"-508 840 OFFCURVE",
"-508 765 CURVE SMOOTH"
);
},
{
closed = 1;
nodes = (
"481 783 OFFCURVE",
"386 875 OFFCURVE",
"286 875 CURVE SMOOTH",
"197 875 OFFCURVE",
"89 763 OFFCURVE",
"89 606 CURVE",
"205 606 LINE",
"205 672 OFFCURVE",
"233 776 OFFCURVE",
"286 776 CURVE SMOOTH",
"338 776 OFFCURVE",
"374 709 OFFCURVE",
"374 686 CURVE SMOOTH",
"374 675 OFFCURVE",
"379 657 OFFCURVE",
"389 657 CURVE SMOOTH",
"419 657 OFFCURVE",
"481 725 OFFCURVE",
"481 752 CURVE SMOOTH"
);
}
);
width = 221;
},
{
layerId = "C23C635F-568C-40B7-8839-28DDBF9C11D0";
paths = (
{
closed = 1;
nodes = (
"-518 713 OFFCURVE",
"-411 666 OFFCURVE",
"-373 666 CURVE SMOOTH",
"-359 666 OFFCURVE",
"-355 674 OFFCURVE",
"-355 678 CURVE SMOOTH",
"-355 690 OFFCURVE",
"-373 702 OFFCURVE",
"-373 714 CURVE SMOOTH",
"-373 765 OFFCURVE",
"-325 871 OFFCURVE",
"-257 871 CURVE SMOOTH",
"-156 871 OFFCURVE",
"64 756 OFFCURVE",
"73 625 CURVE",
"0 625 LINE SMOOTH",
"-16 625 OFFCURVE",
"-25 624 OFFCURVE",
"-31 606 CURVE SMOOTH",
"-55 532 LINE SMOOTH",
"-60 517 OFFCURVE",
"-53 510 OFFCURVE",
"-34 510 CURVE SMOOTH",
"83 510 LINE",
"64 304 OFFCURVE",
"47 120 OFFCURVE",
"39 62 CURVE SMOOTH",
"34 25 OFFCURVE",
"25 -23 OFFCURVE",
"63 -23 CURVE SMOOTH",
"117 -23 OFFCURVE",
"181 97 OFFCURVE",
"186 174 CURVE SMOOTH",
"196 343 OFFCURVE",
"206 401 OFFCURVE",
"216 510 CURVE",
"273 510 LINE SMOOTH",
"304 510 OFFCURVE",
"315 508 OFFCURVE",
"322 529 CURVE SMOOTH",
"345 603 LINE SMOOTH",
"350 618 OFFCURVE",
"343 625 OFFCURVE",
"324 625 CURVE SMOOTH",
"229 625 LINE",
"213 809 OFFCURVE",
"-97 996 OFFCURVE",
"-268 996 CURVE SMOOTH",
"-413 996 OFFCURVE",
"-518 837 OFFCURVE",
"-518 762 CURVE SMOOTH"
);
},
{
closed = 1;
nodes = (
"514 793 OFFCURVE",
"419 890 OFFCURVE",
"309 890 CURVE SMOOTH",
"217 890 OFFCURVE",
"102 782 OFFCURVE",
"102 625 CURVE",
"229 625 LINE",
"229 671 OFFCURVE",
"256 769 OFFCURVE",
"309 769 CURVE SMOOTH",
"361 769 OFFCURVE",
"389 707 OFFCURVE",
"389 689 CURVE SMOOTH",
"389 671 OFFCURVE",
"395 652 OFFCURVE",
"412 652 CURVE SMOOTH",
"446 652 OFFCURVE",
"514 723 OFFCURVE",
"514 755 CURVE SMOOTH"
);
}
);
width = 273;
}
);
},
{
glyphname = "iiMatra_reph_anusvara-deva";
lastChange = "2022-01-25 16:11:12 +0000";
layers = (
{
layerId = "B0B60A8F-2DEB-4A58-A43B-60A0DADABD8F";
paths = (
{
closed = 1;
nodes = (
"-508 730 OFFCURVE",
"-411 679 OFFCURVE",
"-381 679 CURVE SMOOTH",
"-367 679 OFFCURVE",
"-363 687 OFFCURVE",
"-363 691 CURVE SMOOTH",
"-363 703 OFFCURVE",
"-381 715 OFFCURVE",
"-381 727 CURVE SMOOTH",
"-381 782 OFFCURVE",
"-329 881 OFFCURVE",
"-257 881 CURVE SMOOTH",
"-152 881 OFFCURVE",
"86 753 OFFCURVE",
"78 606 CURVE",
"0 606 LINE SMOOTH",
"-19 606 OFFCURVE",
"-31 609 OFFCURVE",
"-38 587 CURVE SMOOTH",
"-54 534 LINE SMOOTH",
"-59 519 OFFCURVE",
"-53 512 OFFCURVE",
"-34 512 CURVE SMOOTH",
"77 512 LINE",
"69 421 OFFCURVE",
"44 144 OFFCURVE",
"32 56 CURVE SMOOTH",
"26 14 OFFCURVE",
"21 -23 OFFCURVE",
"52 -23 CURVE SMOOTH",
"93 -23 OFFCURVE",
"155 107 OFFCURVE",
"159 174 CURVE SMOOTH",
"167 318 OFFCURVE",
"183 456 OFFCURVE",
"190 512 CURVE",
"221 512 LINE SMOOTH",
"250 512 OFFCURVE",
"263 509 OFFCURVE",
"270 531 CURVE SMOOTH",
"287 584 LINE SMOOTH",
"292 599 OFFCURVE",
"285 606 OFFCURVE",
"266 606 CURVE SMOOTH",
"205 606 LINE",
"205 794 OFFCURVE",
"-96 988 OFFCURVE",
"-265 988 CURVE SMOOTH",
"-398 988 OFFCURVE",
"-508 840 OFFCURVE",
"-508 765 CURVE SMOOTH"
);
},
{
closed = 1;
nodes = (
"481 783 OFFCURVE",
"386 875 OFFCURVE",
"286 875 CURVE SMOOTH",
"197 875 OFFCURVE",
"89 763 OFFCURVE",
"89 606 CURVE",
"205 606 LINE",
"205 672 OFFCURVE",
"233 776 OFFCURVE",
"286 776 CURVE SMOOTH",
"338 776 OFFCURVE",
"374 709 OFFCURVE",
"374 686 CURVE SMOOTH",
"374 675 OFFCURVE",
"379 657 OFFCURVE",
"389 657 CURVE SMOOTH",
"419 657 OFFCURVE",
"481 725 OFFCURVE",
"481 752 CURVE SMOOTH"
);
},
{
closed = 1;
nodes = (
"71 858 OFFCURVE",
"95 830 OFFCURVE",
"133 830 CURVE SMOOTH",
"169 830 OFFCURVE",
"195 855 OFFCURVE",
"195 891 CURVE SMOOTH",
"195 924 OFFCURVE",
"171 952 OFFCURVE",
"133 952 CURVE SMOOTH",
"97 952 OFFCURVE",
"71 927 OFFCURVE",
"71 891 CURVE SMOOTH"
);
}
);
width = 221;
},
{
layerId = "C23C635F-568C-40B7-8839-28DDBF9C11D0";
paths = (
{
closed = 1;
nodes = (
"-518 713 OFFCURVE",
"-411 666 OFFCURVE",
"-373 666 CURVE SMOOTH",
"-359 666 OFFCURVE",
"-355 674 OFFCURVE",
"-355 678 CURVE SMOOTH",
"-355 690 OFFCURVE",
"-373 702 OFFCURVE",
"-373 714 CURVE SMOOTH",
"-373 765 OFFCURVE",
"-325 871 OFFCURVE",
"-257 871 CURVE SMOOTH",
"-156 871 OFFCURVE",
"64 756 OFFCURVE",
"73 625 CURVE",
"0 625 LINE SMOOTH",
"-16 625 OFFCURVE",
"-25 624 OFFCURVE",
"-31 606 CURVE SMOOTH",
"-55 532 LINE SMOOTH",
"-60 517 OFFCURVE",
"-53 510 OFFCURVE",
"-34 510 CURVE SMOOTH",
"83 510 LINE",
"64 304 OFFCURVE",
"47 120 OFFCURVE",
"39 62 CURVE SMOOTH",
"34 25 OFFCURVE",
"25 -23 OFFCURVE",
"63 -23 CURVE SMOOTH",
"117 -23 OFFCURVE",
"181 97 OFFCURVE",
"186 174 CURVE SMOOTH",
"196 343 OFFCURVE",
"206 401 OFFCURVE",
"216 510 CURVE",
"273 510 LINE SMOOTH",
"304 510 OFFCURVE",
"315 508 OFFCURVE",
"322 529 CURVE SMOOTH",
"345 603 LINE SMOOTH",
"350 618 OFFCURVE",
"343 625 OFFCURVE",
"324 625 CURVE SMOOTH",
"229 625 LINE",
"213 809 OFFCURVE",
"-97 996 OFFCURVE",
"-268 996 CURVE SMOOTH",
"-413 996 OFFCURVE",
"-518 837 OFFCURVE",
"-518 762 CURVE SMOOTH"
);
},
{
closed = 1;
nodes = (
"514 793 OFFCURVE",
"419 890 OFFCURVE",
"309 890 CURVE SMOOTH",
"217 890 OFFCURVE",
"102 782 OFFCURVE",
"102 625 CURVE",
"229 625 LINE",
"229 671 OFFCURVE",
"256 769 OFFCURVE",
"309 769 CURVE SMOOTH",
"361 769 OFFCURVE",
"389 707 OFFCURVE",
"389 689 CURVE SMOOTH",
"389 671 OFFCURVE",
"395 652 OFFCURVE",
"412 652 CURVE SMOOTH",
"446 652 OFFCURVE",
"514 723 OFFCURVE",
"514 755 CURVE SMOOTH"
);
},
{
closed = 1;
nodes = (
"61 892 OFFCURVE",
"92 855 OFFCURVE",
"142 855 CURVE SMOOTH",
"189 855 OFFCURVE",
"223 888 OFFCURVE",
"223 935 CURVE SMOOTH",
"223 978 OFFCURVE",
"192 1015 OFFCURVE",
"142 1015 CURVE SMOOTH",
"95 1015 OFFCURVE",
"61 982 OFFCURVE",
"61 935 CURVE SMOOTH"
);
}
);
width = 273;
}
);
},
{
glyphname = "oCandraMatra-deva";
lastChange = "2022-01-25 16:12:51 +0000";
layers = (
{
layerId = "B0B60A8F-2DEB-4A58-A43B-60A0DADABD8F";
paths = (
{
closed = 1;
nodes = (
"-204 775 OFFCURVE",
"-199 761 OFFCURVE",
"-192 761 CURVE SMOOTH",
"-182 761 OFFCURVE",
"-169 790 OFFCURVE",
"-156 790 CURVE SMOOTH",
"-108 790 OFFCURVE",
"97 704 OFFCURVE",
"97 646 CURVE SMOOTH",
"97 634 OFFCURVE",
"95 617 OFFCURVE",
"93 606 CURVE",
"0 606 LINE SMOOTH",
"-19 606 OFFCURVE",
"-31 609 OFFCURVE",
"-38 587 CURVE SMOOTH",
"-54 534 LINE SMOOTH",
"-59 519 OFFCURVE",
"-53 512 OFFCURVE",
"-34 512 CURVE SMOOTH",
"84 512 LINE",
"76 421 OFFCURVE",
"51 144 OFFCURVE",
"39 56 CURVE SMOOTH",
"33 14 OFFCURVE",
"28 -23 OFFCURVE",
"59 -23 CURVE SMOOTH",
"100 -23 OFFCURVE",
"162 107 OFFCURVE",
"166 174 CURVE SMOOTH",
"174 318 OFFCURVE",
"190 456 OFFCURVE",
"197 512 CURVE",
"213 512 LINE SMOOTH",
"242 512 OFFCURVE",
"255 509 OFFCURVE",
"262 531 CURVE SMOOTH",
"279 584 LINE SMOOTH",
"284 599 OFFCURVE",
"277 606 OFFCURVE",
"258 606 CURVE SMOOTH",
"205 606 LINE",
"194 710 OFFCURVE",
"-8 916 OFFCURVE",
"-99 916 CURVE SMOOTH",
"-146 916 OFFCURVE",
"-204 835 OFFCURVE",
"-204 789 CURVE SMOOTH"
);
},
{
closed = 1;
nodes = (
"6 911 LINE",
"6 911 OFFCURVE",
"-24 866 OFFCURVE",
"-23 820 CURVE SMOOTH",
"-21 752 OFFCURVE",
"55 706 OFFCURVE",
"122 706 CURVE SMOOTH",
"236 706 OFFCURVE",
"328 804 OFFCURVE",
"382 887 CURVE",
"286 916 LINE",
"253 857 OFFCURVE",
"216 799 OFFCURVE",
"147 799 CURVE SMOOTH",
"108 799 OFFCURVE",
"45 817 OFFCURVE",
"45 862 CURVE SMOOTH",
"45 877 OFFCURVE",
"54 893 OFFCURVE",
"54 893 CURVE"
);
}
);
width = 213;
},
{
layerId = "C23C635F-568C-40B7-8839-28DDBF9C11D0";
paths = (
{
closed = 1;
nodes = (
"-215 763 OFFCURVE",
"-210 749 OFFCURVE",
"-201 749 CURVE SMOOTH",
"-190 749 OFFCURVE",
"-179 778 OFFCURVE",
"-164 778 CURVE SMOOTH",
"-113 778 OFFCURVE",
"92 702 OFFCURVE",
"92 644 CURVE SMOOTH",
"92 638 OFFCURVE",
"91 631 OFFCURVE",
"91 625 CURVE",
"0 625 LINE SMOOTH",
"-16 625 OFFCURVE",
"-25 624 OFFCURVE",
"-31 606 CURVE SMOOTH",
"-55 532 LINE SMOOTH",
"-60 517 OFFCURVE",
"-53 510 OFFCURVE",
"-34 510 CURVE SMOOTH",
"84 510 LINE",
"65 304 OFFCURVE",
"48 120 OFFCURVE",
"40 62 CURVE SMOOTH",
"35 25 OFFCURVE",
"26 -23 OFFCURVE",
"64 -23 CURVE SMOOTH",
"118 -23 OFFCURVE",
"182 97 OFFCURVE",
"187 174 CURVE SMOOTH",
"197 343 OFFCURVE",
"207 401 OFFCURVE",
"217 510 CURVE",
"255 510 LINE SMOOTH",
"286 510 OFFCURVE",
"297 508 OFFCURVE",
"304 529 CURVE SMOOTH",
"327 603 LINE SMOOTH",
"332 618 OFFCURVE",
"325 625 OFFCURVE",
"306 625 CURVE SMOOTH",
"219 625 LINE",
"202 728 OFFCURVE",
"-10 928 OFFCURVE",
"-94 928 CURVE SMOOTH",
"-149 928 OFFCURVE",
"-215 823 OFFCURVE",
"-215 777 CURVE SMOOTH"
);
},
{
closed = 1;
nodes = (
"-13 933 LINE",
"-13 933 OFFCURVE",
"-46 886 OFFCURVE",
"-45 835 CURVE SMOOTH",
"-44 760 OFFCURVE",
"36 711 OFFCURVE",
"115 711 CURVE SMOOTH",
"215 711 OFFCURVE",
"312 792 OFFCURVE",
"383 903 CURVE",
"264 937 LINE",
"229 875 OFFCURVE",
"194 825 OFFCURVE",
"135 825 CURVE SMOOTH",
"106 825 OFFCURVE",
"43 837 OFFCURVE",
"43 877 CURVE SMOOTH",
"43 895 OFFCURVE",
"52 908 OFFCURVE",
"52 908 CURVE"
);
}
);
width = 255;
}
);
unicode = 0949;
},
{
glyphname = "oMatra-deva";
lastChange = "2022-01-18 13:57:14 +0000";
layers = (
{
background = {
paths = (
{
closed = 1;
nodes = (
"223 616 LINE",
"223 714 OFFCURVE",
"-6 930 OFFCURVE",
"-93 930 CURVE SMOOTH",
"-149 930 OFFCURVE",
"-217 820 OFFCURVE",
"-217 774 CURVE SMOOTH",
"-217 760 OFFCURVE",
"-212 746 OFFCURVE",
"-203 746 CURVE SMOOTH",
"-192 746 OFFCURVE",
"-181 775 OFFCURVE",
"-166 775 CURVE SMOOTH",
"-114 775 OFFCURVE",
"91 701 OFFCURVE",
"91 643 CURVE SMOOTH",
"91 635 OFFCURVE",
"89 624 OFFCURVE",
"87 616 CURVE"
);
},
{
closed = 1;
nodes = (
"0 629 LINE",
"-15 629 OFFCURVE",
"-25 627 OFFCURVE",
"-30 610 CURVE SMOOTH",
"-55 532 LINE SMOOTH",
"-60 517 OFFCURVE",
"-53 510 OFFCURVE",
"-34 510 CURVE SMOOTH",
"283 510 LINE",
"315 510 OFFCURVE",
"325 508 OFFCURVE",
"332 529 CURVE SMOOTH",
"357 607 LINE SMOOTH",
"362 622 OFFCURVE",
"355 629 OFFCURVE",
"336 629 CURVE SMOOTH"
);
},
{
closed = 1;
nodes = (
"87 541 LINE",
"64 295 OFFCURVE",
"47 117 OFFCURVE",
"40 63 CURVE SMOOTH",
"35 27 OFFCURVE",
"26 -23 OFFCURVE",
"65 -23 CURVE SMOOTH",
"122 -23 OFFCURVE",
"186 95 OFFCURVE",
"191 174 CURVE SMOOTH",
"203 361 OFFCURVE",
"211 396 OFFCURVE",
"224 538 CURVE"
);
},
{
closed = 1;
nodes = (
"0 606 LINE",
"-19 606 OFFCURVE",
"-31 609 OFFCURVE",
"-38 587 CURVE SMOOTH",
"-54 534 LINE SMOOTH",
"-59 519 OFFCURVE",
"-53 512 OFFCURVE",
"-34 512 CURVE SMOOTH",
"213 512 LINE",
"242 512 OFFCURVE",
"255 509 OFFCURVE",
"262 531 CURVE SMOOTH",
"279 584 LINE SMOOTH",
"284 599 OFFCURVE",
"277 606 OFFCURVE",
"258 606 CURVE SMOOTH"
);
},
{
closed = 1;
nodes = (
"87 541 LINE",
"87 541 OFFCURVE",
"53 162 OFFCURVE",
"39 56 CURVE SMOOTH",
"33 14 OFFCURVE",
"28 -23 OFFCURVE",
"59 -23 CURVE SMOOTH",
"100 -23 OFFCURVE",
"162 107 OFFCURVE",
"166 174 CURVE SMOOTH",
"177 361 OFFCURVE",
"200 538 OFFCURVE",
"200 538 CURVE"
);
},
{
closed = 1;
nodes = (
"206 597 LINE",
"206 698 OFFCURVE",
"-5 916 OFFCURVE",
"-99 916 CURVE SMOOTH",
"-146 916 OFFCURVE",
"-204 835 OFFCURVE",
"-204 789 CURVE SMOOTH",
"-204 775 OFFCURVE",
"-199 761 OFFCURVE",
"-192 761 CURVE SMOOTH",
"-182 761 OFFCURVE",
"-169 790 OFFCURVE",
"-156 790 CURVE SMOOTH",
"-108 790 OFFCURVE",
"97 704 OFFCURVE",
"97 646 CURVE SMOOTH",
"97 630 OFFCURVE",
"93 605 OFFCURVE",
"91 597 CURVE"
);
}
);
};
layerId = "B0B60A8F-2DEB-4A58-A43B-60A0DADABD8F";
paths = (
{
closed = 1;
nodes = (
"-204 775 OFFCURVE",
"-199 761 OFFCURVE",
"-192 761 CURVE SMOOTH",
"-182 761 OFFCURVE",
"-169 790 OFFCURVE",
"-156 790 CURVE SMOOTH",
"-108 790 OFFCURVE",
"97 704 OFFCURVE",
"97 646 CURVE SMOOTH",
"97 634 OFFCURVE",
"95 617 OFFCURVE",
"93 606 CURVE",
"0 606 LINE SMOOTH",
"-19 606 OFFCURVE",
"-31 609 OFFCURVE",
"-38 587 CURVE SMOOTH",
"-54 534 LINE SMOOTH",
"-59 519 OFFCURVE",
"-53 512 OFFCURVE",
"-34 512 CURVE SMOOTH",
"84 512 LINE",
"76 421 OFFCURVE",
"51 144 OFFCURVE",
"39 56 CURVE SMOOTH",
"33 14 OFFCURVE",
"28 -23 OFFCURVE",
"59 -23 CURVE SMOOTH",
"100 -23 OFFCURVE",
"162 107 OFFCURVE",
"166 174 CURVE SMOOTH",
"174 318 OFFCURVE",
"190 456 OFFCURVE",
"197 512 CURVE",
"213 512 LINE SMOOTH",
"242 512 OFFCURVE",
"255 509 OFFCURVE",
"262 531 CURVE SMOOTH",
"279 584 LINE SMOOTH",
"284 599 OFFCURVE",
"277 606 OFFCURVE",
"258 606 CURVE SMOOTH",
"205 606 LINE",
"194 710 OFFCURVE",
"-8 916 OFFCURVE",
"-99 916 CURVE SMOOTH",
"-146 916 OFFCURVE",
"-204 835 OFFCURVE",
"-204 789 CURVE SMOOTH"
);
}
);
width = 213;
},
{
layerId = "C23C635F-568C-40B7-8839-28DDBF9C11D0";
paths = (
{
closed = 1;
nodes = (
"-215 763 OFFCURVE",
"-210 749 OFFCURVE",
"-201 749 CURVE SMOOTH",
"-190 749 OFFCURVE",
"-179 778 OFFCURVE",
"-164 778 CURVE SMOOTH",
"-113 778 OFFCURVE",
"92 702 OFFCURVE",
"92 644 CURVE SMOOTH",
"92 638 OFFCURVE",
"91 631 OFFCURVE",
"91 625 CURVE",
"0 625 LINE SMOOTH",
"-16 625 OFFCURVE",
"-26 624 OFFCURVE",
"-31 606 CURVE SMOOTH",
"-55 532 LINE SMOOTH",
"-60 517 OFFCURVE",
"-53 510 OFFCURVE",
"-34 510 CURVE SMOOTH",
"84 510 LINE",
"65 304 OFFCURVE",
"48 120 OFFCURVE",
"40 62 CURVE SMOOTH",
"35 25 OFFCURVE",
"26 -23 OFFCURVE",
"64 -23 CURVE SMOOTH",
"118 -23 OFFCURVE",
"182 97 OFFCURVE",
"187 174 CURVE SMOOTH",
"197 343 OFFCURVE",
"207 401 OFFCURVE",
"217 510 CURVE",
"255 510 LINE SMOOTH",
"286 510 OFFCURVE",
"297 508 OFFCURVE",
"304 529 CURVE SMOOTH",
"327 603 LINE SMOOTH",
"332 618 OFFCURVE",
"325 625 OFFCURVE",
"306 625 CURVE SMOOTH",
"219 625 LINE",
"202 728 OFFCURVE",
"-10 928 OFFCURVE",
"-94 928 CURVE SMOOTH",
"-149 928 OFFCURVE",
"-215 823 OFFCURVE",
"-215 777 CURVE SMOOTH"
);
}
);
width = 254.66667;
}
);
unicode = 094B;
},
{
glyphname = "oMatra_reph-deva";
lastChange = "2022-01-25 16:13:49 +0000";
layers = (
{
layerId = "B0B60A8F-2DEB-4A58-A43B-60A0DADABD8F";
paths = (
{
closed = 1;
nodes = (
"-204 775 OFFCURVE",
"-199 761 OFFCURVE",
"-192 761 CURVE SMOOTH",
"-182 761 OFFCURVE",
"-169 790 OFFCURVE",
"-156 790 CURVE SMOOTH",
"-108 790 OFFCURVE",
"97 704 OFFCURVE",
"97 646 CURVE SMOOTH",
"97 634 OFFCURVE",
"95 617 OFFCURVE",
"93 606 CURVE",
"0 606 LINE SMOOTH",
"-19 606 OFFCURVE",
"-31 609 OFFCURVE",
"-38 587 CURVE SMOOTH",
"-54 534 LINE SMOOTH",
"-59 519 OFFCURVE",
"-53 512 OFFCURVE",
"-34 512 CURVE SMOOTH",
"84 512 LINE",
"76 421 OFFCURVE",
"51 144 OFFCURVE",
"39 56 CURVE SMOOTH",
"33 14 OFFCURVE",
"28 -23 OFFCURVE",
"59 -23 CURVE SMOOTH",
"100 -23 OFFCURVE",
"162 107 OFFCURVE",
"166 174 CURVE SMOOTH",
"174 318 OFFCURVE",
"190 456 OFFCURVE",
"197 512 CURVE",
"213 512 LINE SMOOTH",
"242 512 OFFCURVE",
"255 509 OFFCURVE",
"262 531 CURVE SMOOTH",
"279 584 LINE SMOOTH",
"284 599 OFFCURVE",
"277 606 OFFCURVE",
"258 606 CURVE SMOOTH",
"205 606 LINE",
"194 710 OFFCURVE",
"-8 916 OFFCURVE",
"-99 916 CURVE SMOOTH",
"-146 916 OFFCURVE",
"-204 835 OFFCURVE",
"-204 789 CURVE SMOOTH"
);
},
{
closed = 1;
nodes = (
"481 783 OFFCURVE",
"386 875 OFFCURVE",
"286 875 CURVE SMOOTH",
"197 875 OFFCURVE",
"89 763 OFFCURVE",
"89 606 CURVE",
"205 606 LINE",
"205 672 OFFCURVE",
"233 776 OFFCURVE",
"286 776 CURVE SMOOTH",
"338 776 OFFCURVE",
"374 709 OFFCURVE",
"374 686 CURVE SMOOTH",
"374 675 OFFCURVE",
"379 657 OFFCURVE",
"389 657 CURVE SMOOTH",
"419 657 OFFCURVE",
"481 725 OFFCURVE",
"481 752 CURVE SMOOTH"
);
}
);
width = 213;
},
{
layerId = "C23C635F-568C-40B7-8839-28DDBF9C11D0";
paths = (
{
closed = 1;
nodes = (
"-215 763 OFFCURVE",
"-210 749 OFFCURVE",
"-201 749 CURVE SMOOTH",
"-190 749 OFFCURVE",
"-179 778 OFFCURVE",
"-164 778 CURVE SMOOTH",
"-113 778 OFFCURVE",
"92 702 OFFCURVE",
"92 644 CURVE SMOOTH",
"92 638 OFFCURVE",
"91 631 OFFCURVE",
"91 625 CURVE",
"0 625 LINE SMOOTH",
"-16 625 OFFCURVE",
"-25 624 OFFCURVE",
"-31 606 CURVE SMOOTH",
"-55 532 LINE SMOOTH",
"-60 517 OFFCURVE",
"-53 510 OFFCURVE",
"-34 510 CURVE SMOOTH",
"84 510 LINE",
"65 304 OFFCURVE",
"48 120 OFFCURVE",
"40 62 CURVE SMOOTH",
"35 25 OFFCURVE",
"26 -23 OFFCURVE",
"64 -23 CURVE SMOOTH",
"118 -23 OFFCURVE",
"182 97 OFFCURVE",
"187 174 CURVE SMOOTH",
"197 343 OFFCURVE",
"207 401 OFFCURVE",
"217 510 CURVE",
"255 510 LINE SMOOTH",
"286 510 OFFCURVE",
"297 508 OFFCURVE",
"304 529 CURVE SMOOTH",
"327 603 LINE SMOOTH",
"332 618 OFFCURVE",
"325 625 OFFCURVE",
"306 625 CURVE SMOOTH",
"219 625 LINE",
"202 728 OFFCURVE",
"-10 928 OFFCURVE",
"-94 928 CURVE SMOOTH",
"-149 928 OFFCURVE",
"-215 823 OFFCURVE",
"-215 777 CURVE SMOOTH"
);
},
{
closed = 1;
nodes = (
"504 793 OFFCURVE",
"409 890 OFFCURVE",
"299 890 CURVE SMOOTH",
"207 890 OFFCURVE",
"92 782 OFFCURVE",
"92 625 CURVE",
"219 625 LINE",
"219 671 OFFCURVE",
"246 769 OFFCURVE",
"299 769 CURVE SMOOTH",
"351 769 OFFCURVE",
"379 707 OFFCURVE",
"379 689 CURVE SMOOTH",
"379 671 OFFCURVE",
"385 652 OFFCURVE",
"402 652 CURVE SMOOTH",
"436 652 OFFCURVE",
"504 723 OFFCURVE",
"504 755 CURVE SMOOTH"
);
}
);
width = 255;
}
);
},
{
glyphname = "oMatra_reph_anusvara-deva";
lastChange = "2022-01-25 16:15:04 +0000";
layers = (
{
layerId = "B0B60A8F-2DEB-4A58-A43B-60A0DADABD8F";
paths = (
{
closed = 1;
nodes = (
"-204 775 OFFCURVE",
"-199 761 OFFCURVE",
"-192 761 CURVE SMOOTH",
"-182 761 OFFCURVE",
"-169 790 OFFCURVE",
"-156 790 CURVE SMOOTH",
"-108 790 OFFCURVE",
"97 704 OFFCURVE",
"97 646 CURVE SMOOTH",
"97 634 OFFCURVE",
"95 617 OFFCURVE",
"93 606 CURVE",
"0 606 LINE SMOOTH",
"-19 606 OFFCURVE",
"-31 609 OFFCURVE",
"-38 587 CURVE SMOOTH",
"-54 534 LINE SMOOTH",
"-59 519 OFFCURVE",
"-53 512 OFFCURVE",
"-34 512 CURVE SMOOTH",
"84 512 LINE",
"76 421 OFFCURVE",
"51 144 OFFCURVE",
"39 56 CURVE SMOOTH",
"33 14 OFFCURVE",
"28 -23 OFFCURVE",
"59 -23 CURVE SMOOTH",
"100 -23 OFFCURVE",
"162 107 OFFCURVE",
"166 174 CURVE SMOOTH",
"174 318 OFFCURVE",
"190 456 OFFCURVE",
"197 512 CURVE",
"213 512 LINE SMOOTH",
"242 512 OFFCURVE",
"255 509 OFFCURVE",
"262 531 CURVE SMOOTH",
"279 584 LINE SMOOTH",
"284 599 OFFCURVE",
"277 606 OFFCURVE",
"258 606 CURVE SMOOTH",
"205 606 LINE",
"194 710 OFFCURVE",
"-8 916 OFFCURVE",
"-99 916 CURVE SMOOTH",
"-146 916 OFFCURVE",
"-204 835 OFFCURVE",
"-204 789 CURVE SMOOTH"
);
},
{
closed = 1;
nodes = (
"481 783 OFFCURVE",
"386 875 OFFCURVE",
"286 875 CURVE SMOOTH",
"197 875 OFFCURVE",
"89 763 OFFCURVE",
"89 606 CURVE",
"205 606 LINE",
"205 672 OFFCURVE",
"233 776 OFFCURVE",
"286 776 CURVE SMOOTH",
"338 776 OFFCURVE",
"374 709 OFFCURVE",
"374 686 CURVE SMOOTH",
"374 675 OFFCURVE",
"379 657 OFFCURVE",
"389 657 CURVE SMOOTH",
"419 657 OFFCURVE",
"481 725 OFFCURVE",
"481 752 CURVE SMOOTH"
);
},
{
closed = 1;
nodes = (
"57 848 OFFCURVE",
"81 820 OFFCURVE",
"119 820 CURVE SMOOTH",
"155 820 OFFCURVE",
"181 845 OFFCURVE",
"181 881 CURVE SMOOTH",
"181 914 OFFCURVE",
"157 942 OFFCURVE",
"119 942 CURVE SMOOTH",
"83 942 OFFCURVE",
"57 917 OFFCURVE",
"57 881 CURVE SMOOTH"
);
}
);
width = 213;
},
{
layerId = "C23C635F-568C-40B7-8839-28DDBF9C11D0";
paths = (
{
closed = 1;
nodes = (
"-215 763 OFFCURVE",
"-210 749 OFFCURVE",
"-201 749 CURVE SMOOTH",
"-190 749 OFFCURVE",
"-179 778 OFFCURVE",
"-164 778 CURVE SMOOTH",
"-113 778 OFFCURVE",
"92 702 OFFCURVE",
"92 644 CURVE SMOOTH",
"92 638 OFFCURVE",
"91 631 OFFCURVE",
"91 625 CURVE",
"0 625 LINE SMOOTH",
"-16 625 OFFCURVE",
"-25 624 OFFCURVE",
"-31 606 CURVE SMOOTH",
"-55 532 LINE SMOOTH",
"-60 517 OFFCURVE",
"-53 510 OFFCURVE",
"-34 510 CURVE SMOOTH",
"84 510 LINE",
"65 304 OFFCURVE",
"48 120 OFFCURVE",
"40 62 CURVE SMOOTH",
"35 25 OFFCURVE",
"26 -23 OFFCURVE",
"64 -23 CURVE SMOOTH",
"118 -23 OFFCURVE",
"182 97 OFFCURVE",
"187 174 CURVE SMOOTH",
"197 343 OFFCURVE",
"207 401 OFFCURVE",
"217 510 CURVE",
"255 510 LINE SMOOTH",
"286 510 OFFCURVE",
"297 508 OFFCURVE",
"304 529 CURVE SMOOTH",
"327 603 LINE SMOOTH",
"332 618 OFFCURVE",
"325 625 OFFCURVE",
"306 625 CURVE SMOOTH",
"219 625 LINE",
"202 728 OFFCURVE",
"-10 928 OFFCURVE",
"-94 928 CURVE SMOOTH",
"-149 928 OFFCURVE",
"-215 823 OFFCURVE",
"-215 777 CURVE SMOOTH"
);
},
{
closed = 1;
nodes = (
"504 793 OFFCURVE",
"409 890 OFFCURVE",
"299 890 CURVE SMOOTH",
"207 890 OFFCURVE",
"92 782 OFFCURVE",
"92 625 CURVE",
"219 625 LINE",
"219 671 OFFCURVE",
"246 769 OFFCURVE",
"299 769 CURVE SMOOTH",
"351 769 OFFCURVE",
"379 707 OFFCURVE",
"379 689 CURVE SMOOTH",
"379 671 OFFCURVE",
"385 652 OFFCURVE",
"402 652 CURVE SMOOTH",
"436 652 OFFCURVE",
"504 723 OFFCURVE",
"504 755 CURVE SMOOTH"
);
},
{
closed = 1;
nodes = (
"42 873 OFFCURVE",
"73 836 OFFCURVE",
"123 836 CURVE SMOOTH",
"170 836 OFFCURVE",
"204 869 OFFCURVE",
"204 916 CURVE SMOOTH",
"204 959 OFFCURVE",
"173 996 OFFCURVE",
"123 996 CURVE SMOOTH",
"76 996 OFFCURVE",
"42 963 OFFCURVE",
"42 916 CURVE SMOOTH"
);
}
);
width = 255;
}
);
},
{
glyphname = "auMatra-deva";
lastChange = "2022-01-18 13:57:14 +0000";
layers = (
{
background = {
paths = (
{
closed = 1;
nodes = (
"0 629 LINE",
"-15 629 OFFCURVE",
"-25 627 OFFCURVE",
"-30 610 CURVE SMOOTH",
"-55 532 LINE SMOOTH",
"-60 517 OFFCURVE",
"-53 510 OFFCURVE",
"-34 510 CURVE SMOOTH",
"283 510 LINE",
"315 510 OFFCURVE",
"325 508 OFFCURVE",
"332 529 CURVE SMOOTH",
"357 607 LINE SMOOTH",
"362 622 OFFCURVE",
"355 629 OFFCURVE",
"336 629 CURVE SMOOTH"
);
},
{
closed = 1;
nodes = (
"87 541 LINE",
"64 295 OFFCURVE",
"47 117 OFFCURVE",
"40 63 CURVE SMOOTH",
"35 27 OFFCURVE",
"26 -23 OFFCURVE",
"65 -23 CURVE SMOOTH",
"122 -23 OFFCURVE",
"186 95 OFFCURVE",
"191 174 CURVE SMOOTH",
"203 361 OFFCURVE",
"211 396 OFFCURVE",
"224 538 CURVE"
);
},
{
closed = 1;
nodes = (
"170 616 LINE",
"170 674 OFFCURVE",
"-52 846 OFFCURVE",
"-127 846 CURVE SMOOTH",
"-174 846 OFFCURVE",
"-216 756 OFFCURVE",
"-216 722 CURVE SMOOTH",
"-216 704 OFFCURVE",
"-211 691 OFFCURVE",
"-204 691 CURVE SMOOTH",
"-192 691 OFFCURVE",
"-181 720 OFFCURVE",
"-166 720 CURVE SMOOTH",
"-126 720 OFFCURVE",
"70 668 OFFCURVE",
"70 629 CURVE SMOOTH",
"70 622 OFFCURVE",
"69 618 OFFCURVE",
"69 616 CURVE"
);
},
{
closed = 1;
nodes = (
"246 616 LINE",
"246 716 OFFCURVE",
"52 1045 OFFCURVE",
"-52 1045 CURVE SMOOTH",
"-107 1045 OFFCURVE",
"-183 961 OFFCURVE",
"-183 917 CURVE SMOOTH",
"-183 903 OFFCURVE",
"-180 893 OFFCURVE",
"-173 893 CURVE SMOOTH",
"-163 893 OFFCURVE",
"-140 919 OFFCURVE",
"-129 919 CURVE SMOOTH",
"-92 919 OFFCURVE",
"74 787 OFFCURVE",
"137 698 CURVE",
"113 679 LINE",
"124 664 OFFCURVE",
"157 620 OFFCURVE",
"156 616 CURVE"
);
},
{
closed = 1;
nodes = (
"0 606 LINE",
"-19 606 OFFCURVE",
"-31 609 OFFCURVE",
"-38 587 CURVE SMOOTH",
"-54 534 LINE SMOOTH",
"-59 519 OFFCURVE",
"-53 512 OFFCURVE",
"-34 512 CURVE SMOOTH",
"213 512 LINE",
"242 512 OFFCURVE",
"255 509 OFFCURVE",
"262 531 CURVE SMOOTH",
"279 584 LINE SMOOTH",
"284 599 OFFCURVE",
"277 606 OFFCURVE",
"258 606 CURVE SMOOTH"
);
},
{
closed = 1;
nodes = (
"170 597 LINE",
"170 655 OFFCURVE",
"-52 833 OFFCURVE",
"-127 833 CURVE SMOOTH",
"-165 833 OFFCURVE",
"-207 761 OFFCURVE",
"-207 731 CURVE SMOOTH",
"-207 716 OFFCURVE",
"-205 703 OFFCURVE",
"-200 703 CURVE SMOOTH",
"-190 703 OFFCURVE",
"-181 733 OFFCURVE",
"-166 733 CURVE SMOOTH",
"-116 733 OFFCURVE",
"82 672 OFFCURVE",
"82 629 CURVE SMOOTH",
"82 622 OFFCURVE",
"79 599 OFFCURVE",
"79 597 CURVE"
);
},
{
closed = 1;
nodes = (
"236 597 LINE",
"236 697 OFFCURVE",
"52 1033 OFFCURVE",
"-52 1033 CURVE SMOOTH",
"-107 1033 OFFCURVE",
"-176 958 OFFCURVE",
"-176 919 CURVE SMOOTH",
"-176 907 OFFCURVE",
"-174 902 OFFCURVE",
"-169 902 CURVE SMOOTH",
"-161 902 OFFCURVE",
"-140 931 OFFCURVE",
"-129 931 CURVE SMOOTH",
"-81 931 OFFCURVE",
"87 796 OFFCURVE",
"153 688 CURVE",
"119 659 LINE",
"130 644 OFFCURVE",
"157 601 OFFCURVE",
"156 597 CURVE"
);
},
{
closed = 1;
nodes = (
"87 541 LINE",
"87 541 OFFCURVE",
"53 162 OFFCURVE",
"39 56 CURVE SMOOTH",
"33 14 OFFCURVE",
"28 -23 OFFCURVE",
"59 -23 CURVE SMOOTH",
"100 -23 OFFCURVE",
"162 107 OFFCURVE",
"166 174 CURVE SMOOTH",
"177 361 OFFCURVE",
"200 538 OFFCURVE",
"200 538 CURVE"
);
}
);
};
layerId = "B0B60A8F-2DEB-4A58-A43B-60A0DADABD8F";
paths = (
{
closed = 1;
nodes = (
"-207 716 OFFCURVE",
"-205 703 OFFCURVE",
"-200 703 CURVE SMOOTH",
"-190 703 OFFCURVE",
"-181 733 OFFCURVE",
"-166 733 CURVE SMOOTH",
"-116 733 OFFCURVE",
"82 672 OFFCURVE",
"82 629 CURVE SMOOTH",
"82 625 OFFCURVE",
"81 614 OFFCURVE",
"80 606 CURVE",
"0 606 LINE SMOOTH",
"-19 606 OFFCURVE",
"-31 609 OFFCURVE",
"-38 587 CURVE SMOOTH",
"-54 534 LINE SMOOTH",
"-59 519 OFFCURVE",
"-53 512 OFFCURVE",
"-34 512 CURVE SMOOTH",
"84 512 LINE",
"76 421 OFFCURVE",
"51 144 OFFCURVE",
"39 56 CURVE SMOOTH",
"33 14 OFFCURVE",
"28 -23 OFFCURVE",
"59 -23 CURVE SMOOTH",
"100 -23 OFFCURVE",
"162 107 OFFCURVE",
"166 174 CURVE SMOOTH",
"174 318 OFFCURVE",
"190 456 OFFCURVE",
"197 512 CURVE",
"213 512 LINE SMOOTH",
"242 512 OFFCURVE",
"255 509 OFFCURVE",
"262 531 CURVE SMOOTH",
"279 584 LINE SMOOTH",
"284 599 OFFCURVE",
"277 606 OFFCURVE",
"258 606 CURVE SMOOTH",
"236 606 LINE",
"226 716 OFFCURVE",
"49 1033 OFFCURVE",
"-52 1033 CURVE SMOOTH",
"-107 1033 OFFCURVE",
"-176 958 OFFCURVE",
"-176 919 CURVE SMOOTH",
"-176 907 OFFCURVE",
"-174 902 OFFCURVE",
"-169 902 CURVE SMOOTH",
"-161 902 OFFCURVE",
"-140 931 OFFCURVE",
"-129 931 CURVE SMOOTH",
"-81 931 OFFCURVE",
"87 796 OFFCURVE",
"153 688 CURVE",
"127 666 LINE",
"59 740 OFFCURVE",
"-73 833 OFFCURVE",
"-127 833 CURVE SMOOTH",
"-165 833 OFFCURVE",
"-207 761 OFFCURVE",
"-207 731 CURVE SMOOTH"
);
}
);
width = 213;
},
{
layerId = "C23C635F-568C-40B7-8839-28DDBF9C11D0";
paths = (
{
closed = 1;
nodes = (
"-215 706 OFFCURVE",
"-210 693 OFFCURVE",
"-203 693 CURVE SMOOTH",
"-192 693 OFFCURVE",
"-181 722 OFFCURVE",
"-166 722 CURVE SMOOTH",
"-126 722 OFFCURVE",
"72 666 OFFCURVE",
"72 635 CURVE SMOOTH",
"72 632 OFFCURVE",
"72 628 OFFCURVE",
"72 625 CURVE",
"0 625 LINE SMOOTH",
"-16 625 OFFCURVE",
"-26 624 OFFCURVE",
"-31 606 CURVE SMOOTH",
"-55 532 LINE SMOOTH",
"-60 517 OFFCURVE",
"-53 510 OFFCURVE",
"-34 510 CURVE SMOOTH",
"84 510 LINE",
"65 304 OFFCURVE",
"48 120 OFFCURVE",
"40 62 CURVE SMOOTH",
"35 25 OFFCURVE",
"26 -23 OFFCURVE",
"64 -23 CURVE SMOOTH",
"118 -23 OFFCURVE",
"182 97 OFFCURVE",
"187 174 CURVE SMOOTH",
"197 343 OFFCURVE",
"207 401 OFFCURVE",
"217 510 CURVE",
"271 510 LINE SMOOTH",
"303 510 OFFCURVE",
"313 508 OFFCURVE",
"320 529 CURVE SMOOTH",
"344 603 LINE SMOOTH",
"349 618 OFFCURVE",
"342 625 OFFCURVE",
"323 625 CURVE SMOOTH",
"244 625 LINE",
"230 738 OFFCURVE",
"48 1043 OFFCURVE",
"-52 1043 CURVE SMOOTH",
"-107 1043 OFFCURVE",
"-182 961 OFFCURVE",
"-182 917 CURVE SMOOTH",
"-182 904 OFFCURVE",
"-179 895 OFFCURVE",
"-172 895 CURVE SMOOTH",
"-163 895 OFFCURVE",
"-140 921 OFFCURVE",
"-129 921 CURVE SMOOTH",
"-90 921 OFFCURVE",
"76 789 OFFCURVE",
"140 696 CURVE",
"125 684 LINE",
"56 756 OFFCURVE",
"-74 844 OFFCURVE",
"-127 844 CURVE SMOOTH",
"-173 844 OFFCURVE",
"-215 757 OFFCURVE",
"-215 724 CURVE SMOOTH"
);
}
);
width = 271.33333;
}
);
unicode = 094C;
},
{
glyphname = "auMatra_reph-deva";
lastChange = "2022-01-25 16:17:02 +0000";
layers = (
{
layerId = "B0B60A8F-2DEB-4A58-A43B-60A0DADABD8F";
paths = (
{
closed = 1;
nodes = (
"-207 716 OFFCURVE",
"-205 703 OFFCURVE",
"-200 703 CURVE SMOOTH",
"-190 703 OFFCURVE",
"-181 733 OFFCURVE",
"-166 733 CURVE SMOOTH",
"-116 733 OFFCURVE",
"82 672 OFFCURVE",
"82 629 CURVE SMOOTH",
"82 625 OFFCURVE",
"81 614 OFFCURVE",
"80 606 CURVE",
"0 606 LINE SMOOTH",
"-19 606 OFFCURVE",
"-31 609 OFFCURVE",
"-38 587 CURVE SMOOTH",
"-54 534 LINE SMOOTH",
"-59 519 OFFCURVE",
"-53 512 OFFCURVE",
"-34 512 CURVE SMOOTH",
"84 512 LINE",
"76 421 OFFCURVE",
"51 144 OFFCURVE",
"39 56 CURVE SMOOTH",
"33 14 OFFCURVE",
"28 -23 OFFCURVE",
"59 -23 CURVE SMOOTH",
"100 -23 OFFCURVE",
"162 107 OFFCURVE",
"166 174 CURVE SMOOTH",
"174 318 OFFCURVE",
"190 456 OFFCURVE",
"197 512 CURVE",
"213 512 LINE SMOOTH",
"242 512 OFFCURVE",
"255 509 OFFCURVE",
"262 531 CURVE SMOOTH",
"279 584 LINE SMOOTH",
"284 599 OFFCURVE",
"277 606 OFFCURVE",
"258 606 CURVE SMOOTH",
"236 606 LINE",
"226 716 OFFCURVE",
"49 1033 OFFCURVE",
"-52 1033 CURVE SMOOTH",
"-107 1033 OFFCURVE",
"-176 958 OFFCURVE",
"-176 919 CURVE SMOOTH",
"-176 907 OFFCURVE",
"-174 902 OFFCURVE",
"-169 902 CURVE SMOOTH",
"-161 902 OFFCURVE",
"-140 931 OFFCURVE",
"-129 931 CURVE SMOOTH",
"-81 931 OFFCURVE",
"87 796 OFFCURVE",
"153 688 CURVE",
"127 666 LINE",
"59 740 OFFCURVE",
"-73 833 OFFCURVE",
"-127 833 CURVE SMOOTH",
"-165 833 OFFCURVE",
"-207 761 OFFCURVE",
"-207 731 CURVE SMOOTH"
);
},
{
closed = 1;
nodes = (
"512 783 OFFCURVE",
"417 875 OFFCURVE",
"317 875 CURVE SMOOTH",
"228 875 OFFCURVE",
"120 763 OFFCURVE",
"120 606 CURVE",
"236 606 LINE",
"236 672 OFFCURVE",
"264 776 OFFCURVE",
"317 776 CURVE SMOOTH",
"369 776 OFFCURVE",
"405 709 OFFCURVE",
"405 686 CURVE SMOOTH",
"405 675 OFFCURVE",
"410 657 OFFCURVE",
"420 657 CURVE SMOOTH",
"450 657 OFFCURVE",
"512 725 OFFCURVE",
"512 752 CURVE SMOOTH"
);
}
);
width = 213;
},
{
layerId = "C23C635F-568C-40B7-8839-28DDBF9C11D0";
paths = (
{
closed = 1;
nodes = (
"-215 706 OFFCURVE",
"-210 693 OFFCURVE",
"-203 693 CURVE SMOOTH",
"-192 693 OFFCURVE",
"-181 722 OFFCURVE",
"-166 722 CURVE SMOOTH",
"-126 722 OFFCURVE",
"72 666 OFFCURVE",
"72 635 CURVE SMOOTH",
"72 632 OFFCURVE",
"72 628 OFFCURVE",
"72 625 CURVE",
"0 625 LINE SMOOTH",
"-16 625 OFFCURVE",
"-25 624 OFFCURVE",
"-31 606 CURVE SMOOTH",
"-55 532 LINE SMOOTH",
"-60 517 OFFCURVE",
"-53 510 OFFCURVE",
"-34 510 CURVE SMOOTH",
"84 510 LINE",
"65 304 OFFCURVE",
"48 120 OFFCURVE",
"40 62 CURVE SMOOTH",
"35 25 OFFCURVE",
"26 -23 OFFCURVE",
"64 -23 CURVE SMOOTH",
"118 -23 OFFCURVE",
"182 97 OFFCURVE",
"187 174 CURVE SMOOTH",
"197 343 OFFCURVE",
"207 401 OFFCURVE",
"217 510 CURVE",
"271 510 LINE SMOOTH",
"303 510 OFFCURVE",
"313 508 OFFCURVE",
"320 529 CURVE SMOOTH",
"344 603 LINE SMOOTH",
"349 618 OFFCURVE",
"342 625 OFFCURVE",
"323 625 CURVE SMOOTH",
"244 625 LINE",
"230 738 OFFCURVE",
"48 1043 OFFCURVE",
"-52 1043 CURVE SMOOTH",
"-107 1043 OFFCURVE",
"-182 961 OFFCURVE",
"-182 917 CURVE SMOOTH",
"-182 904 OFFCURVE",
"-179 895 OFFCURVE",
"-172 895 CURVE SMOOTH",
"-163 895 OFFCURVE",
"-140 921 OFFCURVE",
"-129 921 CURVE SMOOTH",
"-90 921 OFFCURVE",
"76 789 OFFCURVE",
"140 696 CURVE",
"125 684 LINE",
"56 756 OFFCURVE",
"-74 844 OFFCURVE",
"-127 844 CURVE SMOOTH",
"-173 844 OFFCURVE",
"-215 757 OFFCURVE",
"-215 724 CURVE SMOOTH"
);
},
{
closed = 1;
nodes = (
"529 793 OFFCURVE",
"434 890 OFFCURVE",
"324 890 CURVE SMOOTH",
"232 890 OFFCURVE",
"117 782 OFFCURVE",
"117 625 CURVE",
"244 625 LINE",
"244 671 OFFCURVE",
"271 769 OFFCURVE",
"324 769 CURVE SMOOTH",
"376 769 OFFCURVE",
"404 707 OFFCURVE",
"404 689 CURVE SMOOTH",
"404 671 OFFCURVE",
"410 652 OFFCURVE",
"427 652 CURVE SMOOTH",
"461 652 OFFCURVE",
"529 723 OFFCURVE",
"529 755 CURVE SMOOTH"
);
}
);
width = 271;
}
);
},
{
glyphname = "auMatra_reph_anusvara-deva";
lastChange = "2022-01-25 16:16:41 +0000";
layers = (
{
layerId = "B0B60A8F-2DEB-4A58-A43B-60A0DADABD8F";
paths = (
{
closed = 1;
nodes = (
"-207 716 OFFCURVE",
"-205 703 OFFCURVE",
"-200 703 CURVE SMOOTH",
"-190 703 OFFCURVE",
"-181 733 OFFCURVE",
"-166 733 CURVE SMOOTH",
"-116 733 OFFCURVE",
"82 672 OFFCURVE",
"82 629 CURVE SMOOTH",
"82 625 OFFCURVE",
"81 614 OFFCURVE",
"80 606 CURVE",
"0 606 LINE SMOOTH",
"-19 606 OFFCURVE",
"-31 609 OFFCURVE",
"-38 587 CURVE SMOOTH",
"-54 534 LINE SMOOTH",
"-59 519 OFFCURVE",
"-53 512 OFFCURVE",
"-34 512 CURVE SMOOTH",
"84 512 LINE",
"76 421 OFFCURVE",
"51 144 OFFCURVE",
"39 56 CURVE SMOOTH",
"33 14 OFFCURVE",
"28 -23 OFFCURVE",
"59 -23 CURVE SMOOTH",
"100 -23 OFFCURVE",
"162 107 OFFCURVE",
"166 174 CURVE SMOOTH",
"174 318 OFFCURVE",
"190 456 OFFCURVE",
"197 512 CURVE",
"213 512 LINE SMOOTH",
"242 512 OFFCURVE",
"255 509 OFFCURVE",
"262 531 CURVE SMOOTH",
"279 584 LINE SMOOTH",
"284 599 OFFCURVE",
"277 606 OFFCURVE",
"258 606 CURVE SMOOTH",
"236 606 LINE",
"226 716 OFFCURVE",
"49 1033 OFFCURVE",
"-52 1033 CURVE SMOOTH",
"-107 1033 OFFCURVE",
"-176 958 OFFCURVE",
"-176 919 CURVE SMOOTH",
"-176 907 OFFCURVE",
"-174 902 OFFCURVE",
"-169 902 CURVE SMOOTH",
"-161 902 OFFCURVE",
"-140 931 OFFCURVE",
"-129 931 CURVE SMOOTH",
"-81 931 OFFCURVE",
"87 796 OFFCURVE",
"153 688 CURVE",
"127 666 LINE",
"59 740 OFFCURVE",
"-73 833 OFFCURVE",
"-127 833 CURVE SMOOTH",
"-165 833 OFFCURVE",
"-207 761 OFFCURVE",
"-207 731 CURVE SMOOTH"
);
},
{
closed = 1;
nodes = (
"512 783 OFFCURVE",
"417 875 OFFCURVE",
"317 875 CURVE SMOOTH",
"228 875 OFFCURVE",
"120 763 OFFCURVE",
"120 606 CURVE",
"236 606 LINE",
"236 672 OFFCURVE",
"264 776 OFFCURVE",
"317 776 CURVE SMOOTH",
"369 776 OFFCURVE",
"405 709 OFFCURVE",
"405 686 CURVE SMOOTH",
"405 675 OFFCURVE",
"410 657 OFFCURVE",
"420 657 CURVE SMOOTH",
"450 657 OFFCURVE",
"512 725 OFFCURVE",
"512 752 CURVE SMOOTH"
);
},
{
closed = 1;
nodes = (
"127 881 OFFCURVE",
"151 853 OFFCURVE",
"189 853 CURVE SMOOTH",
"225 853 OFFCURVE",
"251 878 OFFCURVE",
"251 914 CURVE SMOOTH",
"251 947 OFFCURVE",
"227 975 OFFCURVE",
"189 975 CURVE SMOOTH",
"153 975 OFFCURVE",
"127 950 OFFCURVE",
"127 914 CURVE SMOOTH"
);
}
);
width = 213;
},
{
layerId = "C23C635F-568C-40B7-8839-28DDBF9C11D0";
paths = (
{
closed = 1;
nodes = (
"-215 706 OFFCURVE",
"-210 693 OFFCURVE",
"-203 693 CURVE SMOOTH",
"-192 693 OFFCURVE",
"-181 722 OFFCURVE",
"-166 722 CURVE SMOOTH",
"-126 722 OFFCURVE",
"72 666 OFFCURVE",
"72 635 CURVE SMOOTH",
"72 632 OFFCURVE",
"72 628 OFFCURVE",
"72 625 CURVE",
"0 625 LINE SMOOTH",
"-16 625 OFFCURVE",
"-25 624 OFFCURVE",
"-31 606 CURVE SMOOTH",
"-55 532 LINE SMOOTH",
"-60 517 OFFCURVE",
"-53 510 OFFCURVE",
"-34 510 CURVE SMOOTH",
"84 510 LINE",
"65 304 OFFCURVE",
"48 120 OFFCURVE",
"40 62 CURVE SMOOTH",
"35 25 OFFCURVE",
"26 -23 OFFCURVE",
"64 -23 CURVE SMOOTH",
"118 -23 OFFCURVE",
"182 97 OFFCURVE",
"187 174 CURVE SMOOTH",
"197 343 OFFCURVE",
"207 401 OFFCURVE",
"217 510 CURVE",
"271 510 LINE SMOOTH",
"303 510 OFFCURVE",
"313 508 OFFCURVE",
"320 529 CURVE SMOOTH",
"344 603 LINE SMOOTH",
"349 618 OFFCURVE",
"342 625 OFFCURVE",
"323 625 CURVE SMOOTH",
"244 625 LINE",
"230 738 OFFCURVE",
"48 1043 OFFCURVE",
"-52 1043 CURVE SMOOTH",
"-107 1043 OFFCURVE",
"-182 961 OFFCURVE",
"-182 917 CURVE SMOOTH",
"-182 904 OFFCURVE",
"-179 895 OFFCURVE",
"-172 895 CURVE SMOOTH",
"-163 895 OFFCURVE",
"-140 921 OFFCURVE",
"-129 921 CURVE SMOOTH",
"-90 921 OFFCURVE",
"76 789 OFFCURVE",
"140 696 CURVE",
"125 684 LINE",
"56 756 OFFCURVE",
"-74 844 OFFCURVE",
"-127 844 CURVE SMOOTH",
"-173 844 OFFCURVE",
"-215 757 OFFCURVE",
"-215 724 CURVE SMOOTH"
);
},
{
closed = 1;
nodes = (
"529 793 OFFCURVE",
"434 890 OFFCURVE",
"324 890 CURVE SMOOTH",
"232 890 OFFCURVE",
"117 782 OFFCURVE",
"117 625 CURVE",
"244 625 LINE",
"244 671 OFFCURVE",
"271 769 OFFCURVE",
"324 769 CURVE SMOOTH",
"376 769 OFFCURVE",
"404 707 OFFCURVE",
"404 689 CURVE SMOOTH",
"404 671 OFFCURVE",
"410 652 OFFCURVE",
"427 652 CURVE SMOOTH",
"461 652 OFFCURVE",
"529 723 OFFCURVE",
"529 755 CURVE SMOOTH"
);
},
{
closed = 1;
nodes = (
"122 923 OFFCURVE",
"153 886 OFFCURVE",
"203 886 CURVE SMOOTH",
"250 886 OFFCURVE",
"284 919 OFFCURVE",
"284 966 CURVE SMOOTH",
"284 1009 OFFCURVE",
"253 1046 OFFCURVE",
"203 1046 CURVE SMOOTH",
"156 1046 OFFCURVE",
"122 1013 OFFCURVE",
"122 966 CURVE SMOOTH"
);
}
);
width = 271;
}
);
},
{
glyphname = "ka-deva";
lastChange = "2022-01-25 20:22:28 +0000";
layers = (
{
anchors = (
{
name = bottom;
position = "{407, -21}";
},
{
name = top;
position = "{548, 606}";
}
);
background = {
paths = (
{
closed = 1;
nodes = (
"0 629 LINE",
"-15 629 OFFCURVE",
"-25 627 OFFCURVE",
"-30 610 CURVE SMOOTH",
"-55 532 LINE SMOOTH",
"-60 517 OFFCURVE",
"-53 510 OFFCURVE",
"-34 510 CURVE SMOOTH",
"930 510 LINE",
"962 510 OFFCURVE",
"972 508 OFFCURVE",
"979 529 CURVE SMOOTH",
"1004 607 LINE SMOOTH",
"1009 622 OFFCURVE",
"1002 629 OFFCURVE",
"983 629 CURVE SMOOTH"
);
},
{
closed = 1;
nodes = (
"168 463 OFFCURVE",
"46 352 OFFCURVE",
"46 235 CURVE SMOOTH",
"46 126 OFFCURVE",
"135 60 OFFCURVE",
"242 60 CURVE SMOOTH",
"340 60 OFFCURVE",
"413 113 OFFCURVE",
"454 156 CURVE",
"454 156 OFFCURVE",
"415 273 OFFCURVE",
"415 273 CURVE",
"396 251 OFFCURVE",
"329 172 OFFCURVE",
"273 172 CURVE SMOOTH",
"222 172 OFFCURVE",
"174 223 OFFCURVE",
"174 264 CURVE SMOOTH",
"174 292 OFFCURVE",
"221 358 OFFCURVE",
"284 358 CURVE SMOOTH",
"320 358 OFFCURVE",
"385 336 OFFCURVE",
"425 322 CURVE",
"437 449 LINE",
"430 451 OFFCURVE",
"371 463 OFFCURVE",
"303 463 CURVE SMOOTH"
);
},
{
closed = 1;
nodes = (
"435 541 LINE",
"412 295 OFFCURVE",
"395 117 OFFCURVE",
"388 63 CURVE SMOOTH",
"383 27 OFFCURVE",
"371 -21 OFFCURVE",
"407 -21 CURVE SMOOTH",
"470 -21 OFFCURVE",
"534 94 OFFCURVE",
"539 174 CURVE SMOOTH",
"551 361 OFFCURVE",
"572 538 OFFCURVE",
"572 538 CURVE"
);
},
{
closed = 1;
nodes = (
"782 45 OFFCURVE",
"881 157 OFFCURVE",
"881 248 CURVE SMOOTH",
"881 357 OFFCURVE",
"762 455 OFFCURVE",
"679 455 CURVE SMOOTH",
"592 455 OFFCURVE",
"482 348 OFFCURVE",
"461 329 CURVE",
"508 185 LINE",
"535 212 OFFCURVE",
"627 340 OFFCURVE",
"683 340 CURVE SMOOTH",
"723 340 OFFCURVE",
"754 282 OFFCURVE",
"754 257 CURVE SMOOTH",
"754 225 OFFCURVE",
"684 175 OFFCURVE",
"668 175 CURVE SMOOTH",
"655 175 OFFCURVE",
"631 204 OFFCURVE",
"619 204 CURVE SMOOTH",
"611 204 OFFCURVE",
"610 189 OFFCURVE",
"610 181 CURVE SMOOTH",
"610 139 OFFCURVE",
"689 45 OFFCURVE",
"734 45 CURVE SMOOTH"
);
},
{
closed = 1;
nodes = (
"0 606 LINE",
"-29 606 OFFCURVE",
"-42 609 OFFCURVE",
"-49 587 CURVE SMOOTH",
"-65 534 LINE SMOOTH",
"-70 519 OFFCURVE",
"-63 512 OFFCURVE",
"-44 512 CURVE SMOOTH",
"910 512 LINE",
"939 512 OFFCURVE",
"952 509 OFFCURVE",
"959 531 CURVE SMOOTH",
"976 584 LINE SMOOTH",
"981 599 OFFCURVE",
"974 606 OFFCURVE",
"955 606 CURVE SMOOTH"
);
},
{
closed = 1;
nodes = (
"168 453 OFFCURVE",
"56 352 OFFCURVE",
"56 238 CURVE SMOOTH",
"56 126 OFFCURVE",
"146 70 OFFCURVE",
"242 70 CURVE SMOOTH",
"340 70 OFFCURVE",
"413 113 OFFCURVE",
"454 156 CURVE",
"454 156 OFFCURVE",
"415 263 OFFCURVE",
"415 263 CURVE",
"395 235 OFFCURVE",
"329 162 OFFCURVE",
"273 162 CURVE SMOOTH",
"222 162 OFFCURVE",
"164 208 OFFCURVE",
"164 264 CURVE SMOOTH",
"164 302 OFFCURVE",
"221 368 OFFCURVE",
"284 368 CURVE SMOOTH",
"320 368 OFFCURVE",
"385 346 OFFCURVE",
"425 332 CURVE",
"437 439 LINE",
"430 441 OFFCURVE",
"371 453 OFFCURVE",
"303 453 CURVE SMOOTH"
);
},
{
closed = 1;
nodes = (
"774 55 OFFCURVE",
"871 157 OFFCURVE",
"871 248 CURVE SMOOTH",
"871 346 OFFCURVE",
"762 445 OFFCURVE",
"677 445 CURVE SMOOTH",
"592 445 OFFCURVE",
"486 338 OFFCURVE",
"465 319 CURVE",
"504 196 LINE",
"530 227 OFFCURVE",
"627 351 OFFCURVE",
"681 351 CURVE SMOOTH",
"730 351 OFFCURVE",
"764 289 OFFCURVE",
"764 257 CURVE SMOOTH",
"764 218 OFFCURVE",
"697 169 OFFCURVE",
"677 169 CURVE SMOOTH",
"664 169 OFFCURVE",
"641 196 OFFCURVE",
"629 196 CURVE SMOOTH",
"621 196 OFFCURVE",
"620 181 OFFCURVE",
"620 173 CURVE SMOOTH",
"620 131 OFFCURVE",
"696 55 OFFCURVE",
"734 55 CURVE SMOOTH"
);
},
{
closed = 1;
nodes = (
"435 541 LINE",
"435 541 OFFCURVE",
"401 162 OFFCURVE",
"387 56 CURVE SMOOTH",
"381 14 OFFCURVE",
"376 -21 OFFCURVE",
"407 -21 CURVE SMOOTH",
"448 -21 OFFCURVE",
"510 107 OFFCURVE",
"514 174 CURVE SMOOTH",
"525 361 OFFCURVE",
"548 538 OFFCURVE",
"548 538 CURVE"
);
}
);
};
layerId = "B0B60A8F-2DEB-4A58-A43B-60A0DADABD8F";
paths = (
{
closed = 1;
nodes = (
"-70 519 OFFCURVE",
"-63 512 OFFCURVE",
"-44 512 CURVE SMOOTH",
"432 512 LINE",
"426 441 LINE",
"405 446 OFFCURVE",
"357 453 OFFCURVE",
"303 453 CURVE SMOOTH",
"168 453 OFFCURVE",
"56 352 OFFCURVE",
"56 238 CURVE SMOOTH",
"56 126 OFFCURVE",
"146 70 OFFCURVE",
"242 70 CURVE SMOOTH",
"303 70 OFFCURVE",
"353 86 OFFCURVE",
"393 109 CURVE",
"387 56 LINE SMOOTH",
"382 14 OFFCURVE",
"376 -21 OFFCURVE",
"407 -21 CURVE SMOOTH",
"448 -21 OFFCURVE",
"510 107 OFFCURVE",
"514 174 CURVE SMOOTH",
"516 211 LINE",
"553 255 OFFCURVE",
"634 351 OFFCURVE",
"681 351 CURVE SMOOTH",
"730 351 OFFCURVE",
"764 289 OFFCURVE",
"764 257 CURVE SMOOTH",
"764 218 OFFCURVE",
"697 169 OFFCURVE",
"677 169 CURVE SMOOTH",
"664 169 OFFCURVE",
"641 196 OFFCURVE",
"629 196 CURVE SMOOTH",
"621 196 OFFCURVE",
"620 181 OFFCURVE",
"620 173 CURVE SMOOTH",
"620 131 OFFCURVE",
"696 55 OFFCURVE",
"734 55 CURVE SMOOTH",
"774 55 OFFCURVE",
"871 157 OFFCURVE",
"871 248 CURVE SMOOTH",
"871 346 OFFCURVE",
"762 445 OFFCURVE",
"677 445 CURVE SMOOTH",
"628 445 OFFCURVE",
"573 410 OFFCURVE",
"530 376 CURVE",
"536 436 OFFCURVE",
"541 484 OFFCURVE",
"545 512 CURVE",
"910 512 LINE SMOOTH",
"939 512 OFFCURVE",
"952 509 OFFCURVE",
"959 531 CURVE SMOOTH",
"976 584 LINE SMOOTH",
"981 599 OFFCURVE",
"974 606 OFFCURVE",
"955 606 CURVE SMOOTH",
"0 606 LINE SMOOTH",
"-29 606 OFFCURVE",
"-42 609 OFFCURVE",
"-49 587 CURVE SMOOTH",
"-65 534 LINE SMOOTH"
);
},
{
closed = 1;
nodes = (
"164 302 OFFCURVE",
"221 368 OFFCURVE",
"284 368 CURVE SMOOTH",
"317 368 OFFCURVE",
"376 349 OFFCURVE",
"416 335 CURVE",
"408 254 LINE",
"383 222 OFFCURVE",
"324 162 OFFCURVE",
"273 162 CURVE SMOOTH",
"222 162 OFFCURVE",
"164 208 OFFCURVE",
"164 264 CURVE SMOOTH"
);
}
);
width = 911;
},
{
anchors = (
{
name = bottom;
position = "{407, -21}";
},
{
name = top;
position = "{465, 625}";
}
);
layerId = "C23C635F-568C-40B7-8839-28DDBF9C11D0";
paths = (
{
closed = 1;
nodes = (
"-62 517 OFFCURVE",
"-55 510 OFFCURVE",
"-36 510 CURVE SMOOTH",
"432 510 LINE",
"427 449 LINE",
"406 454 OFFCURVE",
"357 461 OFFCURVE",
"303 461 CURVE SMOOTH",
"168 461 OFFCURVE",
"48 352 OFFCURVE",
"48 236 CURVE SMOOTH",
"48 126 OFFCURVE",
"137 62 OFFCURVE",
"242 62 CURVE SMOOTH",
"302 62 OFFCURVE",
"353 81 OFFCURVE",
"393 107 CURVE",
"388 62 LINE SMOOTH",
"384 25 OFFCURVE",
"372 -21 OFFCURVE",
"407 -21 CURVE SMOOTH",
"466 -21 OFFCURVE",
"530 96 OFFCURVE",
"535 174 CURVE SMOOTH",
"538 223 LINE",
"577 269 OFFCURVE",
"641 342 OFFCURVE",
"683 342 CURVE SMOOTH",
"724 342 OFFCURVE",
"756 283 OFFCURVE",
"756 257 CURVE SMOOTH",
"756 224 OFFCURVE",
"686 174 OFFCURVE",
"670 174 CURVE SMOOTH",
"657 174 OFFCURVE",
"633 203 OFFCURVE",
"621 203 CURVE SMOOTH",
"613 203 OFFCURVE",
"612 188 OFFCURVE",
"612 180 CURVE SMOOTH",
"612 138 OFFCURVE",
"690 47 OFFCURVE",
"734 47 CURVE SMOOTH",
"781 47 OFFCURVE",
"879 157 OFFCURVE",
"879 248 CURVE SMOOTH",
"879 355 OFFCURVE",
"762 453 OFFCURVE",
"679 453 CURVE SMOOTH",
"638 453 OFFCURVE",
"592 429 OFFCURVE",
"553 403 CURVE",
"558 441 OFFCURVE",
"561 477 OFFCURVE",
"565 510 CURVE",
"927 510 LINE SMOOTH",
"958 510 OFFCURVE",
"969 508 OFFCURVE",
"976 529 CURVE SMOOTH",
"999 603 LINE SMOOTH",
"1004 618 OFFCURVE",
"997 625 OFFCURVE",
"978 625 CURVE SMOOTH",
"0 625 LINE SMOOTH",
"-17 625 OFFCURVE",
"-27 624 OFFCURVE",
"-33 606 CURVE SMOOTH",
"-57 532 LINE SMOOTH"
);
},
{
closed = 1;
nodes = (
"172 294 OFFCURVE",
"221 360 OFFCURVE",
"284 360 CURVE SMOOTH",
"317 360 OFFCURVE",
"375 341 OFFCURVE",
"415 328 CURVE",
"409 264 LINE",
"384 235 OFFCURVE",
"324 170 OFFCURVE",
"273 170 CURVE SMOOTH",
"222 170 OFFCURVE",
"172 221 OFFCURVE",
"172 264 CURVE SMOOTH"
);
}
);
width = 926.83333;
}
);
unicode = 0915;
},
{
glyphname = "kha-deva";
lastChange = "2022-01-25 20:22:54 +0000";
layers = (
{
anchors = (
{
name = bottom;
position = "{628, -21}";
},
{
name = top;
position = "{658, 606}";
}
);
background = {
paths = (
{
closed = 1;
nodes = (
"0 629 LINE",
"-15 629 OFFCURVE",
"-25 627 OFFCURVE",
"-30 610 CURVE SMOOTH",
"-55 532 LINE SMOOTH",
"-60 517 OFFCURVE",
"-53 510 OFFCURVE",
"-34 510 CURVE SMOOTH",
"846 510 LINE",
"878 510 OFFCURVE",
"888 508 OFFCURVE",
"895 529 CURVE SMOOTH",
"920 607 LINE SMOOTH",
"925 622 OFFCURVE",
"918 629 OFFCURVE",
"899 629 CURVE SMOOTH"
);
},
{
closed = 1;
nodes = (
"656 541 LINE",
"633 295 OFFCURVE",
"616 117 OFFCURVE",
"609 63 CURVE SMOOTH",
"604 27 OFFCURVE",
"595 -23 OFFCURVE",
"634 -23 CURVE SMOOTH",
"691 -23 OFFCURVE",
"755 95 OFFCURVE",
"760 174 CURVE SMOOTH",
"772 361 OFFCURVE",
"780 396 OFFCURVE",
"793 538 CURVE"
);
},
{
closed = 1;
nodes = (
"168 511 LINE",
"206 513 OFFCURVE",
"244 462 OFFCURVE",
"244 421 CURVE SMOOTH",
"244 384 OFFCURVE",
"194 335 OFFCURVE",
"168 335 CURVE SMOOTH",
"152 335 OFFCURVE",
"146 355 OFFCURVE",
"130 355 CURVE SMOOTH",
"107 355 OFFCURVE",
"41 283 OFFCURVE",
"41 255 CURVE SMOOTH",
"41 240 OFFCURVE",
"57 242 OFFCURVE",
"69 218 CURVE SMOOTH",
"136 82 OFFCURVE",
"247 48 OFFCURVE",
"367 48 CURVE SMOOTH",
"476 48 OFFCURVE",
"600 96 OFFCURVE",
"623 117 CURVE",
"639 312 LINE",
"598 237 OFFCURVE",
"470 165 OFFCURVE",
"378 165 CURVE SMOOTH",
"305 165 OFFCURVE",
"244 206 OFFCURVE",
"217 243 CURVE",
"287 268 OFFCURVE",
"376 352 OFFCURVE",
"376 429 CURVE SMOOTH",
"376 483 OFFCURVE",
"355 520 OFFCURVE",
"332 549 CURVE"
);
},
{
closed = 1;
nodes = (
"471 468 OFFCURVE",
"382 389 OFFCURVE",
"382 297 CURVE SMOOTH",
"382 230 OFFCURVE",
"453 161 OFFCURVE",
"528 161 CURVE SMOOTH",
"597 161 OFFCURVE",
"649 199 OFFCURVE",
"678 229 CURVE",
"639 312 LINE",
"620 282 OFFCURVE",
"599 252 OFFCURVE",
"559 252 CURVE SMOOTH",
"532 252 OFFCURVE",
"489 287 OFFCURVE",
"489 314 CURVE SMOOTH",
"489 342 OFFCURVE",
"524 377 OFFCURVE",
"554 377 CURVE SMOOTH",
"583 377 OFFCURVE",
"624 359 OFFCURVE",
"651 346 CURVE",
"661 457 LINE",
"656 458 OFFCURVE",
"614 468 OFFCURVE",
"569 468 CURVE SMOOTH"
);
},
{
closed = 1;
nodes = (
"0 606 LINE",
"-29 606 OFFCURVE",
"-42 609 OFFCURVE",
"-49 587 CURVE SMOOTH",
"-65 534 LINE SMOOTH",
"-70 519 OFFCURVE",
"-63 512 OFFCURVE",
"-44 512 CURVE SMOOTH",
"810 512 LINE",
"839 512 OFFCURVE",
"852 509 OFFCURVE",
"859 531 CURVE SMOOTH",
"876 584 LINE SMOOTH",
"881 599 OFFCURVE",
"874 606 OFFCURVE",
"855 606 CURVE SMOOTH"
);
},
{
closed = 1;
nodes = (
"184 512 LINE",
"219 514 OFFCURVE",
"256 462 OFFCURVE",
"256 421 CURVE SMOOTH",
"256 374 OFFCURVE",
"195 323 OFFCURVE",
"170 323 CURVE SMOOTH",
"158 323 OFFCURVE",
"142 343 OFFCURVE",
"130 343 CURVE SMOOTH",
"113 343 OFFCURVE",
"53 277 OFFCURVE",
"53 255 CURVE SMOOTH",
"53 240 OFFCURVE",
"67 242 OFFCURVE",
"79 221 CURVE SMOOTH",
"155 95 OFFCURVE",
"264 58 OFFCURVE",
"367 58 CURVE SMOOTH",
"471 58 OFFCURVE",
"593 106 OFFCURVE",
"623 127 CURVE",
"639 302 LINE",
"598 227 OFFCURVE",
"476 155 OFFCURVE",
"379 155 CURVE SMOOTH",
"309 155 OFFCURVE",
"236 189 OFFCURVE",
"201 243 CURVE",
"275 274 OFFCURVE",
"366 356 OFFCURVE",
"366 429 CURVE SMOOTH",
"366 483 OFFCURVE",
"345 518 OFFCURVE",
"322 547 CURVE"
);
},
{
closed = 1;
nodes = (
"478 458 OFFCURVE",
"392 380 OFFCURVE",
"392 297 CURVE SMOOTH",
"392 242 OFFCURVE",
"458 171 OFFCURVE",
"528 171 CURVE SMOOTH",
"597 171 OFFCURVE",
"639 199 OFFCURVE",
"668 229 CURVE",
"639 302 LINE",
"620 272 OFFCURVE",
"599 242 OFFCURVE",
"563 242 CURVE SMOOTH",
"527 242 OFFCURVE",
"479 276 OFFCURVE",
"479 314 CURVE SMOOTH",
"479 352 OFFCURVE",
"524 387 OFFCURVE",
"554 387 CURVE SMOOTH",
"583 387 OFFCURVE",
"624 369 OFFCURVE",
"651 356 CURVE",
"660 444 LINE",
"655 445 OFFCURVE",
"618 458 OFFCURVE",
"569 458 CURVE SMOOTH"
);
},
{
closed = 1;
nodes = (
"656 541 LINE",
"656 541 OFFCURVE",
"622 162 OFFCURVE",
"608 56 CURVE SMOOTH",
"602 14 OFFCURVE",
"597 -21 OFFCURVE",
"628 -21 CURVE SMOOTH",
"669 -21 OFFCURVE",
"731 107 OFFCURVE",
"735 174 CURVE SMOOTH",
"746 361 OFFCURVE",
"769 538 OFFCURVE",
"769 538 CURVE"
);
}
);
};
layerId = "B0B60A8F-2DEB-4A58-A43B-60A0DADABD8F";
paths = (
{
closed = 1;
nodes = (
"-70 519 OFFCURVE",
"-63 512 OFFCURVE",
"-44 512 CURVE SMOOTH",
"186 512 LINE SMOOTH",
"223 512 OFFCURVE",
"256 458 OFFCURVE",
"256 421 CURVE SMOOTH",
"256 374 OFFCURVE",
"195 323 OFFCURVE",
"170 323 CURVE SMOOTH",
"158 323 OFFCURVE",
"142 343 OFFCURVE",
"130 343 CURVE SMOOTH",
"113 343 OFFCURVE",
"53 277 OFFCURVE",
"53 255 CURVE SMOOTH",
"53 240 OFFCURVE",
"67 242 OFFCURVE",
"79 221 CURVE SMOOTH",
"155 95 OFFCURVE",
"264 58 OFFCURVE",
"367 58 CURVE SMOOTH",
"464 58 OFFCURVE",
"577 100 OFFCURVE",
"616 123 CURVE",
"608 56 LINE SMOOTH",
"603 14 OFFCURVE",
"597 -21 OFFCURVE",
"628 -21 CURVE SMOOTH",
"669 -21 OFFCURVE",
"731 107 OFFCURVE",
"735 174 CURVE SMOOTH",
"743 318 OFFCURVE",
"759 456 OFFCURVE",
"766 512 CURVE",
"810 512 LINE SMOOTH",
"839 512 OFFCURVE",
"852 509 OFFCURVE",
"859 531 CURVE SMOOTH",
"876 584 LINE SMOOTH",
"881 599 OFFCURVE",
"874 606 OFFCURVE",
"855 606 CURVE SMOOTH",
"0 606 LINE SMOOTH",
"-29 606 OFFCURVE",
"-42 609 OFFCURVE",
"-49 587 CURVE SMOOTH",
"-65 534 LINE SMOOTH"
);
},
{
closed = 1;
nodes = (
"275 274 OFFCURVE",
"366 356 OFFCURVE",
"366 429 CURVE SMOOTH",
"366 463 OFFCURVE",
"358 490 OFFCURVE",
"346 512 CURVE",
"653 512 LINE",
"647 448 LINE",
"631 452 OFFCURVE",
"603 458 OFFCURVE",
"569 458 CURVE SMOOTH",
"478 458 OFFCURVE",
"392 380 OFFCURVE",
"392 297 CURVE SMOOTH",
"392 253 OFFCURVE",
"434 199 OFFCURVE",
"487 179 CURVE",
"451 164 OFFCURVE",
"413 155 OFFCURVE",
"379 155 CURVE SMOOTH",
"309 155 OFFCURVE",
"236 189 OFFCURVE",
"201 243 CURVE"
);
},
{
closed = 1;
nodes = (
"479 352 OFFCURVE",
"524 387 OFFCURVE",
"554 387 CURVE SMOOTH",
"579 387 OFFCURVE",
"613 374 OFFCURVE",
"639 362 CURVE",
"633 293 LINE",
"616 266 OFFCURVE",
"595 242 OFFCURVE",
"563 242 CURVE SMOOTH",
"527 242 OFFCURVE",
"479 276 OFFCURVE",
"479 314 CURVE SMOOTH"
);
}
);
width = 810;
},
{
anchors = (
{
name = bottom;
position = "{633, -23}";
},
{
name = top;
position = "{593, 625}";
}
);
layerId = "C23C635F-568C-40B7-8839-28DDBF9C11D0";
paths = (
{
closed = 1;
nodes = (
"-62 517 OFFCURVE",
"-55 510 OFFCURVE",
"-36 510 CURVE SMOOTH",
"181 510 LINE SMOOTH",
"215 510 OFFCURVE",
"246 458 OFFCURVE",
"246 421 CURVE SMOOTH",
"246 382 OFFCURVE",
"194 333 OFFCURVE",
"168 333 CURVE SMOOTH",
"153 333 OFFCURVE",
"145 353 OFFCURVE",
"130 353 CURVE SMOOTH",
"108 353 OFFCURVE",
"43 282 OFFCURVE",
"43 255 CURVE SMOOTH",
"43 240 OFFCURVE",
"59 242 OFFCURVE",
"71 219 CURVE SMOOTH",
"139 84 OFFCURVE",
"250 50 OFFCURVE",
"367 50 CURVE SMOOTH",
"466 50 OFFCURVE",
"578 90 OFFCURVE",
"614 113 CURVE",
"609 62 LINE SMOOTH",
"605 25 OFFCURVE",
"595 -23 OFFCURVE",
"633 -23 CURVE SMOOTH",
"687 -23 OFFCURVE",
"751 97 OFFCURVE",
"756 174 CURVE SMOOTH",
"766 343 OFFCURVE",
"776 401 OFFCURVE",
"786 510 CURVE",
"840 510 LINE SMOOTH",
"872 510 OFFCURVE",
"882 508 OFFCURVE",
"889 529 CURVE SMOOTH",
"913 603 LINE SMOOTH",
"918 618 OFFCURVE",
"911 625 OFFCURVE",
"892 625 CURVE SMOOTH",
"0 625 LINE SMOOTH",
"-17 625 OFFCURVE",
"-27 624 OFFCURVE",
"-33 606 CURVE SMOOTH",
"-57 532 LINE SMOOTH"
);
},
{
closed = 1;
nodes = (
"285 269 OFFCURVE",
"374 353 OFFCURVE",
"374 429 CURVE SMOOTH",
"374 462 OFFCURVE",
"366 488 OFFCURVE",
"355 510 CURVE",
"653 510 LINE",
"648 458 LINE",
"632 461 OFFCURVE",
"601 466 OFFCURVE",
"569 466 CURVE SMOOTH",
"472 466 OFFCURVE",
"384 388 OFFCURVE",
"384 297 CURVE SMOOTH",
"384 251 OFFCURVE",
"418 204 OFFCURVE",
"464 180 CURVE",
"434 169 OFFCURVE",
"405 163 OFFCURVE",
"378 163 CURVE SMOOTH",
"306 163 OFFCURVE",
"243 203 OFFCURVE",
"214 243 CURVE"
);
},
{
closed = 1;
nodes = (
"487 344 OFFCURVE",
"524 379 OFFCURVE",
"554 379 CURVE SMOOTH",
"579 379 OFFCURVE",
"612 366 OFFCURVE",
"638 354 CURVE",
"634 302 LINE",
"616 275 OFFCURVE",
"595 250 OFFCURVE",
"560 250 CURVE SMOOTH",
"531 250 OFFCURVE",
"487 285 OFFCURVE",
"487 314 CURVE SMOOTH"
);
}
);
width = 840;
}
);
unicode = 0916;
},
{
glyphname = "ga-deva";
lastChange = "2022-01-25 20:23:06 +0000";
layers = (
{
anchors = (
{
name = bottom;
position = "{427, -23}";
},
{
name = top;
position = "{428, 606}";
}
);
background = {
paths = (
{
closed = 1;
nodes = (
"0 629 LINE",
"-15 629 OFFCURVE",
"-25 627 OFFCURVE",
"-30 610 CURVE SMOOTH",
"-55 532 LINE SMOOTH",
"-60 517 OFFCURVE",
"-53 510 OFFCURVE",
"-34 510 CURVE SMOOTH",
"647 510 LINE",
"679 510 OFFCURVE",
"689 508 OFFCURVE",
"696 529 CURVE SMOOTH",
"721 607 LINE SMOOTH",
"726 622 OFFCURVE",
"719 629 OFFCURVE",
"700 629 CURVE SMOOTH"
);
},
{
closed = 1;
nodes = (
"455 541 LINE",
"432 295 OFFCURVE",
"415 117 OFFCURVE",
"408 63 CURVE SMOOTH",
"403 27 OFFCURVE",
"394 -23 OFFCURVE",
"433 -23 CURVE SMOOTH",
"490 -23 OFFCURVE",
"554 95 OFFCURVE",
"559 174 CURVE SMOOTH",
"571 361 OFFCURVE",
"579 396 OFFCURVE",
"592 538 CURVE"
);
},
{
closed = 1;
nodes = (
"203 499 OFFCURVE",
"190 389 OFFCURVE",
"184 345 CURVE SMOOTH",
"176 286 OFFCURVE",
"106 267 OFFCURVE",
"89 267 CURVE SMOOTH",
"77 267 OFFCURVE",
"58 289 OFFCURVE",
"49 289 CURVE SMOOTH",
"41 289 OFFCURVE",
"40 275 OFFCURVE",
"40 266 CURVE SMOOTH",
"40 235 OFFCURVE",
"101 136 OFFCURVE",
"163 136 CURVE SMOOTH",
"204 136 OFFCURVE",
"296 207 OFFCURVE",
"303 301 CURVE SMOOTH",
"307 362 OFFCURVE",
"319 497 OFFCURVE",
"320 531 CURVE",
"320 531 OFFCURVE",
"220 531 OFFCURVE",
"205 531 CURVE"
);
},
{
closed = 1;
nodes = (
"0 606 LINE",
"-19 606 OFFCURVE",
"-32 609 OFFCURVE",
"-39 587 CURVE SMOOTH",
"-55 534 LINE SMOOTH",
"-60 519 OFFCURVE",
"-53 512 OFFCURVE",
"-34 512 CURVE SMOOTH",
"600 512 LINE",
"629 512 OFFCURVE",
"642 509 OFFCURVE",
"649 531 CURVE SMOOTH",
"666 584 LINE SMOOTH",
"671 599 OFFCURVE",
"664 606 OFFCURVE",
"645 606 CURVE SMOOTH"
);
},
{
closed = 1;
nodes = (
"455 541 LINE",
"455 541 OFFCURVE",
"421 162 OFFCURVE",
"407 56 CURVE SMOOTH",
"401 14 OFFCURVE",
"396 -23 OFFCURVE",
"427 -23 CURVE SMOOTH",
"468 -23 OFFCURVE",
"530 107 OFFCURVE",
"534 174 CURVE SMOOTH",
"545 361 OFFCURVE",
"568 538 OFFCURVE",
"568 538 CURVE"
);
},
{
closed = 1;
nodes = (
"213 499 OFFCURVE",
"200 389 OFFCURVE",
"194 345 CURVE SMOOTH",
"186 286 OFFCURVE",
"126 259 OFFCURVE",
"97 259 CURVE SMOOTH",
"85 259 OFFCURVE",
"68 280 OFFCURVE",
"59 280 CURVE SMOOTH",
"51 280 OFFCURVE",
"52 270 OFFCURVE",
"52 261 CURVE SMOOTH",
"52 230 OFFCURVE",
"117 146 OFFCURVE",
"163 146 CURVE SMOOTH",
"204 146 OFFCURVE",
"286 224 OFFCURVE",
"293 301 CURVE SMOOTH",
"299 362 OFFCURVE",
"309 497 OFFCURVE",
"310 531 CURVE",
"310 531 OFFCURVE",
"230 531 OFFCURVE",
"215 531 CURVE"
);
}
);
};
layerId = "B0B60A8F-2DEB-4A58-A43B-60A0DADABD8F";
paths = (
{
closed = 1;
nodes = (
"-60 519 OFFCURVE",
"-53 512 OFFCURVE",
"-34 512 CURVE SMOOTH",
"213 512 LINE",
"209 468 OFFCURVE",
"199 382 OFFCURVE",
"194 345 CURVE SMOOTH",
"186 286 OFFCURVE",
"126 259 OFFCURVE",
"97 259 CURVE SMOOTH",
"85 259 OFFCURVE",
"68 280 OFFCURVE",
"59 280 CURVE SMOOTH",
"51 280 OFFCURVE",
"52 270 OFFCURVE",
"52 261 CURVE SMOOTH",
"52 230 OFFCURVE",
"117 146 OFFCURVE",
"163 146 CURVE SMOOTH",
"204 146 OFFCURVE",
"286 224 OFFCURVE",
"293 301 CURVE SMOOTH",
"298 354 OFFCURVE",
"306 462 OFFCURVE",
"309 512 CURVE",
"452 512 LINE",
"444 421 OFFCURVE",
"419 144 OFFCURVE",
"407 56 CURVE SMOOTH",
"401 14 OFFCURVE",
"396 -23 OFFCURVE",
"427 -23 CURVE SMOOTH",
"468 -23 OFFCURVE",
"530 107 OFFCURVE",
"534 174 CURVE SMOOTH",
"542 318 OFFCURVE",
"558 456 OFFCURVE",
"565 512 CURVE",
"600 512 LINE SMOOTH",
"629 512 OFFCURVE",
"642 509 OFFCURVE",
"649 531 CURVE SMOOTH",
"666 584 LINE SMOOTH",
"671 599 OFFCURVE",
"664 606 OFFCURVE",
"645 606 CURVE SMOOTH",
"0 606 LINE SMOOTH",
"-19 606 OFFCURVE",
"-32 609 OFFCURVE",
"-39 587 CURVE SMOOTH",
"-55 534 LINE SMOOTH"
);
}
);
width = 600;
},
{
anchors = (
{
name = bottom;
position = "{432, -24}";
},
{
name = top;
position = "{416, 625}";
}
);
layerId = "C23C635F-568C-40B7-8839-28DDBF9C11D0";
paths = (
{
closed = 1;
nodes = (
"-60 517 OFFCURVE",
"-53 510 OFFCURVE",
"-34 510 CURVE SMOOTH",
"205 510 LINE",
"201 466 OFFCURVE",
"191 382 OFFCURVE",
"186 345 CURVE SMOOTH",
"178 286 OFFCURVE",
"109 266 OFFCURVE",
"90 266 CURVE SMOOTH",
"78 266 OFFCURVE",
"60 288 OFFCURVE",
"51 288 CURVE SMOOTH",
"43 288 OFFCURVE",
"42 274 OFFCURVE",
"42 265 CURVE SMOOTH",
"42 234 OFFCURVE",
"104 138 OFFCURVE",
"163 138 CURVE SMOOTH",
"204 138 OFFCURVE",
"294 210 OFFCURVE",
"301 301 CURVE SMOOTH",
"305 353 OFFCURVE",
"314 460 OFFCURVE",
"317 510 CURVE",
"452 510 LINE",
"433 304 OFFCURVE",
"416 120 OFFCURVE",
"408 62 CURVE SMOOTH",
"403 25 OFFCURVE",
"394 -23 OFFCURVE",
"432 -23 CURVE SMOOTH",
"486 -23 OFFCURVE",
"550 97 OFFCURVE",
"555 174 CURVE SMOOTH",
"565 343 OFFCURVE",
"575 401 OFFCURVE",
"585 510 CURVE",
"639 510 LINE SMOOTH",
"671 510 OFFCURVE",
"681 508 OFFCURVE",
"688 529 CURVE SMOOTH",
"712 603 LINE SMOOTH",
"717 618 OFFCURVE",
"710 625 OFFCURVE",
"691 625 CURVE SMOOTH",
"0 625 LINE SMOOTH",
"-16 625 OFFCURVE",
"-26 624 OFFCURVE",
"-32 606 CURVE SMOOTH",
"-55 532 LINE SMOOTH"
);
}
);
width = 639.16667;
}
);
unicode = 0917;
},
